<svg fill="none" height="512" viewBox="0 0 128 128" width="512" xmlns="http://www.w3.org/2000/svg"><g fill="rgb(0,0,0)"><path d="m65.7954 50c0-1.1046-.8954-2-2-2s-2 .8954-2 2v12.7954h-12.7954c-1.1046 0-2 .8954-2 2s.8954 2 2 2h12.7954v12.7954c0 1.1046.8954 2 2 2s2-.8954 2-2v-12.7954h12.7954c1.1046 0 2-.8954 2-2s-.8954-2-2-2h-12.7954z"/><path clip-rule="evenodd" d="m80 28c18.7777 0 34 15.2223 34 34v5c0 18.7777-15.2223 34-34 34h-58c-4.4183 0-8-3.5817-8-8v-31c0-18.7777 15.2223-34 34-34zm30 34c0-16.5685-13.4315-30-30-30h-32c-16.5685 0-30 13.4315-30 30v31c0 2.2091 1.7909 4 4 4h58c16.5685 0 30-13.4315 30-30z" fill-rule="evenodd"/></g></svg>