<svg id="Line" height="512" viewBox="0 0 64 64" width="512" xmlns="http://www.w3.org/2000/svg"><g fill="rgb(0,0,0)"><path d="m10.83594 56.86334h40.84961a6.84344 6.84344 0 0 0 6.83593-6.83594v-3.96191a1.96161 1.96161 0 0 0 -1.6748-1.94336 4.3501 4.3501 0 0 1 0-8.59473 1.9616 1.9616 0 0 0 1.6748-1.94335v-3.96192a6.84344 6.84344 0 0 0 -6.83593-6.83594h-40.84961a6.84345 6.84345 0 0 0 -6.83594 6.83594v3.96192a1.9616 1.9616 0 0 0 1.6748 1.94335 4.3501 4.3501 0 0 1 0 8.59473 1.96161 1.96161 0 0 0 -1.6748 1.94336v3.96191a6.84344 6.84344 0 0 0 6.83594 6.83594zm-4.85449-10.76465a6.31244 6.31244 0 0 0 5.36816-6.27392 6.25377 6.25377 0 0 0 -5.34961-6.24072v-3.96192a4.84116 4.84116 0 0 1 4.83594-4.83594h40.84961a4.84115 4.84115 0 0 1 4.83593 4.83594l.01852 3.92871a6.33264 6.33264 0 0 0 -.01856 12.51465v3.96191a4.84115 4.84115 0 0 1 -4.83593 4.83594h-40.84957a4.84116 4.84116 0 0 1 -4.83594-4.83594z"/><path d="m57.39453 12.36578a6.848 6.848 0 0 0 -8.25976-5.03515l-39.69141 9.648a6.8351 6.8351 0 0 0 -4.708 4.03613 1.00032 1.00032 0 0 0 1.85156.75781 4.82766 4.82766 0 0 1 3.32808-2.85063l39.69145-9.64794a4.84417 4.84417 0 0 1 5.84472 3.5625l2.5625 10.55371a1.00076 1.00076 0 0 0 1.98633-.17775 1.01591 1.01591 0 0 0 -.02832-.23632z"/><path d="m16.49316 45.07135a1.49395 1.49395 0 0 0 1.60352-.249l1.96094-1.75049a.99768.99768 0 0 1 .66308-.25293h4.50684l-2.21387 4.60351a2.21737 2.21737 0 0 0 -.23633 1.00635 2.2698 2.2698 0 0 0 3.93653 1.53809l6.64178-7.14795h3.58576a3.07646 3.07646 0 0 0 3.06059-2.49856 2.99567 2.99567 0 0 0 -2.9541-3.48974h-3.6922l-6.6389-7.14551a2.25148 2.25148 0 0 0 -2.44434-.59033 2.27477 2.27477 0 0 0 -1.49512 2.126 2.20679 2.20679 0 0 0 .22852.9917l2.2215 4.61817h-4.50666a.99539.99539 0 0 1 -.66211-.25244l-1.96191-1.75052a1.49287 1.49287 0 0 0 -2.4873 1.11328v7.76709a1.49517 1.49517 0 0 0 .88378 1.36328zm8.75293 3.53665a.25984.25984 0 0 1 -.28808.06787.27152.27152 0 0 1 -.18067-.24707.25.25 0 0 1 .03125-.12451l2.63868-5.48535h3.17846zm-.44531-17.27734a.23931.23931 0 0 1 -.02344-.10987.27578.27578 0 0 1 .18946-.25048.2613.2613 0 0 1 .28222.07373l5.37683 5.78662h-3.17865zm-7.1914 5.74267 1.11816.99756a2.99166 2.99166 0 0 0 1.99316.75977h16.32715a.99517.99517 0 0 1 .97949 1.16894 1.077 1.077 0 0 1 -1.08593.81934h-16.22071a2.99408 2.99408 0 0 0 -1.99414.76025l-1.11718.99707z"/><path d="m45.607 28.44159a.97263.97263 0 1 0 -.97265-.97266.97262.97262 0 0 0 .97265.97266z"/><path d="m45.607 34.44836a.9726.9726 0 1 0 -.97265-.97259.97256.97256 0 0 0 .97265.97259z"/><path d="m45.607 40.4552a.97263.97263 0 1 0 -.97265-.9726.97256.97256 0 0 0 .97265.9726z"/><path d="m45.607 46.462a.97263.97263 0 1 0 -.97265-.97266.97262.97262 0 0 0 .97265.97266z"/><path d="m45.607 52.46881a.9726.9726 0 1 0 -.97265-.97259.97256.97256 0 0 0 .97265.97259z"/></g></svg>