<?xml version="1.0" encoding="iso-8859-1"?>
<!-- Generator: Adobe Illustrator 19.0.0, SVG Export Plug-In . SVG Version: 6.00 Build 0)  -->
<svg version="1.1" id="Capa_1" xmlns="http://www.w3.org/2000/svg" xmlns:xlink="http://www.w3.org/1999/xlink" x="0px" y="0px"
	 viewBox="0 0 420.4 420.4" style="enable-background:new 0 0 420.4 420.4;" xml:space="preserve">
<g>
	<g>
		<path d="M406.8,269c0-10,3.6-19.6,11.2-27.2c3.2-3.2,3.2-8,0-11.2L189.2,2.6c-3.2-3.2-8-3.2-11.2,0c-7.6,7.6-17.2,11.2-27.2,11.2
			s-19.6-3.6-27.2-11.2c-3.2-3.2-8-3.2-11.2,0L2.4,113c-3.2,3.2-3.2,8,0,11.2c7.6,7.6,11.2,17.2,11.2,27.2S10,171,2.4,178.2
			c-3.2,3.2-3.2,8.4,0,11.2l228.4,228.4c3.2,3.2,8,3.2,11.2,0c7.6-7.6,17.2-11.2,27.2-11.2s19.6,3.6,27.2,11.2c3.2,3.2,8,3.2,11.2,0
			L418,307.4c3.2-3.2,3.2-8,0-11.2C410.4,288.6,406.8,279,406.8,269z M401.2,301.4l-100,100c-9.6-7.2-20.8-10.4-32.4-10.4
			c-11.2,0-22.8,3.6-32.4,10.4l-217.6-218c7.2-9.6,10.4-20.8,10.4-32.4c0.4-11.2-3.2-22.4-10.4-32l100-100
			c9.6,7.2,20.8,10.4,32.4,10.4c11.2,0,22.8-3.6,32.4-10.4l217.6,217.6c-7.2,9.6-10.4,20.8-10.4,32.4
			C390.8,280.2,394.4,291.8,401.2,301.4z"/>
	</g>
</g>
<g>
	<g>
		<path d="M255.2,277c-3.2-3.2-8.4-3.2-11.2,0l-11.2,11.2c-3.2,3.2-3.2,8,0,11.2s8,3.2,11.2,0l11.2-11.2
			C258.4,285,258.4,280.2,255.2,277z"/>
	</g>
</g>
<g>
	<g>
		<path d="M300,232.2c-3.2-3.2-8-3.2-11.2,0l-11.2,11.2c-3.2,3.2-3.2,8,0,11.2s8,3.2,11.2,0l11.2-11.2
			C303.2,240.2,303.2,235.4,300,232.2z"/>
	</g>
</g>
<g>
	<g>
		<path d="M210,322.2c-3.2-3.2-8-3.2-11.2,0l-11.2,11.2c-3.2,3.2-3.2,8,0,11.2c3.2,3.2,8,3.2,11.2,0l11.2-11.2
			C213.2,330.2,213.2,325.4,210,322.2z"/>
	</g>
</g>
<g>
	<g>
		<path d="M345.2,187c-3.2-3.2-8-3.2-11.2,0l-11.2,11.2c-3.2,3.2-3.2,8,0,11.2c2.8,3.2,8,3.2,11.2,0l11.2-11.2
			C348.4,195,348.4,190.2,345.2,187z"/>
	</g>
</g>
<g>
	<g>
		<path d="M250.8,148.2l-64-34.4l0.8-33.6v-0.4c0-6.8-2.8-12.8-7.2-17.2c-4.4-4.4-10.4-7.2-17.2-7.2h-0.4h-0.4H162
			c-6.8,0-12.8,2.8-17.2,7.2c-4.4,4.4-7.2,10.4-7.2,17.2v0.4v0.4l0.8,33.6l-63.2,34c-2.8,1.2-4.8,4-4.8,7.2v22
			c0.8,0.8,0.8,1.6,1.2,2.4c1.2,4.4,5.6,6.8,10,5.6l59.6-17.2l0.8,33.2l-18,9.6c-2.8,1.2-4.8,4-4.8,7.2v17.2c0,0.8,0,1.6,0.4,2
			c1.2,4.4,5.6,6.8,10,5.6l30-8.8h0.4l3.6-1.2l3.6,1.2c0.4,0,0.4,0,0.8,0.4l29.6,8.4c0.8,0.4,1.6,0.4,2.4,0.4c4.4,0,8-3.6,8-8v-17.2
			c0-2.8-1.6-5.6-4.4-7.2l-18.8-10l0.8-33.2l59.2,17.2c0.8,0.4,1.6,0.4,2.4,0.4c4.4,0,8-3.6,8-8v-22
			C255.2,152.6,253.6,149.8,250.8,148.2z M240,167.4l-59.6-17.2c-4.4-1.2-8.8,1.2-10,5.6c-0.4,0.8-0.4,1.6-0.4,2.4l-1.6,47.6
			c0,3.2,1.6,6,4.4,7.2l18.4,10v1.6l-20-5.6l-5.2-2c-1.6-0.4-3.6-0.4-5.2,0l-6,2l-20,5.6V223l18.8-10c2.8-1.6,4.4-4.4,4-7.2
			l-1.6-48.4c0-4.4-3.6-8-8-7.6c-0.8,0-1.2,0-2,0.4l-59.2,17.2v-7.2h0.4l64-34.4c2.8-1.6,4.4-4.4,4-7.2L154,80.2
			c0-2.4,0.8-4.4,2.4-6c1.6-1.6,4-2.8,6.4-2.8h0.4h0.4c2.4,0,4.8,1.2,6.4,2.8c1.6,1.6,2.4,3.6,2.8,6v0.4l-1.2,38.4
			c0,3.2,1.6,6,4.4,7.2l64,34.4V167.4z"/>
	</g>
</g>
<g>
</g>
<g>
</g>
<g>
</g>
<g>
</g>
<g>
</g>
<g>
</g>
<g>
</g>
<g>
</g>
<g>
</g>
<g>
</g>
<g>
</g>
<g>
</g>
<g>
</g>
<g>
</g>
<g>
</g>
</svg>
