<?xml version="1.0" encoding="iso-8859-1"?>
<!-- Generator: Adobe Illustrator 19.0.0, SVG Export Plug-In . SVG Version: 6.00 Build 0)  -->
<svg version="1.1" id="Layer_1" xmlns="http://www.w3.org/2000/svg" xmlns:xlink="http://www.w3.org/1999/xlink" x="0px" y="0px"
	 viewBox="0 0 512 512" style="enable-background:new 0 0 512 512;" xml:space="preserve">
<g>
	<g>
		<g>
			<path d="M85.333,213.333h341.333C473.798,213.333,512,175.131,512,128s-38.202-85.333-85.333-85.333H85.333
				C38.202,42.667,0,80.869,0,128S38.202,213.333,85.333,213.333z M85.333,85.333h341.333c23.567,0,42.667,19.099,42.667,42.667
				s-19.099,42.667-42.667,42.667H85.333c-23.567,0-42.667-19.099-42.667-42.667S61.766,85.333,85.333,85.333z"/>
			<path d="M426.667,298.667H85.333C38.202,298.667,0,336.869,0,384s38.202,85.333,85.333,85.333h341.333
				C473.798,469.333,512,431.131,512,384S473.798,298.667,426.667,298.667z M426.667,426.667H85.333
				c-23.567,0-42.667-19.099-42.667-42.667s19.099-42.667,42.667-42.667h341.333c23.567,0,42.667,19.099,42.667,42.667
				S450.234,426.667,426.667,426.667z"/>
		</g>
	</g>
</g>
<g>
</g>
<g>
</g>
<g>
</g>
<g>
</g>
<g>
</g>
<g>
</g>
<g>
</g>
<g>
</g>
<g>
</g>
<g>
</g>
<g>
</g>
<g>
</g>
<g>
</g>
<g>
</g>
<g>
</g>
</svg>
