<svg id="Layer_1_4_" enable-background="new 0 0 48 48" height="512" viewBox="0 0 48 48" width="512" xmlns="http://www.w3.org/2000/svg"><path d="m41.955 14.031c.001-.589-.514-1.043-1.095-1-9.926.012-24.019.056-33.8.409-.334.01-.6.286-.596.621.08.352-.24 7.461.713 6.106.25.151.833.281 1.83.325 10.661.417 21.325.523 31.992.499.545.003.989-.441.986-.986zm-32.948 5.462c-.779.009-1.353.107-1.677.238.248-.825.278-4.096.35-5.035 9.492.212 22.573.257 32.286.327l.038 4.008c-10.334.099-20.666.224-30.997.462zm-1.978 7.556c-.543 0-.986.442-.987.987l-.078 5.906c-.036.573.424 1.065.999 1.057l17.056-.055c5.684-.074 11.368-.183 17.053-.348.343.01.628-.271.615-.615-.128-1.025.066-4.928-.485-5.898 2.408-1.211-33.63-.975-34.173-1.034zm33.517 2.888-.074 3.414c-9.552-.228-22.719-.273-32.499-.345.01-1.109.025-2.889.035-3.992 10.884-.266 21.96.141 32.785-.795-.133.344-.229.958-.247 1.718z"/></svg>