<svg id="Layer_1" height="512" viewBox="0 0 64 64" width="512" xmlns="http://www.w3.org/2000/svg" data-name="Layer 1"><path d="m54.419 20.63672h-44.83795a4.8711 4.8711 0 0 0 0 9.74219h44.83795a4.8711 4.8711 0 0 0 0-9.74219zm0 7.74219h-44.83795a2.8711 2.8711 0 0 1 0-5.74219h44.83795a2.8711 2.8711 0 0 1 0 5.74219z"/><path d="m54.419 35.87891h-44.83795a4.87109 4.87109 0 0 0 0 9.74218h44.83795a4.87109 4.87109 0 0 0 0-9.74218zm0 7.74218h-44.83795a2.87109 2.87109 0 1 1 0-5.74218h44.83795a2.87109 2.87109 0 0 1 0 5.74218z"/></svg>