<svg height="512" viewBox="0 0 96 96" width="512" xmlns="http://www.w3.org/2000/svg"><g id="Geography"><path d="m8.93 6.42h78.15v4.79h-78.15z"/><rect height="4.38" rx="2.14" width="86.55" x="4.72"/><path d="m83.62 29.16a6.6 6.6 0 0 1 -4.78 2.07c-2.3 0-3.48-1-6.28-2.73a2.51 2.51 0 0 0 -1.19-.36l-2.68-.14c.82.43.83.51 4.89 3.76a6.17 6.17 0 0 1 1.19 9.31c-2.8 3.09-2.51 3-2.51 8.38a4.87 4.87 0 0 1 -1.34 3.37c-1.44 1.51-2.43 2.88-4.83 2.88a4.87 4.87 0 0 1 -4.35-2.62c-2.08-4-2.73-4.82-2.73-6.7 0-2.25-2.78-1.76-3.74-4.83a.59.59 0 0 0 -.75-.38 7.19 7.19 0 0 1 -2.61.54 6.05 6.05 0 0 1 -5.1-9.31l1.19-1.9-1.79-2.57c-2.55-3.64.76-8.47 5-9.83l6-2a30.49 30.49 0 0 1 4-2.89h-52.28v14.89l3.66 3.6a8.52 8.52 0 0 1 2.41 7.72c-1.28 6.84-.37 4.67-6.08 13.22v7.36h78.15v-32c-2.07.42-2.74.41-3.45 1.16zm-57.5 4.84c3 .57 4.14 2.55 5.43 4.31l1.62.54a3.36 3.36 0 0 1 1.71 5.07l-6.5 9.53a4.07 4.07 0 0 1 -7 1.61l-1.3-1.47a6.84 6.84 0 0 1 -1.17-7.15l1.33-3.12a1.64 1.64 0 0 0 -.17-1.59c-2.23-3.27-.54-4.81-1.24-6.26l-2.57-5a5.07 5.07 0 0 1 0-4.7 1 1 0 0 0 -.51-1.43c-3.37-1.42-2.11-6.7 1.67-7.93 6.25-2 3.94-1.66 15.33-1.66a6.42 6.42 0 0 1 3.1 12l-3.46 1.95-3.75 3.59a4.48 4.48 0 0 1 -3.13 1.26.27.27 0 0 0 -.27.3zm22.73 19.78-.58.72a5.4 5.4 0 0 1 -4.15 2c-1.08 0-1.44-.2-5.26-1.4a3.06 3.06 0 0 1 -.53-5.62l1.58-.86 1.24-2.26a3.82 3.82 0 0 1 6-1l1.25 1.16a5.38 5.38 0 0 1 .45 7.26zm34.92-6.35-3 4.83a3 3 0 0 1 -5.57-.93l-.24-1c-.67-2.95.64-4.83 1.67-6.72a3.56 3.56 0 0 1 4.14-1.74c1 .29 2.57.58 3.28 2.41a3.56 3.56 0 0 1 -.28 3.15z"/><path d="m49 66v-4h-2v4a3.86 3.86 0 1 0 2 0zm-1 5.53a1.82 1.82 0 1 1 1.82-1.82 1.83 1.83 0 0 1 -1.82 1.78z"/><path d="m32.77 16.79c-11.26 0-8.8-.34-14.69 1.57a3.21 3.21 0 0 0 -2.22 3 1.14 1.14 0 0 0 .7 1.05 3.07 3.07 0 0 1 1.53 4.26 3.13 3.13 0 0 0 0 2.84l2.58 5c1.14 2.23-.69 3.48 1.09 6a3.69 3.69 0 0 1 .38 3.55l-1.32 3.13a4.77 4.77 0 0 0 .81 5l1.3 1.47a2 2 0 0 0 3.5-.81c.12-.46-.31.25 6.77-10.13a1.31 1.31 0 0 0 -.67-2l-2.23-.75c-2.3-3.14-2.29-3.6-5.58-4.24-2.33-.45-1.88-4.31.8-4.31a2.52 2.52 0 0 0 1.72-.69l3.94-3.73 3.7-2a4.37 4.37 0 0 0 -2.11-8.21z"/><path d="m87.07 13.26v12.65c-2.38.48-3.71.53-4.94 1.86a4.51 4.51 0 0 1 -5.65.74c-2.89-1.78-3.52-2.36-5-2.42l-10-.35a4.6 4.6 0 0 0 -3 .91l-3.73 2.75 10.31-.2a5.59 5.59 0 0 1 3.53 1.2l3.8 3.07a4.11 4.11 0 0 1 .87 6.26l-1.08 1.18a7.64 7.64 0 0 0 -2 5.1c0 5.08.34 4.27-2.06 6.8a2.87 2.87 0 0 1 -4.61-.64c-2.09-4-2.49-4.46-2.49-5.75a4 4 0 0 0 -1.72-3.32c-1.17-.81-1.8-1.12-2.12-2.13a2.63 2.63 0 0 0 -3.36-1.69l-.64.21a4 4 0 0 1 -4.68-6l2-3.1-2.57-3.67a3 3 0 0 1 -.31-2.72 6.91 6.91 0 0 1 4.23-4l6.33-2 3.22-2.41a6.21 6.21 0 0 1 3.24-1.21l10.78-.8c2.03-.43-.12-.32 11.65-.32z"/><path d="m45.72 46.84a1.79 1.79 0 0 0 -2.78.45l-1.52 2.81-2.13 1.15a1 1 0 0 0 .18 1.87l3.67 1.15a3.3 3.3 0 0 0 3.54-1.07l.58-.71a3.31 3.31 0 0 0 -.26-4.49z"/><path d="m8.93 31v18c3.58-5.41 2.91-3.8 4.07-10a6.54 6.54 0 0 0 -1.85-5.89z"/><path d="m81.14 44.05-.92-.26a1.55 1.55 0 0 0 -1.79.75c-1 1.87-2 3.15-1.46 5.3l.23 1a1 1 0 0 0 1.85.31l3-4.83a1.55 1.55 0 0 0 -.91-2.27z"/><path d="m42.62 62.04-9.81 33.96h-4.26l9.81-33.96z"/><path d="m67.23 96h-4.25l-9.8-33.96h4.25z"/></g></svg>