<svg id="Layer_1" enable-background="new 0 0 66 66" height="512" viewBox="0 0 66 66" width="512" xmlns="http://www.w3.org/2000/svg"><g><g><g><path d="m6.9 49.62c-.08.05-.21.03-.94-1-.36-.52-.85-1.3-1.46-2.51-.6-1.21-1.33-2.85-1.94-5.12-.6-2.26-1.08-5.18-.96-8.79.12-3.59.76-7.95 2.85-12.68 2.06-4.69 5.77-9.79 11.7-13.52 2.94-1.87 6.41-3.39 10.31-4.25 1.95-.44 4-.69 6.14-.74 2.13-.03 4.33.17 6.55.61 4.85.96 10.23 3.29 14.85 7.36 4.6 4.08 8.15 9.97 9.64 16.59s.83 13.86-1.86 20.24c-1.36 3.19-3.32 6.08-5.67 8.54-2.36 2.44-5.1 4.44-8.01 5.92-5.85 2.93-12.14 4.01-17.76 3.74-5.64-.26-10.58-2.09-14.09-4.5-3.48-2.47-5.8-5.03-7.29-6.87-.74-.93-1.26-1.68-1.59-2.21-.33-.51-.49-.8-.47-.81s.22.25.59.74c.37.5.93 1.22 1.69 2.11 1.53 1.76 3.92 4.24 7.37 6.6 3.47 2.29 8.31 3.99 13.82 4.17 5.48.2 11.64-.94 17.28-3.84 2.8-1.46 5.43-3.41 7.69-5.79 2.24-2.39 4.1-5.19 5.38-8.25 2.55-6.15 3.14-13.16 1.67-19.5-1.46-6.35-4.91-11.99-9.3-15.86-4.42-3.88-9.59-6.1-14.23-7.02-2.12-.42-4.23-.62-6.26-.59-2.03.05-4 .29-5.86.7-3.73.82-7.07 2.26-9.88 4.05-5.69 3.57-9.24 8.4-11.26 12.9-2.04 4.53-2.7 8.73-2.87 12.2-.17 3.5.24 6.3.76 8.51.53 2.21 1.17 3.82 1.69 5.03.53 1.2.94 2.01 1.22 2.56.6 1.1.58 1.22.5 1.28z"/></g></g><g><g><path d="m13.26 55.78c-.07-.08-.07-.16.21-.63.14-.24.32-.6.52-1.16.21-.57.37-1.35.74-2.43.19-.53.46-1.16.97-1.76.5-.61 1.28-1.11 2.23-1.32.95-.22 2.09-.04 3.08.52s1.86 1.52 2.41 2.69c.57 1.16.85 2.51 1.11 3.87.27 1.34.57 2.79 1.47 3.82.43.49 1.07.88 1.76 1.03.69.16 1.4.04 1.88-.42.5-.44.7-1.22.69-2.11 0-.89-.21-1.86-.35-2.93-.15-1.16-.27-2.44-.14-3.81.1-1.36.61-2.87 1.43-4.1.77-1.24 1.72-2.38 2.26-3.63.27-.62.4-1.25.3-1.86-.11-.61-.43-1.16-.93-1.59-1.03-.87-2.57-1.25-4.07-1.4-1.56-.16-3.24-.2-4.88-.84-.81-.32-1.59-.84-2.16-1.52-.57-.67-.96-1.39-1.36-2.05-.41-.65-.8-1.26-1.35-1.63-.55-.38-1.23-.62-1.83-.57-.6.04-1.05.41-1.22.98-.18.58-.11 1.3-.16 2.06-.08 1.52-.6 2.91-1.33 4.07s-1.69 2.09-2.76 2.7c-.53.31-1.08.53-1.63.68-.28.05-.55.14-.82.15-.18.03-.38-.03-.38.17-.52 1.89-.95 3.41-1.25 4.46-.32 1.07-.52 1.65-.56 1.64-.05-.01.06-.62.29-1.71.12-.54.27-1.21.44-1.98.18-.8.39-1.7.62-2.7-.05-.47.48-.34.77-.42.25-.02.49-.11.74-.17.49-.16.99-.37 1.45-.67.95-.58 1.8-1.46 2.44-2.54.64-1.07 1.07-2.36 1.11-3.71.04-.66-.08-1.43.15-2.28.12-.42.36-.85.73-1.16.37-.32.84-.49 1.29-.53.92-.08 1.77.22 2.5.7.76.5 1.24 1.24 1.67 1.91.43.68.81 1.35 1.29 1.88.47.54 1.06.92 1.74 1.18 1.37.52 2.96.55 4.57.69 1.64.16 3.36.5 4.78 1.64.7.57 1.23 1.43 1.39 2.34.16.92-.05 1.84-.37 2.6-.66 1.52-1.63 2.66-2.33 3.83-1.51 2.23-1.36 4.81-1.07 7.02.12 1 .35 2.02.36 3.1.01 1.04-.22 2.3-1.13 3.12-.88.84-2.15.99-3.12.75-.99-.23-1.84-.75-2.48-1.47-1.22-1.46-1.47-3.11-1.75-4.47-.25-1.38-.5-2.58-.97-3.57-.88-2-2.75-2.93-4.11-2.64-1.44.27-2.13 1.37-2.51 2.31-.39.96-.64 1.78-.94 2.37-.29.59-.57.97-.8 1.19-.46.44-.57.37-.63.31z"/></g></g><g><g><path d="m34.48 28.21c-.08-.01-.16-.05-.19-.48 0-.42.01-1.3.68-2.77.33-.73.85-1.57 1.54-2.54.32-.46.77-1.07 1.21-1.55.18-.21.25-.41.34-.76.05-.2.06-.29.06-.44s-.03-.32-.06-.51c-.07-.38-.2-.82-.23-1.36-.02-.27 0-.58.08-.87.07-.24.14-.49.23-.74.18-.5.41-1.02.83-1.53.39-.5 1.23-.96 2-.81.76.11 1.35.48 1.87.87.53.4 1 .86 1.45 1.35.46.49.89 1.01 1.33 1.54.22.26.44.52.66.79l.25.28h.01l.13-.04.29-.09.59-.16c.4-.1.8-.18 1.22-.26.83-.14 1.7-.23 2.6-.25 1.8-.03 3.72.2 5.65.84.57.19 1.16.41 1.75.72.59.29 1.22.71 1.72 1.34.51.63.76 1.51.73 2.29-.01.79-.19 1.52-.38 2.23-.2.71-.44 1.4-.68 2.1-.28.76-.71 1.53-1.28 2.14-1.15 1.23-2.63 1.93-3.76 2.86-.57.46-1.05.98-1.39 1.59-.33.62-.49 1.32-.57 2.05-.13 1.51.08 3.12.03 4.79-.02.43-.03.82-.11 1.28-.07.45-.32 1.05-.81 1.38-.98.6-1.99.4-2.81.07-1.69-.75-2.64-2.36-3.05-3.91-.4-1.56-.39-3.08-.58-4.47-.09-.7-.21-1.35-.49-1.89-.27-.54-.73-.88-1.27-1.01-1.11-.2-2.29.44-3.37.85-1.08.45-2.27.79-3.35.52-1.08-.26-1.79-1.04-2.21-1.73-.43-.71-.61-1.4-.71-1.96s-.08-1.01-.06-1.31c.05-.29.09-.44.11-.44.06 0-.01.63.25 1.7.13.53.35 1.17.78 1.8.42.62 1.08 1.25 1.98 1.43.9.19 1.92-.12 2.97-.6.53-.23 1.08-.5 1.7-.72.61-.21 1.31-.41 2.08-.28.76.14 1.48.67 1.84 1.37.38.69.53 1.44.63 2.16.22 1.45.26 2.94.65 4.33.37 1.35 1.25 2.67 2.51 3.18.61.26 1.37.29 1.77 0 .18-.13.28-.32.33-.66.05-.33.06-.74.07-1.12.03-1.55-.21-3.16-.09-4.86.08-.86.27-1.74.68-2.55.43-.79 1.04-1.46 1.68-1.99 1.31-1.06 2.68-1.75 3.59-2.76.46-.5.76-1.07.99-1.68.23-.69.46-1.37.64-2.03.37-1.32.52-2.58-.13-3.32-.63-.78-1.8-1.24-2.82-1.58-1.77-.59-3.54-.81-5.19-.78-.83.02-1.63.09-2.4.22-.38.07-.76.15-1.13.23l-.54.14c-.23.07-.45.14-.68.21-.34.08-.67-.06-.94-.28-.15-.14-.23-.23-.28-.29l-.19-.22c-.23-.28-.45-.55-.68-.82-.43-.53-.85-1.03-1.27-1.49s-.84-.87-1.28-1.21c-.43-.34-.88-.59-1.24-.63-.36-.07-.61.08-.88.36-.26.3-.46.7-.61 1.12-.08.21-.14.43-.21.63-.05.16-.06.31-.05.5.01.36.11.77.18 1.21.04.22.07.46.07.71s-.06.55-.11.73c-.09.39-.31.9-.61 1.21-.52.54-.85.96-1.22 1.45-.71.92-1.24 1.67-1.59 2.31-.71 1.28-.84 2.05-.99 2.44-.09.41-.18.44-.26.43z"/></g></g><g><g><path d="m31.75 2.74c.07.06.14.12.01.4-.14.26-.59.73-1.55 1.11-.47.2-1.06.38-1.64.69-.6.32-.96.73-1.18 1.76-.25 1.01-.46 2.23-.82 3.67-.36 1.42-.89 3.15-2.19 4.74-.71.85-1.72 1.75-3.1 2.21-1.41.49-2.89.21-4.05.5-1.18.27-2.13 1.2-2.71 2.41-.3.6-.52 1.25-.69 1.9-.09.33-.17.66-.23.99l-.09.5-.05.26-.06.42-.06.41c-.09.07-.25.06-.38.09-.24.04-.59.1-.71.11-.33.05-.67.08-.99.11-.65.06-1.28.09-1.88.09-1.2 0-2.28-.08-3.17-.21-1.79-.26-2.84-.64-2.82-.72.02-.11 1.11.1 2.88.19.88.05 1.93.05 3.09-.03.58-.04 1.18-.11 1.81-.2.31-.05.63-.1.95-.16.2-.03.19-.04.28-.06.03-.01.07-.01.09-.03l.01-.09.01-.09.03-.25.08-.53c.05-.35.12-.71.2-1.06.16-.71.37-1.44.69-2.14s.74-1.39 1.33-1.95c.58-.57 1.33-.99 2.1-1.2 1.58-.38 2.93-.13 3.93-.55 1.05-.36 1.87-1.08 2.46-1.8 1.1-1.33 1.58-2.85 1.95-4.2.36-1.36.6-2.59.9-3.65.15-.53.34-1.1.7-1.56.37-.46.81-.73 1.2-.9.78-.34 1.38-.45 1.83-.58.91-.24 1.26-.46 1.49-.57.18-.13.27-.09.35-.03z"/></g></g><g><g><path d="m12.35 4.98c-.84.27-1.91.9-2.88 1.8-1.98 1.81-2.84 3.84-2.68 3.91.17.1 1.28-1.69 3.14-3.4.93-.85 1.87-1.49 2.61-1.86.73-.38 1.23-.52 1.22-.62-.01-.08-.57-.11-1.41.17z"/></g><g><path d="m14.1 2.06c-.02-.08-.79.03-1.95.5-1.15.45-2.68 1.31-4.09 2.6s-2.41 2.73-2.97 3.83c-.57 1.11-.75 1.86-.68 1.89.2.1 1.38-2.75 4.12-5.21 2.71-2.5 5.65-3.41 5.57-3.61z"/></g></g><g><g><path d="m49.14 62.39c-.63.22-1.04.28-1.05.38 0 .09.44.2 1.16.1s1.67-.46 2.57-1.05c1.83-1.2 2.77-2.74 2.63-2.83-.16-.13-1.3 1.14-3.01 2.25-.84.55-1.67.94-2.3 1.15z"/></g><g><path d="m49.1 64.84c.99-.21 2.34-.69 3.65-1.54s2.3-1.89 2.89-2.71c.59-.83.83-1.41.75-1.46-.18-.12-1.51 1.98-4.02 3.58-2.48 1.64-4.94 2.01-4.9 2.22 0 .09.63.12 1.63-.09z"/></g></g></g></svg>