<?xml version="1.0" encoding="UTF-8"?>
<svg xmlns="http://www.w3.org/2000/svg" viewBox="0 0 64 64" width="512" height="512"><path d="M54.82544,19.79858C46.16885-9.09841,5.27675-.23331,8.81085,28.96423,4.7406,27.59534,2.76508,25.86548,5,23.97V25a1.00011,1.00011,0,0,0,2-.00006V22a1.06368,1.06368,0,0,0-.9-1.02l-2.78-.93a1.00269,1.00269,0,0,0-.64,1.9L3.85,22.34C-.2652,26.346,3.048,29.29462,9.251,31.22491c1.85249,9.23064,11.57089,17.64872,21.74688,17.77124-.00177.963.00165,2.19782.03705,2.17719A2.99431,2.99431,0,0,0,29,54v2H26a3,3,0,0,0,0,6H38a3,3,0,0,0,0-6H35V54a2.97734,2.97734,0,0,0-2.03461-2.82831c.03418.02777.03809-1.23047.03669-2.19012A23.83532,23.83532,0,0,0,54.80426,31.25232C62.93866,28.73639,65.73639,23.27576,54.82544,19.79858ZM43.38574,8.458c.192-.17627.56232-.51227.74408-.69361a21.49721,21.49721,0,0,1,5.63471,5.64447c-.76715,2.40717.65045,6.81647-1.95288,8.02094a2.246,2.246,0,0,1-.214-.73254,3.71581,3.71581,0,0,0-2.999-3.21192c-.82623-.20117-2.06061.17835-2.73047-.163-.36132-.22956-.53222-.90534-.66406-1.52057C40.33594,12.47479,40.75928,10.53882,43.38574,8.458ZM31.60828,4.01984A9.8641,9.8641,0,0,1,29.794,11.457a6.63513,6.63513,0,0,0-1.78223,3.30957A12.81627,12.81627,0,0,0,28.5,17.81348c.03,2.14648-1.96112,4.12768-1.36908,6.50781a14.868,14.868,0,0,0,1.1347,2.5459c.3559,1.079-.08367,1.53937-.98046.84564a16.29,16.29,0,0,0-1.73243-1.51947,6.75251,6.75251,0,0,0-2.70117-.82129c-3.66656-.02606-3.17846-4.1095-5.44726-6.12219-1.48407-1.36414-3.43543-1.40369-4.96265-2.62787A21.5158,21.5158,0,0,1,31.60828,4.01984ZM10.5,25.5a21.36716,21.36716,0,0,1,1.18024-6.96484c1.2882.96814,3.2005,1.18969,4.37542,2.1914,1.59168,1.61267,1.62043,4.53217,3.8526,5.83588,1.42249.91846,3.24311.58081,4.57612,1.32226,1.26525,1.08826,2.8291,2.91828,4.71,1.86615a2.88349,2.88349,0,0,0,.93646-3.60437c-.28449-.7807-.86261-1.51251-1.04883-2.26464a4.84883,4.84883,0,0,1,.60449-2.75586,7.6017,7.6017,0,0,0,.80762-3.4668c-.043-.9184-.53992-1.85248-.49219-2.69629.06482-.75488.86188-1.59375,1.38965-2.30273a11.90006,11.90006,0,0,0,2.23389-8.57782,21.33562,21.33562,0,0,1,8.7431,2.5946c-3.5072,2.82434-4.17926,5.41022-3.11938,9.54382a4.09235,4.09235,0,0,0,1.54571,2.789c1.16767.74542,2.33832.31335,3.4668.4472a1.73865,1.73865,0,0,1,1.372,1.6153A2.30647,2.30647,0,0,0,49.70026,22.622c1.47223-1.19885,1.89465-3.98071,1.7904-6.14032A20.761,20.761,0,0,1,53.049,29.61591c-11.0457,3.18015-30.436,3.18882-42.15308-.02747A21.42442,21.42442,0,0,1,10.5,25.5ZM38,58a1.0002,1.0002,0,0,1-.00007,2H26a1,1,0,0,1,0-2Zm-5-4v2H31V54A1.00012,1.00012,0,0,1,33,54ZM44.05035,43.295A21.508,21.508,0,0,1,21.2,44.06073c2.55084-2.00378,6.118-1.29248,8.674-3.41821.74811-.61066,1.24195-1.33136,1.91016-1.98139,1.98224-2.058,2.97607.78479,4.48926,1.88385A6.32256,6.32256,0,0,0,40.169,41.64941c1.86962-.01184,3.73681-.36254,5.5014.43311Q44.89077,42.72623,44.05035,43.295Zm3.20118-2.66046a9.80262,9.80262,0,0,0-5.7154-1.03094c-2.045.19366-3.97345-.02185-5.06823-1.69458a4.652,4.652,0,0,0-2.8595-1.96466c-1.983-.39087-3.69055,1.82043-5.00281,3.15252-2.63092,1.85553-6.72638,1.2912-9.15955,3.82135a21.61108,21.61108,0,0,1-7.986-11.08038,97.4653,97.4653,0,0,0,41.02777.0224A20.16,20.16,0,0,1,47.25153,40.63452ZM55.2627,28.9198a24.50458,24.50458,0,0,0,.003-6.834C62.70642,24.71082,60.14526,27.18506,55.2627,28.9198Z"/></svg>
