<svg id="icon" height="512" viewBox="0 0 500 500" width="512" xmlns="http://www.w3.org/2000/svg"><path d="m451.542 60.96v267.07c-20.669 6.55-79.273 17.847-152.32 12.36-45.87-3.44-74.282-10.908-98.2-16.12-36.86-7.98-93.63-18.64-130.96-18.31a122.338 122.338 0 0 0 -17.48 1.23 27.849 27.849 0 0 0 -3.88.81v-267.07s3.55-1.19 13.03-1.7c18.37-1 59.01.51 139.29 17.97 18.919 4.119 46.42 11.247 86.5 15.1 71.632 6.872 135.361-2.227 164.02-11.34z" fill="#4aabed"/><path d="m196.032 56.12c-13.3 11.28-26.25 23.15-39.23 34.96q-5.655 5.175-11.35 10.31-5.265 4.74-10.56 9.41-5.805 5.115-11.68 10.11c-16.26 13.77-33.08 26.68-51.17 37.59-7.67 4.63-15.51 8.89-23.34 12.79v-130.36c7.646-2.565 28.93-1.956 37.24-1.5 22.65 1.25 57.63 5.48 110.09 16.69z" fill="#60c3ef"/><path d="m451.542 65.2v262.83a288.144 288.144 0 0 1 -33.15 7.4c-39.71 6.74-112.1 12.91-200.55-7.4-38.1-8.76-126.7-27.1-165.26-20.84 149.29-35.31 191.66-114.63 273.96-173.69 56.5-40.54 118.85-65.85 125-68.3z" fill="#3d99e1"/><path d="m451.542 162.73v62.21c-24.536 8.018-85.373 17.077-151.41 12.43l-.01-.01q-9.24-.675-18.9-1.72v103.09a538.951 538.951 0 0 1 -62.2-10.43v-94.75l-148.96 72.41c-5.186.04-16.856.552-21.36 2.04v-8.34l158.61-77.1c-126.95-28.19-158.612-17.65-158.612-17.65v-62.21s24.44-8.15 116.53 9.02q15.795 2.94 34.34 6.93l-65.02-47.56-85.85-62.8v-7.36s3.55-1.19 13.03-1.7l84.27 61.66 73.02 53.41v-93.07a548.37 548.37 0 0 0 62.2 10.42v101.78c49.543 5.351 124.407 4.305 170.322-10.7z" fill="#fd5f7e"/><path d="m146 100.89q-5.7 5.145-11.45 10.2l-85.85-62.8v-7.36s3.55-1.19 13.03-1.7z" fill="#ff7d9c"/><path d="m293.082 174.58c67.735 5.83 131.143-2.923 158.46-11.85v62.21c-24.859 8.124-85.4 17.085-151.42 12.42l.01.01 151.41 82.13v8.53s-3.66 1.16-10.55 2.81l-159.77-86.67v94.56a538.951 538.951 0 0 1 -62.2-10.43v-102.56c19.64-16.05 54.93-56.5 58.07-58.57 6.76-4.47 145.061-95.788 152.908-100.97 13.93-2.82 21.54-5.24 21.54-5.24v8.99z" fill="#e2495f"/><g fill="#fff"><path d="m71.082 202.98c-16.59 0-22.38 1.93-22.38 1.93v19.48c4.691-1.981 5.566-3.41 22.38-3.41 21.11 0 60.51 3.32 129.94 18.62v84.67c5.8 1.265 12.191 2.688 18 4.03v-103.09c-41.954-9.665-104.655-22.23-147.94-22.23zm129.94-145.78v83.36c-37.268-8-115.032-22.733-152.32-16.27v18.41s5.8-1.93 22.38-1.93c43.191 0 105.961 12.533 147.94 22.23v-101.77c-6.032-1.39-12.1-2.746-18-4.03zm80.2 178.44v103.09q9.195 1 18 1.66v-85.05c59.69 4.331 115.094-1.7 152.32-11.68v-18.72c-31.516 10.027-98.02 18.574-170.32 10.7zm57.56-77.06c-13.08 0-26.33-.52-39.56-1.55v-83.73c-5.251-.383-11.392-.933-18-1.65v101.78c76.081 8.29 142.37-1.805 170.32-10.7v-18.89c-33.492 10.673-77.752 14.74-112.76 14.74z"/><path d="m451.542 302.28v17.07l-151.09-81.96c11.89.86 23.25 1.29 34.01 1.38z"/><path d="m441.262 330.78c-7.555 1.828-15.34 3.374-22.87 4.65l-137.17-74.4v-17.06z"/><path d="m219.022 233.56v16.68l-118.08 57.4a310.273 310.273 0 0 0 -31.1-1.56z"/><path d="m207.282 222.56-158.582 77.08v-16.68l134.72-65.49q11.327 2.31 23.862 5.09z"/><path d="m200.482 158.85q-19.095-4.14-35.25-7.13l-42.02-30.81-74.512-54.64v-18.6l86.19 63.13z"/><path d="m219.022 136.43v18.6l-73.57-53.64-85.14-62.08a216.712 216.712 0 0 1 25.63.12l70.858 51.65z"/><path d="m429.992 66.2-148.77 98.22v-17.96l113.17-74.73c14.38-1.62 26.38-3.66 35.6-5.53z"/><path d="m451.542 69.82v17.97l-133.73 88.37q-11.985-.48-24.81-1.57z"/></g><path d="m48.944 500h.027a7.5 7.5 0 0 0 7.474-7.526l-.487-142a7.5 7.5 0 0 0 -7.5-7.474h-.026a7.5 7.5 0 0 0 -7.475 7.526l.487 142a7.5 7.5 0 0 0 7.5 7.474z"/><path d="m41.2 204.91v103.09a7.358 7.358 0 0 0 9.8 7.14c10.908-2.9 37.808-1.106 49.246-.032 93.66 8.671 137.106 34.244 238.247 34.244 51.1 0 95.531-7.885 115.317-14.175a7.5 7.5 0 0 0 5.227-7.147v-27.07a7.5 7.5 0 0 0 -15 0v21.39c-37.313 9.809-94.439 15.457-155.32 9.608v-88.022c50.455 4.72 107.994 2.478 155.32-9.185v17.749a7.5 7.5 0 0 0 15 0v-191.54a7.507 7.507 0 0 0 -9.765-7.15c-.073.023-7.494 2.351-20.775 5.04-110.283 22.362-203.251-4.577-246.742-13.35a7.5 7.5 0 0 0 -2.967 14.7c11.031 2.225 21.794 4.537 32.734 7.016v86.389c-94.052-21.061-137.827-21.3-155.32-19.659v-86.723c9.079-1.021 31.057-1.859 74.528 4.537a7.5 7.5 0 0 0 2.184-14.84c-42.026-6.183-65.123-5.93-76.714-4.807v-24.613a7.5 7.5 0 0 0 -15 0zm60.442 95.263c-13.868-1.3-31.575-2.3-45.442-.977v-87.985c39.311-4.375 116.788 11.251 155.32 19.983v87.706c-19.768-4.433-38.657-8.233-56.25-11.313-19.863-3.462-37.909-5.959-53.626-7.414zm342.4-229.419v86.289c-17.166 4.484-75.358 17.3-155.32 9.616v-86.716c50.287 4.718 107.399 2.557 155.32-9.189zm-226.709 99.553a7.5 7.5 0 0 0 9.189-7.307v-92.457c15.875 3.326 32.2 5.985 47.2 7.8v95.087a7.5 7.5 0 0 0 6.688 7.456c81.232 8.845 141.052-2.743 163.632-8.333v46.7c-48.261 12.587-109.12 14.667-162.012 8.934a7.5 7.5 0 0 0 -8.308 7.456v94.657c-15.113-1.88-31.056-4.542-47.2-8.031v-97.059a7.5 7.5 0 0 0 -5.822-7.31c-42.119-9.632-121.538-26.064-164.5-21.836v-47.09c40.573-4.538 121.574 12.284 161.133 21.333z"/></svg>