<svg enable-background="new 0 0 59 60" height="512" viewBox="0 0 59 60" width="512" xmlns="http://www.w3.org/2000/svg"><path d="m45 19c-2.757 0-5-2.243-5-5s2.243-5 5-5 5 2.243 5 5-2.243 5-5 5zm0-8c-1.654 0-3 1.346-3 3s1.346 3 3 3 3-1.346 3-3-1.346-3-3-3z"/><path d="m10 60h-9c-.552 0-1-.447-1-1v-11c0-.266.105-.52.293-.707l20.059-20.06c-.897-2.308-1.352-4.738-1.352-7.233 0-11.028 8.972-20 20-20s20 8.972 20 20-8.972 20-20 20c-2.496 0-4.926-.455-7.233-1.353l-5.06 5.06c-.187.188-.442.293-.707.293h-4v3c0 .553-.448 1-1 1h-2v2c0 .553-.448 1-1 1h-4v5c0 .266-.105.52-.293.707l-3 3c-.187.188-.442.293-.707.293zm-8-2h7.586l2.414-2.414v-5.586c0-.553.448-1 1-1h4v-2c0-.553.448-1 1-1h2v-3c0-.553.448-1 1-1h4.586l5.237-5.236c.29-.289.726-.373 1.101-.212 2.243.961 4.624 1.448 7.076 1.448 9.925 0 18-8.075 18-18s-8.075-18-18-18-18 8.075-18 18c0 2.451.487 4.832 1.448 7.077.161.376.077.812-.212 1.101l-20.236 20.236z"/><path d="m8 48c-.256 0-.512-.098-.707-.293-.391-.391-.391-1.023 0-1.414l12-12c.39-.391 1.024-.391 1.414 0 .391.391.391 1.023 0 1.414l-12 12c-.195.195-.451.293-.707.293z"/><path d="m39 36c-.552 0-1-.447-1-1s.448-1 1-1c7.72 0 14-6.28 14-14 0-.553.448-1 1-1s1 .447 1 1c0 8.822-7.177 16-16 16z"/></svg>