<svg id="line" height="512" viewBox="0 0 64 64" width="512" xmlns="http://www.w3.org/2000/svg"><path d="m48.875 13.43311h-10.125c-1.32524.03111-1.30724 1.97553.00003 2-.00003 0 10.12497 0 10.12497 0 12.09415.51929 12.11402 18.54671-.00007 19.07522.00007-.00002-41.59167-.00002-41.59167-.00002l11.42572-12.38086c.88283-.95824-.57916-2.3158-1.47074-1.35639.00004-.00005-12.9736 14.05903-12.9736 14.05903-.26846.33136-.37915.84235-.09686 1.1999.19031.45117 13.39532 13.8851 13.61051 14.23009.38289.39785 1.01667.4104 1.41408.02802.39844-.38232.41113-1.01562.0293-1.41406l-11.87518-12.36572h41.52851c14.74507-.6278 14.76948-22.43582 0-23.0752z"/></svg>