<svg id="Layer_1" height="512" viewBox="0 0 512 512" width="512" xmlns="http://www.w3.org/2000/svg" data-name="Layer 1"><path d="m353.049 91.583a129.6 129.6 0 0 0 -15.326-14.958 4 4 0 0 0 -.817-.66 128.453 128.453 0 0 0 -197.744 153.214c.018.043.039.082.058.124a128.859 128.859 0 0 0 19.129 29.843 3.978 3.978 0 0 0 .7.816 128.44 128.44 0 0 0 194.211-168.134c-.071-.082-.134-.169-.211-.245zm22.9 72.6h-114.5v-21.34h110.5a119.625 119.625 0 0 1 3.996 21.341zm-118.5-29.341a4 4 0 0 0 -4 4v29.341a4 4 0 0 0 4 4h119c.034 1.174.056 2.351.056 3.534s-.022 2.36-.056 3.535h-240.893c-.034-1.175-.056-2.353-.056-3.535s.022-2.36.056-3.534h106.817a4 4 0 0 0 4-4v-112.583q3.508-.279 7.071-.353v24.117a4 4 0 0 0 4 4h75.866q4.017 3.369 7.736 7.07h-83.6a4 4 0 0 0 -4 4v29.339a4 4 0 0 0 4 4h109.1q1.515 3.482 2.818 7.07zm114.5 73.75h-231.89a119.631 119.631 0 0 1 -4-21.34h239.89a119.631 119.631 0 0 1 -4.008 21.341zm-5.4 15.069h-221.089q-1.515-3.48-2.818-7.069h226.716q-1.299 3.591-2.818 7.07zm-18.174 29.339h-184.75a120.92 120.92 0 0 1 -14.325-21.338h213.4a120.92 120.92 0 0 1 -14.325 21.338zm-15.065 15.07h-154.62q-4.019-3.369-7.736-7.07h170.092q-3.709 3.7-7.736 7.071zm-71.866-212.724a119.742 119.742 0 0 1 61.182 20.018h-61.182zm0 64.427v-21.339h86.931a120.956 120.956 0 0 1 14.325 21.339zm-23.071-63.262v107.673h-102.318a120.735 120.735 0 0 1 102.318-107.673zm-49 219.56h133.253a120.239 120.239 0 0 1 -133.252 0zm-25.256-159.307 14.568 10.541-5.591 17.095a4.986 4.986 0 0 0 7.678 5.575l14.527-10.6 14.528 10.6a4.986 4.986 0 0 0 7.673-5.575l-5.589-17.091 14.566-10.54a4.986 4.986 0 0 0 -2.919-9.026h-.012l-17.982.035-5.523-17.112a4.986 4.986 0 0 0 -9.489 0l-5.524 17.112-17.981-.035h-.012a4.986 4.986 0 0 0 -2.921 9.025zm23.1-.986h.006a4.972 4.972 0 0 0 4.746-3.455l3.331-10.318 3.33 10.318a4.972 4.972 0 0 0 4.748 3.455h.006l10.843-.021-8.787 6.357a4.97 4.97 0 0 0 -1.813 5.588l3.373 10.306-8.758-6.389a4.969 4.969 0 0 0 -5.879 0l-8.759 6.39 3.373-10.312a4.972 4.972 0 0 0 -1.819-5.583l-8.783-6.356zm216.9-45.525a168.171 168.171 0 0 0 -61.781-51.095c-25.898-12.653-54.943-19.098-86.328-19.158h-.016c-31.385.06-60.429 6.505-86.329 19.158a168.171 168.171 0 0 0 -61.781 51.1c-34.337 46.161-43.6 107.634-25.4 168.658 31.068 104.181 129.588 224.725 170.5 271.715a4 4 0 0 0 6.034 0c40.916-46.99 139.436-167.534 170.5-271.716 18.199-61.028 8.939-122.501-25.398-168.662zm17.736 166.372c-29.885 100.22-123.653 216.429-165.853 265.275-42.2-48.846-135.968-165.055-165.854-265.275-17.466-58.582-8.662-117.481 24.154-161.597 32.068-43.108 82.393-66.912 141.7-67.028 59.307.116 109.632 23.92 141.7 67.028 32.816 44.116 41.62 103.015 24.154 161.597z"/></svg>