<svg height="512" viewBox="0 0 32 32" width="512" xmlns="http://www.w3.org/2000/svg"><g id="location"><path d="m13.2842 16.7871a1 1 0 0 1 -.3164-1.9487 6.0026 6.0026 0 0 0 3.334-2.6543 5.2824 5.2824 0 0 0 .3837-.8418h-3.4013a1 1 0 0 1 0-2h4.6658a1.001 1.001 0 0 1 .9912 1.1348 7.4944 7.4944 0 0 1 -.8975 2.69 7.9969 7.9969 0 0 1 -4.4433 3.5674.9961.9961 0 0 1 -.3162.0526z"/><path d="m17.95 11.3423h-4.666a1 1 0 0 1 0-2h4.666a1 1 0 0 1 0 2z"/><path d="m18.73 16.7866a1.0421 1.0421 0 0 1 -.1445-.01 3.7819 3.7819 0 0 1 -2.12-1.0616 3.731 3.731 0 0 1 -.996-1.7724 1 1 0 1 1 1.9453-.4649 1.7565 1.7565 0 0 0 .4658.8238 1.7918 1.7918 0 0 0 .9922.4956 1 1 0 0 1 -.1426 1.99z"/><path d="m15.6172 11.3423a1 1 0 0 1 -1-1v-1.5557a1 1 0 0 1 2 0v1.5557a1 1 0 0 1 -1 1z"/><path d="m16 22a9 9 0 1 1 9-9 9.01 9.01 0 0 1 -9 9zm0-16a7 7 0 1 0 7 7 7.0081 7.0081 0 0 0 -7-7z"/><path d="m16 32a.9993.9993 0 0 1 -.5039-.1362c-.5098-.2979-12.4961-7.4209-12.4961-18.8638a13 13 0 0 1 26 0c0 11.4429-11.9863 18.5659-12.4961 18.8638a.9993.9993 0 0 1 -.5039.1362zm0-30a11.0125 11.0125 0 0 0 -11 11c0 9.0488 8.7793 15.3662 10.999 16.8184 2.2198-1.4556 11.001-7.7884 11.001-16.8184a11.0125 11.0125 0 0 0 -11-11z"/></g></svg>