<?xml version="1.0" encoding="iso-8859-1"?>
<!-- Generator: Adobe Illustrator 16.0.0, SVG Export Plug-In . SVG Version: 6.00 Build 0)  -->
<!DOCTYPE svg PUBLIC "-//W3C//DTD SVG 1.1//EN" "http://www.w3.org/Graphics/SVG/1.1/DTD/svg11.dtd">
<svg version="1.1" id="Capa_1" xmlns="http://www.w3.org/2000/svg" xmlns:xlink="http://www.w3.org/1999/xlink" x="0px" y="0px"
	 width="488.685px" height="488.684px" viewBox="0 0 488.685 488.684" style="enable-background:new 0 0 488.685 488.684;"
	 xml:space="preserve">
<g>
	<g>
		<path d="M327.612,339.616c-1.728,0-3.453-0.445-5-1.34c-3.095-1.785-5-5.088-5-8.66v-45.217H133.584c-5.523,0-10-4.479-10-10
			v-64.011c0-5.523,4.477-10,10-10h184.028v-45.216c0-3.572,1.905-6.874,5-8.66c3.094-1.787,6.905-1.787,10,0l151.072,87.222
			c3.095,1.786,5,5.088,5,8.66c0,3.572-1.905,6.874-5,8.66l-151.072,87.224C331.065,339.17,329.339,339.616,327.612,339.616z
			 M143.584,264.399h184.028c5.522,0,10,4.479,10,10v37.897l121.072-69.902l-121.072-69.902v37.896c0,5.522-4.478,10-10,10H143.584
			V264.399z"/>
	</g>
	<g>
		<path d="M269.658,387.709H17.075C7.66,387.709,0,380.049,0,370.633V118.051c0-9.416,7.66-17.076,17.075-17.076h252.583
			c9.415,0,17.074,7.66,17.074,17.076v60.042c0,5.522-4.478,10-10,10c-5.521,0-10-4.478-10-10v-57.118H20v246.734h246.732v-61.018
			c0-5.521,4.479-10,10-10c5.522,0,10,4.479,10,10v63.94C286.732,380.049,279.073,387.709,269.658,387.709z"/>
	</g>
</g>
<g>
</g>
<g>
</g>
<g>
</g>
<g>
</g>
<g>
</g>
<g>
</g>
<g>
</g>
<g>
</g>
<g>
</g>
<g>
</g>
<g>
</g>
<g>
</g>
<g>
</g>
<g>
</g>
<g>
</g>
</svg>
