<svg clip-rule="evenodd" fill-rule="evenodd" height="512" image-rendering="optimizeQuality" shape-rendering="geometricPrecision" text-rendering="geometricPrecision" viewBox="0 0 1707 1707" width="512" xmlns="http://www.w3.org/2000/svg"><g id="Layer_x0020_1"><g id="_12"><g><g><g><path d="m550 1536c-2 0-4 0-6-1l-529-140c-9-3-15-10-15-20v-877c0-6 3-12 8-16s11-5 17-3l529 135c9 2 16 10 16 19v883c0 6-3 12-8 16-4 3-8 4-12 4zm-510-176 490 130v-842l-490-124z"/></g><g><path d="m1687 1598c-2 0-4 0-6-1l-529-140c-9-3-15-11-15-20v-877c0-6 3-12 8-16s11-5 17-4l530 135c8 3 15 11 15 20v883c0 6-3 12-8 16-4 3-8 4-12 4zm-510-176 490 130v-842l-490-124z"/></g><g><path d="m550 1536c-5 0-10-2-14-5-4-4-6-9-6-15v-883c0-10 7-19 17-20l81-10c8-1 16 3 20 10 45 76 104 154 157 222 17 23 34 45 48 65 15-20 32-42 49-65 63-82 142-186 188-278 3-6 9-10 16-11l49-6c5-1 11 1 15 5 5 4 7 9 7 15v883c0 10-7 19-18 20l-607 73c-1 0-2 0-2 0zm20-885v843l567-69v-843l-16 2c-49 94-125 194-187 276-24 31-47 61-64 86-4 5-10 8-17 8-6 0-12-3-16-8-18-25-40-55-64-86-50-66-107-141-153-215z"/></g><g><path d="m1197 1181c-10 0-19-9-20-20 0-11 9-20 20-20 25 0 52-2 78-5 11-1 21 7 22 18s-7 21-18 22c-27 3-55 5-81 5 0 0 0 0-1 0zm-119-7c-1 0-2 0-3 0-28-4-55-10-81-17-11-4-17-15-14-25 3-11 15-17 25-14 24 7 49 12 76 16 11 2 18 12 17 23-2 10-10 17-20 17zm318-17c-9 0-18-6-20-16s5-21 16-23c33-7 59-15 76-19 10-4 22 2 25 13s-3 22-14 25c-17 5-45 13-79 20-1 0-3 0-4 0zm-506-47c-4 0-7-1-11-3-21-12-41-27-60-43-2-2-4-4-6-6-9-7-10-20-3-28 7-9 20-10 28-3 3 2 5 4 7 7 17 14 35 27 55 39 9 6 12 18 7 27-4 7-11 10-17 10zm-165-112c-3 0-6-1-9-2-22-11-47-21-71-29-11-3-17-14-13-25 3-11 14-16 25-13 27 9 52 19 77 31 10 5 14 17 9 27-4 7-11 11-18 11zm-470-49c-10 0-18-7-20-17s6-21 16-23c27-4 54-8 81-10 11-1 21 7 22 18s-7 21-18 22c-26 2-52 5-78 10-1 0-2 0-3 0zm279-7c-1 0-2 0-3 0-25-3-51-6-78-7-11 0-19-9-19-20s10-20 21-20c28 1 55 4 81 7 11 2 19 12 18 23-2 10-10 17-20 17z"/></g><g><path d="m853 954c-6 0-12-3-16-8-18-25-40-55-64-86-100-131-236-310-236-435 0-174 142-316 316-316 175 0 317 142 317 316 0 125-137 304-236 435-24 31-47 61-64 86-4 5-10 8-17 8zm0-805c-152 0-276 124-276 276 0 111 131 284 228 410 17 23 34 45 48 65 15-20 32-42 49-65 96-126 228-299 228-410 0-152-124-276-277-276z"/></g><g><path d="m853 588c-98 0-177-80-177-178s79-178 177-178 178 80 178 178-80 178-178 178zm0-316c-76 0-137 62-137 138s61 138 137 138 138-62 138-138-62-138-138-138z"/></g><g><path d="m204 1012c-40 0-73-33-73-72 0-40 33-73 73-73 39 0 72 33 72 73 0 39-33 72-72 72zm0-105c-18 0-33 15-33 33 0 17 15 32 33 32 17 0 32-15 32-32 0-18-15-33-32-33z"/></g><g><g><path d="m1445 1186c-5 0-10-2-14-6-8-8-8-20 0-28l116-115c7-8 20-8 28 0 8 7 8 20 0 28l-115 115c-4 4-9 6-15 6z"/></g><g><path d="m1561 1186c-5 0-10-2-14-6l-116-115c-8-8-8-21 0-28 8-8 21-8 29 0l115 115c8 8 8 20 0 28-4 4-9 6-14 6z"/></g></g></g></g></g></g></svg>