<?xml version="1.0" encoding="iso-8859-1"?>
<!-- Generator: Adobe Illustrator 19.0.0, SVG Export Plug-In . SVG Version: 6.00 Build 0)  -->
<svg version="1.1" id="Capa_1" xmlns="http://www.w3.org/2000/svg" xmlns:xlink="http://www.w3.org/1999/xlink" x="0px" y="0px"
	 viewBox="0 0 512 512" style="enable-background:new 0 0 512 512;" xml:space="preserve">
<g>
	<g>
		<path d="M490.371,127.225h-90.3L286.276,59.681c0.897-2.929,1.382-6.035,1.382-9.253c0-17.457-14.202-31.659-31.659-31.659
			c-17.457,0-31.659,14.203-31.659,31.659c0,3.218,0.486,6.325,1.382,9.253l-113.795,67.543H21.629
			C9.703,127.225,0,136.928,0,148.854v322.748c0,11.926,9.703,21.629,21.629,21.629h468.742c11.926,0,21.629-9.702,21.629-21.629
			V148.854C512,136.928,502.297,127.225,490.371,127.225z M256,33.762c9.189,0,16.666,7.477,16.666,16.666
			c0,9.189-7.476,16.667-16.666,16.667c-9.189,0-16.667-7.477-16.667-16.667C239.333,41.239,246.811,33.762,256,33.762z
			 M233.395,72.564c5.75,5.871,13.757,9.524,22.605,9.524c8.847,0,16.855-3.653,22.605-9.524l92.093,54.662H141.302L233.395,72.564z
			 M497.008,471.602L497.008,471.602c0,3.659-2.978,6.637-6.637,6.637H21.629c-3.659,0-6.637-2.976-6.637-6.637V148.854
			c0-3.659,2.977-6.637,6.637-6.637h92.349c0.005,0,0.01,0.001,0.015,0.001s0.01-0.001,0.015-0.001h283.985
			c0.005,0,0.01,0.001,0.015,0.001s0.01-0.001,0.015-0.001h92.349c3.659,0,6.637,2.977,6.637,6.637V471.602z"/>
	</g>
</g>
<g>
	<g>
		<path d="M469.803,399.576c-4.141,0-7.496,3.356-7.496,7.496v37.524H194.942c-0.719-1.331-1.487-2.639-2.309-3.911
			c-5.89-9.113-2.523-13.835,13.982-27.765c13.036-11.003,29.261-24.697,30.657-47.024c0.943-15.08-3.718-24.885-9.416-31.185
			c0.973-1.914,1.12-4.228,0.208-6.355c-1.633-3.804-6.037-5.565-9.846-3.931c-0.987,0.424-1.979,0.865-2.969,1.3
			c-16.062-7.116-37.305-4.576-51.686,2.397c-5.318,2.579-11.62,1.34-19.814-2.288c4.999-5.564,8.048-12.915,8.048-20.967
			c0-17.317-14.089-31.406-31.406-31.406c-15.509,0-28.42,11.304-30.949,26.104c-4.611-1.495-9.416-2.751-14.446-3.662
			c-8.72-1.581-17.191-1.729-25.304-0.466v-62.653c0-4.14-3.355-7.496-7.496-7.496s-7.496,3.356-7.496,7.496V452.09
			c0,4.14,3.355,7.496,7.496,7.496h427.605c4.141,0,7.496-3.356,7.496-7.496v-45.018
			C477.299,402.932,473.943,399.576,469.803,399.576z M120.392,288.455c9.05,0,16.414,7.363,16.414,16.414
			s-7.363,16.414-16.414,16.414s-16.414-7.363-16.414-16.414S111.342,288.455,120.392,288.455z M177.658,444.595H49.694V310.657
			c7.146-1.429,14.733-1.432,22.629-0.001c6.553,1.188,12.789,3.105,18.74,5.424c3.65,9.516,11.799,16.816,21.834,19.284v42.277
			c0,4.14,3.355,7.496,7.496,7.496s7.496-3.356,7.496-7.496v-42.277c0.269-0.066,0.536-0.137,0.803-0.21
			c14.458,7.593,28.25,12.841,41.415,6.46c9.725-4.717,23.886-6.733,34.903-3.653c0.072,0.196,0.147,0.392,0.236,0.585
			c1.269,2.735,3.977,4.344,6.805,4.344c0.762,0,1.532-0.122,2.286-0.365c5.923,4.748,8.608,12.282,7.973,22.437
			c-0.995,15.935-13.384,26.391-25.365,36.502C184.17,412.246,168.48,425.486,177.658,444.595z"/>
	</g>
</g>
<g>
	<g>
		<path d="M393.171,195.306c-17.317,0-31.406,14.089-31.406,31.406c0,14.734,10.201,27.124,23.91,30.494v42.277
			c0,4.14,3.355,7.496,7.496,7.496s7.496-3.356,7.496-7.496v-42.277c13.709-3.37,23.91-15.761,23.91-30.494
			C424.577,209.395,410.488,195.306,393.171,195.306z M393.171,243.125c-9.05,0-16.414-7.362-16.414-16.414
			c0-9.05,7.363-16.414,16.414-16.414s16.414,7.363,16.414,16.414C409.584,235.761,402.221,243.125,393.171,243.125z"/>
	</g>
</g>
<g>
	<g>
		<path d="M469.803,160.867H42.197c-4.141,0-7.496,3.356-7.496,7.496v34.438c0,4.14,3.355,7.496,7.496,7.496
			c4.141,0,7.496-3.356,7.496-7.496v-26.942h193.895c-10.72,5.577-21.672,11.673-29.965,18.218
			c-14.451,11.401-19.153,23.086-13.976,34.73c2.057,4.625,5.587,7.967,10.21,9.666c13.28,4.885,33.455-4.812,54.816-15.073
			c9.569-4.597,19.466-9.35,27.622-12.12c10.319-3.505,13.63-2.373,14.399-1.942c0.22,0.124,0.399,0.235,0.544,0.331
			c-0.791,1.996-3.726,5.899-5.749,8.588c-9.379,12.468-25.077,33.335-4.619,60.163c3.922,5.143,8.161,10.266,12.961,15.659
			c2.752,3.092,7.489,3.368,10.584,0.616c3.092-2.753,3.368-7.491,0.616-10.584c-4.546-5.107-8.55-9.942-12.239-14.781
			c-13.573-17.8-4.295-30.134,4.678-42.06c5.255-6.985,10.22-13.583,8.669-20.959c-0.87-4.136-3.598-7.516-8.107-10.047
			c-12.678-7.113-32.683,2.496-55.848,13.622c-15.119,7.262-35.828,17.21-43.151,14.516c-0.707-0.26-1.208-0.619-1.683-1.686
			c-5.317-11.958,25.707-27.758,46.235-38.214c5.892-2.999,11.489-5.851,16.505-8.643h186.219v91.971
			c-18.783,25.319-22.708,63.92-25.596,92.32c-1.474,14.494-2.998,29.48-6.022,34.054c-6.09,9.214-14.839,13.125-24.633,11.015
			c-16.379-3.528-26.255-20.892-28.775-36.536c-2.095-12.994-6.597-29.087-24.102-49.912c-2.665-3.169-7.393-3.579-10.562-0.915
			c-3.168,2.665-3.578,7.392-0.915,10.562c12.057,14.342,18.27,27.097,20.777,42.65c4.067,25.236,19.932,44.393,40.419,48.807
			c2.76,0.595,5.497,0.885,8.187,0.885c12.691,0,24.312-6.493,32.112-18.29c5.058-7.653,6.474-21.559,8.431-40.805
			c1.955-19.224,4.234-41.573,10.68-60.798v76.218c0,4.14,3.355,7.496,7.496,7.496c4.141,0,7.496-3.356,7.496-7.496V168.363
			C477.299,164.223,473.943,160.867,469.803,160.867z"/>
	</g>
</g>
<g>
	<g>
		<path d="M158.01,366.713c-2.528-3.279-7.236-3.885-10.514-1.356c-5.281,4.074-8.104,6.618-8.222,6.724
			c-3.069,2.775-3.307,7.509-0.536,10.581c1.48,1.639,3.519,2.473,5.566,2.473c1.789,0,3.585-0.637,5.018-1.928
			c0.025-0.022,2.565-2.304,7.33-5.979C159.931,374.698,160.54,369.991,158.01,366.713z"/>
	</g>
</g>
<g>
	<g>
		<path d="M191.912,345.45c-2.065-3.589-6.647-4.826-10.236-2.761c-2.953,1.698-5.911,3.459-8.792,5.233
			c-3.524,2.172-4.623,6.789-2.451,10.314c1.416,2.3,3.874,3.565,6.39,3.565c1.341,0,2.699-0.36,3.925-1.114
			c2.753-1.696,5.58-3.378,8.403-5.002C192.739,353.622,193.975,349.039,191.912,345.45z"/>
	</g>
</g>
<g>
	<g>
		<path d="M265.951,315.588c-1.177-3.97-5.35-6.233-9.317-5.056c-3.252,0.964-6.534,1.99-9.754,3.049
			c-3.932,1.293-6.071,5.531-4.777,9.463c1.036,3.155,3.968,5.155,7.118,5.155c0.776,0,1.566-0.122,2.345-0.378
			c3.079-1.013,6.218-1.995,9.328-2.917C264.864,323.728,267.127,319.556,265.951,315.588z"/>
	</g>
</g>
<g>
	<g>
		<path d="M337.076,296.955c-3.396,0.152-6.828,0.358-10.204,0.614c-4.129,0.312-7.223,3.911-6.91,8.04
			c0.297,3.935,3.583,6.93,7.467,6.93c0.189,0,0.381-0.007,0.572-0.022c3.224-0.243,6.503-0.44,9.745-0.585
			c4.137-0.185,7.339-3.688,7.153-7.824C344.715,299.973,341.168,296.784,337.076,296.955z"/>
	</g>
</g>
<g>
	<g>
		<path d="M374.472,297.392c-2.238-0.151-4.504-0.282-6.732-0.389c-4.183-0.179-7.647,2.996-7.845,7.131
			c-0.197,4.134,2.995,7.646,7.13,7.844c2.133,0.102,4.277,0.225,6.433,0.371c0.173,0.012,0.344,0.018,0.515,0.018
			c3.909,0,7.203-3.032,7.471-6.99C381.725,301.246,378.602,297.672,374.472,297.392z"/>
	</g>
</g>
<g>
	<g>
		<path d="M305.076,307.428c-0.69-4.081-4.558-6.826-8.642-6.141c-3.343,0.566-6.725,1.191-10.054,1.859
			c-4.058,0.815-6.689,4.767-5.874,8.826c0.718,3.561,3.846,6.022,7.344,6.022c0.489,0,0.986-0.048,1.483-0.148
			c3.178-0.639,6.409-1.235,9.602-1.776C303.018,315.379,305.768,311.51,305.076,307.428z"/>
	</g>
</g>
<g>
</g>
<g>
</g>
<g>
</g>
<g>
</g>
<g>
</g>
<g>
</g>
<g>
</g>
<g>
</g>
<g>
</g>
<g>
</g>
<g>
</g>
<g>
</g>
<g>
</g>
<g>
</g>
<g>
</g>
</svg>
