<svg id="Capa_1" enable-background="new 0 0 512 512" height="512" viewBox="0 0 512 512" width="512" xmlns="http://www.w3.org/2000/svg"><path d="m511.915 226.313v-110.095c0-15.121-9.321-24.148-24.934-24.148h-283.61c-3.362-13.387-15.504-23.33-29.93-23.33s-26.568 9.944-29.93 23.33h-50.275v-12.631c0-11.27-9.175-20.439-20.454-20.439h-27.241c-25.111 0-45.541 20.41-45.541 45.496v303.008c0 25.086 20.43 45.496 45.541 45.496h97.739c4.142 0 7.5-3.358 7.5-7.5s-3.358-7.5-7.5-7.5h-97.739c-16.84 0-30.541-13.681-30.541-30.496 0-16.816 13.701-30.497 30.541-30.497h27.241c11.278 0 20.454-9.169 20.454-20.439v-79.478h69.206.071l123.872 160.91h-110.705c-4.142 0-7.5 3.358-7.5 7.5s3.358 7.5 7.5 7.5h125.944 54.623 129.487c9.777 0 26.181-3.395 26.181-26.13v-156.215c.051-.356.086-.715.085-1.079zm-338.474-142.573c8.744 0 15.857 7.102 15.857 15.83s-7.114 15.83-15.857 15.83c-6.949 0-12.855-4.492-14.992-10.715 1.253-1.34 2.026-3.136 2.026-5.115s-.773-3.775-2.026-5.115c2.137-6.223 8.043-10.715 14.992-10.715zm-95.205 272.828c0 2.948-2.498 5.439-5.454 5.439h-27.241c-11.74 0-22.457 4.461-30.541 11.775v-269.286c0-16.815 13.701-30.496 30.541-30.496h27.241c2.957 0 5.454 2.491 5.454 5.439zm418.679 70.302c0 7.696-1.614 11.13-11.181 11.13h-125.796l-123.883-160.91h260.86zm0-164.78h-267.887c-2.567 0-9.386 0-12.15 5.633-2.722 5.546 1.322 10.774 2.834 12.728l121.296 157.549h-35.692l-131.429-170.724c-2.755-3.538-6.392-5.186-11.445-5.186h-69.206v-28.263h62.375c4.142 0 7.5-3.358 7.5-7.5s-3.358-7.5-7.5-7.5h-62.375v-111.757h50.276c2.76 10.985 11.432 19.65 22.429 22.405v22.786c0 4.142 3.358 7.5 7.5 7.5s7.5-3.358 7.5-7.5v-22.786c10.997-2.754 19.67-11.418 22.43-22.405h153.399v59.548h-62.714c-6.543 0-11.866 5.32-11.866 11.86v40.349h-90.153c-4.142 0-7.5 3.358-7.5 7.5s3.358 7.5 7.5 7.5h165.742c7.715 0 13.991-6.273 13.991-13.983v-112.774h28.313v112.774c0 7.71 6.276 13.983 13.991 13.983h82.841zm-140.145-80.472v37.209h-59.58v-37.209zm140.145 37.21h-81.832v-111.758h71.898c8.351 0 9.934 3.215 9.934 9.148z"/><path d="m142.713 409.2c4.142 0 7.5-3.358 7.5-7.5v-22.785c13.418-3.354 23.386-15.488 23.386-29.906 0-17-13.855-30.83-30.886-30.83-17.015 0-30.857 13.83-30.857 30.83 0 14.416 9.956 26.548 23.357 29.905v22.786c0 4.142 3.358 7.5 7.5 7.5zm-15.858-60.191c0-8.729 7.114-15.83 15.857-15.83 8.76 0 15.886 7.102 15.886 15.83s-7.126 15.83-15.886 15.83c-8.743 0-15.857-7.102-15.857-15.83z"/><path d="m345.8 351.308v22.786c0 4.142 3.357 7.5 7.5 7.5s7.5-3.358 7.5-7.5v-22.786c13.402-3.356 23.357-15.489 23.357-29.905 0-17-13.843-30.83-30.857-30.83s-30.857 13.83-30.857 30.83c-.001 14.416 9.955 26.548 23.357 29.905zm7.5-45.735c8.744 0 15.857 7.102 15.857 15.83s-7.113 15.83-15.857 15.83-15.857-7.102-15.857-15.83 7.113-15.83 15.857-15.83z"/></svg>