<svg id="Layer_1" enable-background="new 0 0 100 100" height="512" viewBox="0 0 100 100" width="512" xmlns="http://www.w3.org/2000/svg"><g><path d="m50 97.5c-22.1799374 0-38.2778854-12.6051712-38.2778854-29.9727631 0-14.6311531 16.9884148-37.8417282 30.3791714-45.8760834.1608505-.0963078.3443871-.147234.531456-.147234h14.73452c.1870689 0 .3706055.0509262.531456.147234 13.3907585 8.0343533 30.3791695 31.2449303 30.3791695 45.8760834-.0000021 17.3675919-16.0979482 29.9727631-38.2778875 29.9727631zm-7.0788422-73.9307671c-12.7917347 7.8351841-29.1337318 30.4048882-29.1337318 43.958004 0 16.1705551 15.2296705 27.9074478 36.212574 27.9074478s36.2125702-11.7368927 36.2125702-27.9074478c0-13.5531158-16.3419952-36.122818-29.133728-43.958004z"/></g><g><path d="m66.2698898 23.5692329h-32.5397834c-.5702782 0-1.0326538-.4623756-1.0326538-1.0326557 0-.570282.4623756-1.0326576 1.0326538-1.0326576h32.5397835c.570282 0 1.0326614.4623756 1.0326614 1.0326576 0 .5702801-.4623795 1.0326557-1.0326615 1.0326557z"/></g><g><path d="m57.36726 23.614109h-14.810154c-.3706055 0-.7129784-.1986656-.8970184-.5208664l-7.6829071-13.4633636c-1.0018997-1.7557182-.8057556-3.8891029.4991837-5.4350629 1.3019142-1.5414217 3.367733-2.0920374 5.2585831-1.400238 3.5880775 1.3099818 7.6551743 2.794426 15.6960831 2.794426 1.514698 0 2.9628372-.0529442 4.3045845-.1578231 1.7859726-.1366458 3.4892502.7084389 4.4422417 2.2130523.9555054 1.5061259.9963531 3.3334441.1099167 4.8874717v.0005045l-6.0234947 10.5610332c-.1835367.3222007-.5259058.5208663-.8970186.5208663zm-14.2106285-2.0653133h13.6105995l5.7265053-10.0401669c.5006981-.8783636.4785118-1.9095078-.0600014-2.758626-.5516243-.8697915-1.5051193-1.3477988-2.5377769-1.2595592-1.3946915.1089129-2.8967819.1638737-4.4649277.1638737-7.7872849 0-11.8725281-1.2651052-16.4040184-2.9194741-1.2973747-.4729648-2.3865051.0988288-2.9724159.792645-.5889397.6968417-.9721527 1.8721948-.2833786 3.0788102zm20.2341232-9.5283766h.0100861z"/></g><g id="XMLID_00000181048472745500400680000005030747191092275624_"><path d="m50 87.9080887c-12.9319077 0-23.4531097-10.5211945-23.4531097-23.4531097s10.521202-23.453106 23.4531097-23.453106 23.4531097 10.5211983 23.4531097 23.4531059-10.521202 23.4531098-23.4531097 23.4531098zm0-44.8409043c-11.7933655 0-21.3877964 9.5944328-21.3877964 21.3877945s9.5944309 21.3877945 21.3877964 21.3877945 21.3877945-9.594429 21.3877945-21.3877945-9.594429-21.3877945-21.3877945-21.3877945z"/></g><g><path d="m33.7679253 57.7896042c-.14925 0-.3000145-.0322685-.4432144-.1003418-.5153198-.2450523-.7336502-.8612175-.4885979-1.3760338 2.0597687-4.3262672 5.6387711-7.6950073 10.0769768-9.4855194.529438-.2137909 1.1309814.0428619 1.3437653.5712891.2132874.5289345-.0423546 1.1304779-.5712891 1.3437653-3.9571724 1.5963821-7.1479225 4.6005669-8.9848213 8.4579048-.176983.3716163-.5470849.5889358-.9328194.5889358z"/></g><g><path d="m56.7052116 82.1568756c-.4074173 0-.7931519-.2425308-.9565201-.6428909-.2158089-.5279236.0378189-1.1304703.5657425-1.346283 1.5560455-.6353226 2.9910736-1.4763794 4.2657623-2.4999542.444725-.3569946 1.0936661-.2863998 1.4516678.1588287.3569946.444725.2858963 1.0946732-.1588326 1.4516678-1.4294815 1.1481247-3.0374603 2.0905304-4.7780533 2.8014832-.127571.0524444-.2596778.0771484-.3897666.0771484z"/></g><g><path d="m66.4942703 72.6118622c-.137146 0-.2763138-.0277328-.4104385-.0857162-.5228806-.2269058-.7633972-.8350067-.536499-1.3583908.9192047-2.1197739 1.3851166-4.379715 1.3851166-6.717308 0-2.2851601-.4482574-4.4987183-1.3326721-6.5791588-.2228699-.5248985.0216827-1.1309814.5465775-1.354351.5249023-.2223663 1.1304779.0211754 1.3543549.5465813.9933243 2.3370934 1.4970474 4.8224258 1.4970474 7.3869286 0 2.6219788-.5233841 5.1582413-1.5555344 7.5391998-.1689225.3892591-.5491029.6222151-.9479524.6222151z"/></g><g><path d="m40.5422134 77.1821747c-.3519478 0-.6948242-.1800079-.8879433-.5037231-.2899284-.4860764-.1346283-1.1148453.348423-1.4098206.1205101-.0741196.2410202-.1457214.3610268-.214798 6.4041862-3.8946533 5.2868195-8.3212585 4.2067642-12.6046677-.9595451-3.8038864-2.0471611-8.1150284 3.9526367-10.245388 2.6860161-.9560127 5.3790932-.448761 7.3844032 1.3896523 1.7330284 1.5888176 2.6219788 3.9364967 2.1611176 5.7083511-.1432037.5516243-.7074318.8849182-1.2590561.7397003-.5521278-.1431999-.8834076-.707428-.7397003-1.2590523.2279091-.8763466-.2410202-2.4591141-1.5580635-3.6667404-.8355026-.7659187-2.6330719-1.9105148-5.2979126-.9655952-4.048439 1.4375534-3.7131271 3.5442123-2.64114 7.794342.8228989 3.262352 1.8726997 7.4227219-1.0104713 11.2866135 2.7863579-.3811951 5.2782478.1598434 7.442894.6317978 2.8115692.6126404 4.4644279.9010544 5.7612991-.2712708.422039-.3827133 1.0760193-.350441 1.4582253.073616.3827057.4230423.3494263 1.0760193-.0736198 1.4582214-2.1459885 1.9417801-4.7886429 1.3664551-7.5850868.7573547-3.2366333-.7049103-6.8937912-1.5015945-11.1560211.9539948-.11446.0695801-.2314377.1386642-.3499336.2077408-.1633683.0947953-.3418657.1396714-.5178415.1396714z"/></g><g><path d="m53.1045265 65.4906616h-11.9763984c-.570282 0-1.0326576-.4623718-1.0326576-1.0326538s.4623756-1.0326576 1.0326576-1.0326576h11.9763985c.5702782 0 1.0326576.4623756 1.0326576 1.0326576s-.4623795 1.0326538-1.0326577 1.0326538z"/></g></svg>