<svg id="Layer_1" height="512" viewBox="0 0 64 64" width="512" xmlns="http://www.w3.org/2000/svg"><g><g style="fill:none;stroke:#000;stroke-linecap:round;stroke-linejoin:round;stroke-miterlimit:10;stroke-width:1.978"><path d="m18.5 41.4c-9.9-1.4-17.5-9.8-17.5-20.1 0-11.2 9.1-20.2 20.3-20.2 10.3 0 18.7 7.6 20.1 17.4"/><path d="m19.5 35.6c-7.1-.9-12.7-6.9-12.7-14.3 0-8 6.5-14.4 14.4-14.4 7.4 0 13.5 5.5 14.3 12.6"/><ellipse cx="42.7" cy="42.7" rx="20.3" ry="20.2"/><ellipse cx="42.7" cy="42.7" rx="14.4" ry="14.4"/></g><path d="m46.9 47.3c-.3.5-.8.9-1.4 1.2s-1.4.5-2.2.5v1.3c0 .2-.1.3-.2.4s-.2.2-.4.2-.3 0-.4-.1-.2-.2-.2-.4v-1.3c-1.3-.1-2.5-.4-3.6-.8-.1-.1-.3-.2-.4-.3s-.1-.3-.1-.4c0-.2.1-.4.2-.5s.3-.2.5-.2c.1 0 .2 0 .3.1 1 .4 2 .7 3 .7v-4.1c-.8-.2-1.5-.4-2-.7-.6-.2-1-.6-1.4-1.1s-.6-1-.6-1.7c0-.6.2-1.2.5-1.7s.8-1 1.4-1.3 1.3-.6 2.2-.6v-1.5c0-.2.1-.3.2-.4s.2-.2.4-.2.3.1.4.2.2.2.2.4v1.2c1.2 0 2.2.2 3.1.6.3.1.5.4.5.7 0 .2-.1.4-.2.5-.1.2-.3.2-.5.2-.1 0-.2 0-.3-.1-.8-.3-1.7-.4-2.6-.5v4.4c.9.2 1.6.4 2.1.7.6.2 1 .6 1.4 1.1s.6 1.1.6 1.9c.1.5-.1 1.1-.5 1.6zm-6.4-6.3c.4.3 1 .5 1.8.7v-3.9c-.7.1-1.3.3-1.7.7-.4.3-.6.8-.6 1.3-.1.5.1.9.5 1.2zm5.3 4.5c0-.5-.2-.8-.6-1.1s-1.1-.5-1.9-.7v3.8c1.7-.1 2.5-.8 2.5-2z"/><path d="m25.8 26.1c.1.1.2.3.2.5 0 .3-.1.5-.4.6-.6.3-1.2.5-1.9.5-.3 0-.6 0-.9-.1-.2-.1-.5-.2-.9-.3-.3-.1-.6-.2-.9-.3s-.6-.1-.9-.1c-.7 0-1.3.2-1.9.6-.1.1-.3.1-.4.1-.2 0-.3-.1-.5-.2-.1-.1-.2-.3-.2-.4 0-.2.1-.4.2-.6.5-.4.8-.9 1.2-1.6.3-.6.5-1.3.5-1.9 0-.2 0-.4-.1-.7h-1.7c-.2 0-.3-.1-.5-.2-.1-.1-.2-.3-.2-.5s.1-.3.2-.5c.1-.1.3-.2.5-.2h1.4c-.2-.5-.3-1-.4-1.3s-.1-.7-.1-1.1c0-1.1.4-2 1.2-2.7s1.8-1 3.1-1c.9 0 1.7.2 2.6.5.4.1.5.4.5.7 0 .2-.1.4-.2.5s-.3.2-.5.2c-.1 0-.2 0-.3-.1-.7-.2-1.3-.3-1.9-.3-1 0-1.7.2-2.1.6s-.6.9-.6 1.4c0 .3 0 .6.1.9s.2.7.3 1.2l.1.4h3c.2 0 .3.1.5.2.1.1.2.3.2.5s-.1.3-.2.5c-.1.1-.3.2-.5.2h-2.7v.6c0 .9-.2 1.8-.7 2.5h.4c.3 0 .6 0 .8.1s.6.2 1 .3l.9.3c.3.1.5.1.8.1.4 0 .8-.1 1.1-.2.1 0 .2-.1.3-.1.1.2.3.2.5.4z"/><path d="m42.6 1.1c9.5 0 17.2 7.7 17.2 17.2" style="fill:none;stroke:#000;stroke-linecap:round;stroke-linejoin:round;stroke-miterlimit:10;stroke-width:1.978"/><path d="m63 14-3.3 4.3-4.2-3.3" style="fill:none;stroke:#000;stroke-linecap:round;stroke-linejoin:round;stroke-miterlimit:10;stroke-width:1.978"/><path d="m21.4 62.9c-9.5 0-17.2-7.7-17.2-17.2" style="fill:none;stroke:#000;stroke-linecap:round;stroke-linejoin:round;stroke-miterlimit:10;stroke-width:1.978"/><path d="m1 50 3.3-4.3 4.2 3.3" style="fill:none;stroke:#000;stroke-linecap:round;stroke-linejoin:round;stroke-miterlimit:10;stroke-width:1.978"/></g></svg>