<svg id="Layer_1" height="512" viewBox="0 0 512 512" width="512" xmlns="http://www.w3.org/2000/svg" data-name="Layer 1"><path d="m478.947 53.253h-362.047v-4.926h11a3 3 0 0 0 3-3v-4.5c0-16.818-13.907-30.5-31-30.5s-31 13.682-31 30.5v4.5a3 3 0 0 0 3 3h11v40.111a3 3 0 1 0 6 0v-40.111h22v4.926h-3.951a7.009 7.009 0 0 0 -7 7v225.494a7.009 7.009 0 0 0 7 7h3.951v5.736h-22v-166.045a3 3 0 0 0 -6 0v311.872h-3.013a25.038 25.038 0 0 0 -25.014 25.006v1h-4.017a25.029 25.029 0 0 0 -25 25v4.006a3 3 0 0 0 3 3h142.083a3 3 0 0 0 3-3v-4.006a25.028 25.028 0 0 0 -25-25h-4.017v-1a25.038 25.038 0 0 0 -25.013-25.006h-3.009v-151.563h362.047a7.008 7.008 0 0 0 7-7v-225.494a7.008 7.008 0 0 0 -7-7zm-404.047-10.926v-1.5c0-13.509 11.215-24.5 25-24.5s25 10.991 25 24.5v1.5zm14 262.156h22v139.827h-22zm60.041 171.834a19.021 19.021 0 0 1 19 19v1.006h-136.085v-1.006a19.022 19.022 0 0 1 19-19zm-29.03-26.007a19.03 19.03 0 0 1 19.013 19.006v1h-78.051v-1a19.031 19.031 0 0 1 19.014-19.006zm186.361-391.057-10.021 76.12a32.051 32.051 0 0 0 -6.591 0l-10.018-76.12zm-200.325 1a1 1 0 0 1 1-1h44.937l110.3 92c-.054.076-.107.15-.16.227l-156.077-90.951zm0 96.586 149.22 14.823c-.035.431-.057.874-.057 1.335s.022.906.057 1.337l-149.22 14.848zm1.186 129.908 154.89-92.2.137.193-111.6 92.01zm172.509 0 10.013-76.1a31.8 31.8 0 0 0 6.6 0l10.016 76.1zm200.305-1a1 1 0 0 1 -1 1h-45.331l-109.883-92c.058-.081.116-.163.172-.244l156.042 89.697zm0-96.565-149.226-14.85c.035-.431.056-.874.056-1.335s-.021-.9-.056-1.331l149.226-14.827zm0-38.372-152.871 15.19a3 3 0 0 0 -2.683 3.33c.045.39.1.777.151 1.164a13.606 13.606 0 0 1 0 5.025c-.052.382-.1.765-.148 1.15a3 3 0 0 0 2.68 3.331l152.871 15.213v82.067l-155.529-89.4a3 3 0 0 0 -4.086 1.089 31.364 31.364 0 0 1 -3.039 4.31 3 3 0 0 0 .379 4.221l106.6 89.247h-111.948l-10.515-79.891a3 3 0 0 0 -3.481-2.565 26.515 26.515 0 0 1 -10.745 0 3 3 0 0 0 -3.48 2.565l-10.513 79.891h-113.6l108.224-89.228a3 3 0 0 0 .394-4.237 31.509 31.509 0 0 1 -3.044-4.313 3 3 0 0 0 -4.124-1.064l-155.5 92.565v-85.258l152.872-15.212a3 3 0 0 0 2.683-3.332c-.045-.387-.1-.773-.149-1.157a13.514 13.514 0 0 1 0-5.029c.052-.384.1-.769.149-1.156a3 3 0 0 0 -2.683-3.326l-152.865-15.191v-83.336l155.532 90.627a3 3 0 0 0 4.1-1.074 31.414 31.414 0 0 1 3.047-4.306 3 3 0 0 0 -.379-4.229l-106.996-89.238h112.339l10.517 79.913a3 3 0 0 0 3.481 2.565 26.561 26.561 0 0 1 10.735 0 3 3 0 0 0 3.481-2.565l10.52-79.913h113.2l-107.853 89.239a3 3 0 0 0 -.391 4.235 31.277 31.277 0 0 1 3.041 4.306 3 3 0 0 0 4.1 1.079l155.526-90.406zm0-90.045-156.063 90.718-.154-.216 111.207-92.014h44.01a1 1 0 0 1 1 1z"/><path d="m292.953 146.987a26.021 26.021 0 1 0 25.99 26.013 26.045 26.045 0 0 0 -25.99-26.013zm14.141 40.162a20.02 20.02 0 1 1 5.849-14.149 19.855 19.855 0 0 1 -5.849 14.149z"/></svg>