<svg id="Layer_1" enable-background="new 0 0 480 480" height="512" viewBox="0 0 480 480" width="512" xmlns="http://www.w3.org/2000/svg"><path d="m480 97v320c0 17.645-14.355 32-32 32h-150.714c-6.257 0-11.751 4.001-13.673 9.956-4.06 12.587-15.675 21.044-28.899 21.044h-29.428c-13.225 0-24.839-8.457-28.899-21.044-1.922-5.955-7.416-9.956-13.673-9.956h-150.714c-17.645 0-32-14.355-32-32v-320c0-17.645 14.355-32 32-32h13.609c4.21-12.761 16.238-22 30.391-22h140c9.551 0 18.132 4.211 24 10.868 5.868-6.657 14.449-10.868 24-10.868 4.418 0 8 3.582 8 8s-3.582 8-8 8c-8.822 0-16 7.178-16 16v273c0 4.418-3.582 8-8 8s-8-3.582-8-8c0-11.668 0-261.19 0-273 0-8.822-7.178-16-16-16h-140c-8.822 0-16 7.178-16 16v278c0 4.418-3.582 8-8 8s-8-3.582-8-8v-272h-12c-8.822 0-16 7.178-16 16v320c0 8.822 7.178 16 16 16h150.714c13.225 0 24.839 8.457 28.899 21.044 1.922 5.955 7.416 9.956 13.673 9.956h29.428c6.257 0 11.751-4.001 13.673-9.956 4.06-12.587 15.675-21.044 28.899-21.044h150.714c8.822 0 16-7.178 16-16v-320c0-4.418 3.582-8 8-8s8 3.582 8 8zm-151.954 249.954c3.062 5.386 10.845 5.388 13.908 0l24.817-43.644c3.421-6.016 5.229-12.853 5.229-19.772v-157.538c0-4.418-3.582-8-8-8s-8 3.582-8 8v157.538c0 8.187-1.807 9.525-21 43.277l-17.863-31.415c-4.43-7.791-3.137 5.213-3.137-208.4h50c4.418 0 8-3.582 8-8v-20h32c8.822 0 16 7.178 16 16v301c0 8.822-7.178 16-16 16h-140c-9.547 0-18.132 4.203-24 10.855-5.868-6.652-14.453-10.855-24-10.855h-140c-4.418 0-8 3.582-8 8s3.582 8 8 8h140c8.822 0 16 7.178 16 16 0 4.418 3.582 8 8 8s8-3.582 8-8c0-8.822 7.178-16 16-16h140c17.645 0 32-14.355 32-32v-301c0-17.645-14.355-32-32-32h-32v-11c0-17.645-14.355-32-32-32h-10c-30.503 0-40.787 40-24 40 4.418 0 8-3.582 8-8 0-8.822 7.178-16 16-16h10c8.822 0 16 7.178 16 16v39h-50c-4.418 0-8 3.582-8 8v204.538c0 6.92 1.808 13.757 5.229 19.771z"/></svg>