<svg id="Capa_1" enable-background="new 0 0 512.169 512.169" height="512" viewBox="0 0 512.169 512.169" width="512" xmlns="http://www.w3.org/2000/svg"><g><g><path d="m446.18 429.667c14.635-8.375 24.49-22.81 25.719-37.671 1.471-17.79-10.037-34.752-26.199-38.617-10.879-2.602-21.962.438-32.049 8.789-7.853 6.501-14.724 15.955-19.347 26.619-4.939 11.39-8.049 22.914-9.309 34.173-21.031-3.35-41.678-12.292-59.582-25.999-23.198-17.76-39.875-42.049-46.957-68.393-1.075-4-5.187-6.369-9.19-5.295-4 1.075-6.371 5.19-5.295 9.19 14.739 54.825 64.646 97.494 120.454 105.591.373 9.679 2.202 19.013 5.503 27.728 10.236 27.021 35.731 46.095 62 46.387h.084c4.103 0 7.453-3.304 7.498-7.417.046-4.142-3.274-7.537-7.417-7.583-20.243-.225-40.038-15.317-48.139-36.701-2.477-6.538-3.928-13.648-4.371-21.085 1.371.042 2.764.053 4.126.06 17.127-.024 31.019-3.222 42.471-9.776zm-46.166-5.279c1.105-9.783 3.799-19.828 8.052-29.635 9.434-21.757 24.312-29.138 34.146-26.786 8.835 2.113 15.585 12.55 14.738 22.792-.828 10.011-7.809 19.931-18.22 25.889-9.129 5.225-20.591 7.774-35.04 7.794-1.23.003-2.449-.016-3.676-.054z"/><path d="m315.097 213.836c4.018-1.005 6.461-5.078 5.456-9.096s-5.08-6.462-9.096-5.456l-21.41 5.356-43.944-53.319-97.948-118.842 258.975 140.62c.207.112.755.41.647 1.263s-.714 1.004-.942 1.061l-61.541 15.396c-4.018 1.005-6.461 5.078-5.456 9.096s5.079 6.461 9.096 5.456l61.541-15.396c6.551-1.639 11.333-7.026 12.182-13.726s-2.436-13.11-8.37-16.332l-292.876-159.028c-.316-.172-.65-.32-.988-.444-.38-.14-.786-.25-1.184-.326-.013-.002-.026-.006-.048-.009-2.821-.451-5.471.485-7.251 2.738-.626.792-1.089 1.71-1.351 2.685-.003.012-21.184 78.817-21.184 78.817-1.075 4 1.296 8.115 5.296 9.19 4.001 1.076 8.115-1.296 9.19-5.296l15.684-58.356 90.232 203.219-23.081 5.706-130.011 32.141c-.923.227-1.765-.618-1.515-1.547.076-.284 39.599-147.33 39.599-147.33 1.075-4-1.296-8.115-5.296-9.19-4.001-1.071-8.115 1.296-9.19 5.296l-39.599 147.33c-1.509 5.615.02 11.446 4.089 15.599 3.116 3.18 7.247 4.89 11.545 4.89 1.314 0 2.645-.16 3.967-.487l106.262-26.27c4.991 3.049 77.249 47.198 77.249 47.198 1.772 1.083 4.091 1.38 6.085.775 2.018-.612 3.779-2.149 4.653-4.071.009-.02 30.836-67.838 38.038-83.684zm-128.038 40.346 28.931-7.152 15.129 34.073zm60.757 27.561-100.841-227.111 131.532 159.592z"/><path d="m358.576 244.763c-1.203-3.964-5.393-6.201-9.354-4.999-3.964 1.203-6.202 5.391-4.999 9.354 4.777 15.745 16.587 29.177 31.591 35.931 1 .45 2.045.663 3.074.663 2.861 0 5.593-1.646 6.843-4.423 1.7-3.777.017-8.217-3.76-9.917-11.111-5.002-19.857-14.949-23.395-26.609z"/><path d="m391.376 226.054c-1.97-3.644-6.519-5.002-10.164-3.031-3.644 1.969-5.001 6.52-3.031 10.164 10.392 19.226 29.324 33.577 50.643 38.39.556.125 1.111.186 1.658.186 3.428 0 6.522-2.366 7.309-5.85.912-4.04-1.624-8.055-5.665-8.967-17.155-3.874-32.388-15.421-40.75-30.892z"/><path d="m146.694 299.101c-3.913 1.36-5.981 5.635-4.621 9.547 4.001 11.509 2.785 24.698-3.255 35.28-2.053 3.598-.801 8.178 2.796 10.231 1.173.669 2.451.988 3.711.988 2.605 0 5.137-1.359 6.521-3.784 8.156-14.29 9.799-32.1 4.396-47.642-1.361-3.912-5.638-5.981-9.548-4.62z"/><path d="m110.978 304.393c-4.105.552-6.986 4.328-6.434 8.433 2.344 17.429-3.176 35.73-14.767 48.957-2.73 3.115-2.417 7.854.698 10.583 1.423 1.248 3.185 1.859 4.94 1.859 2.085 0 4.161-.865 5.644-2.557 14.404-16.438 21.264-39.182 18.352-60.841-.552-4.105-4.324-6.987-8.433-6.434z"/></g></g></svg>