<svg id="Capa_1" enable-background="new 0 0 511.972 511.972" height="512" viewBox="0 0 511.972 511.972" width="512" xmlns="http://www.w3.org/2000/svg"><g><path d="m508.401 370.71c-3.255-19.773-20.065-34.66-39.97-35.396-41.035-1.536-82.31-2.424-123.625-2.685.132-28.423-.696-57.102-2.49-85.37-1.938-30.687-26.54-55.15-57.229-56.905-37.583-2.138-75.492-3.222-112.676-3.222-20.911 0-42.055.355-63.241 1.036.105-16.071.34-32.347.719-48.523.097-4.141-3.181-7.577-7.322-7.674-4.173-.106-7.577 3.181-7.674 7.322-.386 16.473-.624 33.051-.727 49.413-11.484.455-22.969.996-34.423 1.648-2.318.133-4.597.41-6.839.795.163-27.836.7-55.813 1.642-83.324 1.359-39.866 32.464-72.137 72.354-75.065 15.062-1.108 30.374-1.67 45.51-1.67 15.143 0 30.458.562 45.521 1.67 39.889 2.929 70.994 35.201 72.354 75.072.263 7.515.496 15.269.695 23.138h-41.245c-.191-7.252-.412-14.534-.659-21.731-.653-18.758-15.34-33.955-34.17-35.349-14.104-1.028-28.401-1.55-42.496-1.55-14.088 0-28.382.521-42.494 1.55-18.822 1.393-33.509 16.59-34.162 35.348-.144 4.14 3.095 7.612 7.234 7.757 4.136.146 7.613-3.095 7.757-7.234.386-11.094 9.104-20.084 20.27-20.911 13.742-1.002 27.669-1.51 41.395-1.51 13.732 0 27.663.508 41.396 1.509 11.174.827 19.892 9.817 20.278 20.907.328 9.568.61 19.289.838 28.892.097 4.071 3.425 7.322 7.498 7.322h56.24c2.018 0 3.951-.813 5.362-2.256 1.411-1.442 2.181-3.393 2.136-5.411-.235-10.559-.532-20.987-.882-30.989-1.622-47.54-38.699-86.022-86.245-89.514-15.427-1.135-31.112-1.71-46.621-1.71-15.501 0-31.184.575-46.609 1.71-47.547 3.491-84.625 41.974-86.246 89.513-1.001 29.209-1.555 58.946-1.682 88.481-19.819 9.11-33.912 28.549-35.368 51.466-3.348 52.971-3.341 106.758.02 159.866 1.937 30.687 26.54 55.15 57.225 56.905 24.405 1.4 49.056 2.335 73.384 2.823 6.169 15.056 20.681 25.634 37.376 26.261 49.389 1.845 99.199 2.77 148.96 2.77 35.432 0 70.841-.469 106.049-1.406 4.141-.11 7.408-3.557 7.298-7.697-.111-4.141-3.604-7.396-7.697-7.298-84.338 2.247-169.814 1.79-254.049-1.357-12.809-.482-23.63-10.093-25.731-22.856-4.494-27.245-4.494-54.874 0-82.121 2.101-12.762 12.92-22.37 25.729-22.844 98.472-3.686 198.329-3.686 296.803 0 12.806.474 23.626 10.082 25.727 22.846 4.494 27.245 4.494 54.874 0 82.121-2.101 12.761-12.922 22.372-25.728 22.854-4.304.16-8.608.31-12.913.459-4.14.144-7.379 3.617-7.235 7.756.145 4.14 3.623 7.382 7.756 7.235 4.316-.15 8.632-.3 12.951-.461 19.905-.749 36.714-15.639 39.968-35.404 4.764-28.867 4.764-58.139.003-87.002zm-337.888-35.396c-19.907.737-36.718 15.623-39.972 35.394-4.436 26.888-4.735 54.128-.907 81.062-22.908-.504-46.073-1.399-69.025-2.716-23.119-1.322-41.653-19.754-43.113-42.876-3.321-52.48-3.328-105.63-.02-157.971 1.469-23.123 20.008-41.557 43.121-42.878 37.3-2.122 74.92-3.198 111.814-3.198 36.901 0 74.523 1.076 111.822 3.198 23.119 1.322 41.653 19.754 43.113 42.877 1.773 27.933 2.591 56.272 2.46 84.357-53.213-.137-106.452.773-159.293 2.751z"/><path d="m229.792 393.376c-2.071-3.588-6.658-4.816-10.245-2.745l-18.34 10.589v-21.177c0-4.142-3.358-7.5-7.5-7.5s-7.5 3.358-7.5 7.5v21.178l-18.34-10.589c-3.588-2.072-8.175-.842-10.245 2.745-2.071 3.587-.842 8.174 2.745 10.245l18.34 10.589-18.34 10.589c-3.587 2.071-4.816 6.658-2.745 10.245 1.389 2.406 3.91 3.751 6.502 3.751 1.272 0 2.562-.324 3.743-1.006l18.34-10.589v21.178c0 4.142 3.358 7.5 7.5 7.5s7.5-3.358 7.5-7.5v-21.177l18.34 10.589c1.181.682 2.471 1.006 3.743 1.006 2.592 0 5.113-1.346 6.502-3.751 2.071-3.587.842-8.174-2.745-10.245l-18.34-10.589 18.34-10.589c3.588-2.072 4.817-6.659 2.745-10.247z"/><path d="m312.324 393.376c-2.071-3.588-6.659-4.816-10.245-2.745l-18.34 10.589v-21.178c0-4.142-3.358-7.5-7.5-7.5s-7.5 3.358-7.5 7.5v21.178l-18.34-10.589c-3.587-2.072-8.174-.842-10.245 2.745s-.842 8.174 2.745 10.245l18.34 10.589-18.34 10.589c-3.587 2.071-4.816 6.658-2.745 10.245 1.389 2.406 3.91 3.751 6.502 3.751 1.272 0 2.562-.324 3.743-1.006l18.34-10.589v21.178c0 4.142 3.358 7.5 7.5 7.5s7.5-3.358 7.5-7.5v-21.178l18.34 10.589c1.181.682 2.471 1.006 3.743 1.006 2.592 0 5.113-1.346 6.502-3.751 2.071-3.587.842-8.174-2.745-10.245l-18.34-10.589 18.34-10.589c3.587-2.07 4.816-6.657 2.745-10.245z"/><path d="m394.855 393.376c-2.071-3.588-6.659-4.816-10.245-2.745l-18.34 10.589v-21.178c0-4.142-3.358-7.5-7.5-7.5s-7.5 3.358-7.5 7.5v21.178l-18.34-10.589c-3.587-2.072-8.174-.842-10.245 2.745s-.842 8.174 2.745 10.245l18.34 10.589-18.34 10.589c-3.587 2.071-4.816 6.658-2.745 10.245 1.389 2.406 3.91 3.751 6.502 3.751 1.272 0 2.562-.324 3.743-1.006l18.34-10.589v21.178c0 4.142 3.358 7.5 7.5 7.5s7.5-3.358 7.5-7.5v-21.178l18.34 10.589c1.181.682 2.471 1.006 3.743 1.006 2.592 0 5.113-1.346 6.502-3.751 2.071-3.587.842-8.174-2.745-10.245l-18.34-10.589 18.34-10.589c3.587-2.07 4.816-6.657 2.745-10.245z"/><path d="m448.801 427.201 18.34 10.589c1.181.682 2.471 1.006 3.743 1.006 2.592 0 5.113-1.346 6.502-3.751 2.071-3.587.842-8.174-2.745-10.245l-18.341-10.59 18.34-10.589c3.587-2.071 4.816-6.658 2.745-10.245-2.071-3.588-6.658-4.816-10.245-2.745l-18.34 10.589v-21.177c0-4.142-3.358-7.5-7.5-7.5s-7.5 3.358-7.5 7.5v21.178l-18.34-10.589c-3.587-2.072-8.174-.842-10.245 2.745s-.842 8.174 2.745 10.245l18.34 10.589-18.34 10.589c-3.587 2.071-4.816 6.658-2.745 10.245 1.389 2.406 3.91 3.751 6.502 3.751 1.272 0 2.562-.324 3.743-1.006l18.34-10.589v21.178c0 4.142 3.358 7.5 7.5 7.5s7.5-3.358 7.5-7.5v-21.178z"/><path d="m322.084 153.303c1.036.49 2.127.722 3.202.722 2.81 0 5.503-1.586 6.785-4.295l14.467-30.585c1.771-3.745.171-8.216-3.573-9.987-3.747-1.773-8.216-.172-9.987 3.573l-14.467 30.585c-1.771 3.744-.171 8.216 3.573 9.987z"/><path d="m343.093 180.538c-3.744-1.773-8.216-.172-9.986 3.573-1.771 3.744-.171 8.215 3.573 9.986l30.585 14.466c1.036.49 2.127.722 3.202.722 2.81 0 5.504-1.587 6.785-4.295 1.771-3.744.171-8.215-3.573-9.986z"/><path d="m333.976 166.424c1.097 3.065 3.983 4.976 7.062 4.976.838 0 1.691-.142 2.526-.44l31.856-11.398c3.9-1.396 5.931-5.688 4.535-9.588-1.395-3.9-5.689-5.933-9.588-4.535l-31.856 11.398c-3.9 1.394-5.931 5.687-4.535 9.587z"/></g></svg>