<?xml version="1.0"?>
<svg xmlns="http://www.w3.org/2000/svg" viewBox="0 0 72 72"><g id="Layer_25" data-name="Layer 25"><path d="M4,39a1.0065,1.0065,0,0,0,.24268-.02979l8-2A.99628.99628,0,0,0,12.707,36.707l25-25A4.38318,4.38318,0,0,0,39,8.58594V7.41406A4.41448,4.41448,0,0,0,34.58594,3H33.41406A4.38318,4.38318,0,0,0,30.293,4.293l-25,25a.99628.99628,0,0,0-.26318.46435l-2,8A1.0003,1.0003,0,0,0,4,39Zm2.90283-8.48877L31.707,5.707A2.43158,2.43158,0,0,1,33.41406,5h1.17188A2.414,2.414,0,0,1,37,7.41406V8.58594a2.43158,2.43158,0,0,1-.707,1.707l-24.8042,24.8042L5.37451,36.62549Z"/><path d="M66,24H34a3.00328,3.00328,0,0,0-3,3V45a1,1,0,0,0,2,0V33H63a1,1,0,0,0,0-2H33V27a1.0013,1.0013,0,0,1,1-1H66a1.0013,1.0013,0,0,1,1,1V66a1.0013,1.0013,0,0,1-1,1H34a1.0013,1.0013,0,0,1-1-1V51a1,1,0,0,0-2,0V66a3.00328,3.00328,0,0,0,3,3H66a3.00328,3.00328,0,0,0,3-3V27A3.00328,3.00328,0,0,0,66,24Z"/><path d="M44.87842,47.53564,50.457,41.957A2.8892,2.8892,0,0,1,54.543,46.043l-9.25,9.25A3.82832,3.82832,0,0,0,50.707,60.707l1.82861-1.82861A3.022,3.022,0,0,1,54.65674,58H61a1,1,0,0,0,0-2H54.65674a4.96656,4.96656,0,0,0-3.53516,1.46436L49.293,59.293A1.82854,1.82854,0,0,1,46.707,56.707l9.25-9.25A4.889,4.889,0,1,0,49.043,40.543l-5.57861,5.57861A3.022,3.022,0,0,1,41.34326,47H27.65674a3.00013,3.00013,0,0,1-2.1211-5.12158L25.707,41.707A3.82832,3.82832,0,0,0,20.293,36.293l-2.82861,2.82861A3.022,3.022,0,0,1,15.34326,40H4a1,1,0,0,0,0,2H15.34326a4.96656,4.96656,0,0,0,3.53516-1.46436L21.707,37.707A1.82854,1.82854,0,0,1,24.293,40.293l-.17139.17139A5,5,0,0,0,27.65674,49H41.34326A4.96656,4.96656,0,0,0,44.87842,47.53564Z"/></g></svg>
