<svg id="Layer_1" enable-background="new 0 0 66 66" height="512" viewBox="0 0 66 66" width="512" xmlns="http://www.w3.org/2000/svg"><g><path d="m13.761 64.224c13.54.809 27.263.82 40.821.033 6.565-.382 8.75-2.394 8.91-9.719l.935-43.367c.148-6.903-1.787-9.677-10.115-9.724l-1.984-.011c-.008 0-.014 0-.021 0l-8.264-.046c-.043-.012-.08-.013-.124-.001l-13.236-.074-.081-.081c-.098-.098-.256-.098-.353 0-.022.022-.021.052-.033.078l-19.121-.107c-7.039-.008-8.624 2.211-8.93 7.736-.164 2.959-.28 5.928-.365 8.899-.136.088-.233.234-.234.408-.002.169.087.312.214.404-.287 10.874-.146 21.676-.146 32.167-.076 9.725 2.624 12.837 12.127 13.405zm27.659-1.132-.438-.438 1.403-1.403 1.689 1.689-.782.782c-1.15.029-2.301.055-3.452.073l.787-.787.438.438c.098.098.256.098.354 0 .099-.098.099-.257.001-.354zm3.237.076c.049-.049.073-.113.073-.177l1.415-1.414 1.295 1.295c.098.098.256.098.354 0s.098-.256 0-.354l-1.295-1.295 1.281-1.281 1.649 1.649-1.58 1.58c-.098.098-.098.256 0 .354.03.03.07.033.108.045-1.313.051-2.625.1-3.94.136l.465-.465c.062 0 .126-.024.175-.073zm9.867.091c-2.135.124-4.275.221-6.418.305.033-.012.069-.013.095-.039l1.58-1.58.561.561c.098.098.256.098.354 0s.098-.256 0-.354l-.561-.561 1.608-1.608 1.73 1.73-1.212 1.212c-.098.098-.098.256 0 .354s.256.098.354 0l1.212-1.212.579.579c.098.098.256.098.354 0s.098-.256 0-.354l-.579-.579 1.935-1.935 1.69 1.69-1.294 1.294c-.089.089-.086.224-.013.322-.641.084-1.302.136-1.975.175zm-2.428-3.629 1.935-1.935 1.73 1.73-1.935 1.935zm4.372-.205 1.649-1.649 1.69 1.69-1.649 1.649zm1.69 2.397.692.692c-.588.235-1.221.399-1.892.507zm4.197-43.882-1.18-1.18 1.68-1.679.31.31c.046.046.107.067.168.069l-.061 2.835-.915-.008c.093-.097.094-.251-.002-.347zm1.074-8.342-.27.27-1.68-1.68 1.556-1.556c.271.907.372 1.911.394 2.966zm-.083 5.267-.138-.137.144-.144zm-5.796-12.235c.721.098 1.419.249 2.068.479l-1.1 1.1-1.273-1.273zm2.56.693c.423.187.824.408 1.183.685l-1.489 1.489-.934-.934zm-14.285-.557.364-.364 2.195.012-1.455 1.455zm-.354-.354-.015-.015h.029zm8.439.033-.238.238-.242-.241zm-2.291-.013-.963.963-.974-.974zm-13.659-.076 1.932.011-.961.961zm4.897.027-.741.741-.749-.749zm-32.053-.179c.095 0 .19 0 .285.001l19.773.111-.226.226c-.098.098-.098.256 0 .354s.256.098.354 0l.284-.284.806.806c.098.098.256.098.354 0s.098-.256 0-.354l-.745-.744 2.152.012.094.094-.733.734c-.098.098-.098.256 0 .354s.256.098.354 0l.733-.733.671.671c.098.098.256.098.354 0s.098-.256 0-.353l-.671-.671.09-.089 2.06.012-1.134 1.134c-.098.098-.098.256 0 .353.098.098.256.098.354 0l1.361-1.362 1.21 1.21c-.084.098-.086.244.007.337.085.085.219.108.337.007l.508.508c.098.098.256.098.354 0s.098-.256 0-.354l-.503-.503 1.31-1.31h.061l1.107 1.107-.06.06c-.098.098-.098.256 0 .354s.256.098.354 0l.06-.06.71.71c.098.098.256.098.354 0s.098-.256 0-.353l-.71-.71 1.09-1.091 1.185.007.372.372-.571.572c-.098.098-.098.256 0 .353.098.098.256.098.353 0l.572-.572 2.308 2.308c.098.098.256.098.354 0s.098-.256 0-.353l-.851-.851 1.747-1.747 1.273 1.273-.088.088c-.098.098-.098.256 0 .353.098.098.256.098.354 0l.088-.088.942.942c.098.098.256.098.354 0s.098-.256 0-.353l-.942-.942 1.312-1.313.398.002.598.599-.427.427c-.098.098-.098.256 0 .353.098.098.256.098.354 0l.427-.427 2.301 2.301c.098.098.256.098.354 0s.098-.256 0-.354l-2.301-2.301.585-.585c.761.008 1.535.038 2.299.111l-1.415 1.416c-.098.098-.098.256 0 .354s.256.098.354 0l1.043-1.044 1.273 1.273-.277.277c-.098.098-.098.256 0 .354s.256.098.354 0l.277-.277.934.934-.627.627c-.098.098-.098.256 0 .353.098.098.256.098.354 0l.627-.627.545.545c.098.098.256.098.353 0 .098-.098.098-.256 0-.353l-.549-.545 1.506-1.506c.475.451.828.83 1.195 1.756l-2.521 2.521c-.098.098-.098.256 0 .354s.256.098.354 0l.434-.434 1.68 1.68-1.601 1.601c-.098.098-.098.256 0 .353.098.098.256.098.354 0l1.601-1.601.27.271c-.002.102-.002.203-.004.305l-.059 2.739c-.014.009-.033.006-.045.019l-.467.467-1.822-1.822c-.098-.098-.256-.098-.354 0s-.098.256 0 .353l1.822 1.823-1.68 1.679-.128-.128c-.098-.098-.256-.098-.353 0-.098.098-.098.256 0 .354l.217.217c.01.044.017.089.051.123s.08.041.123.051l1.26 1.26-59.19-.526c.084-2.926.2-5.85.361-8.762.264-4.74 1.288-6.793 7.641-6.793zm-8.026 16.555 60.472.537-.624 28.958c-.001-.062-.024-.124-.071-.172-.098-.098-.256-.098-.354 0l-.611.611-.477-.477c-.098-.098-.256-.098-.354 0s-.098.256 0 .354l.477.477-.804.804c-.098.098-.098.256 0 .354s.256.098.354 0l.804-.805.524.524c.098.098.256.098.354 0s.098-.256 0-.354l-.524-.524.611-.611c.047-.047.069-.109.071-.171l-.135 6.252c-.071 3.257-.366 6.367-3.151 7.781l-.829-.829 1.649-1.649.362.362c.098.098.256.098.354 0s.098-.256 0-.354l-.362-.362.806-.806c.098-.098.098-.256 0-.353-.098-.098-.256-.098-.354 0l-.806.806-1.69-1.69.931-.931c.098-.098.098-.256 0-.354s-.256-.098-.354 0l-.931.931-1.008-1.008c-.098-.098-.256-.098-.354 0s-.098.256 0 .354l1.008 1.008-1.649 1.649-1.73-1.73 1.188-1.188c.098-.098.098-.256 0-.354s-.256-.098-.354 0l-1.188 1.188-.273-.273c-.098-.098-.256-.098-.354 0s-.098.256 0 .354l.273.273-1.935 1.935-1.09-1.09c-.098-.098-.256-.098-.354 0s-.098.256 0 .354l1.09 1.09-1.608 1.608-1.649-1.649 1.234-1.234c.098-.098.098-.256 0-.354s-.256-.098-.354 0l-1.234 1.234-.15-.15c-.098-.098-.256-.098-.353 0-.098.098-.098.256 0 .354l.15.15-1.281 1.281-1.049-1.049c-.098-.098-.256-.098-.354 0s-.098.256 0 .354l1.049 1.049-1.363 1.363-1.689-1.689 1.087-1.087c.098-.098.098-.256 0-.354s-.256-.098-.354 0l-2.839 2.843-.845-.845c-.098-.098-.256-.098-.354 0s-.098.256 0 .354l.845.845-1.09 1.09c-.018.018-.015.043-.026.064-1.036.014-2.073.015-3.109.02l1.106-1.106.978.977c.098.098.256.098.354 0s.098-.256 0-.354l-.978-.977 1.627-1.627c.098-.098.098-.256 0-.354s-.256-.098-.354 0l-1.633 1.633c-.098-.083-.242-.085-.335.008-.092.092-.09.236-.008.335l-1.123 1.123-.395-.395c-.098-.098-.256-.098-.353 0-.098.098-.098.256 0 .354l.389.388c-7.185.018-14.372-.18-21.504-.606-8.859-.529-11.259-3.129-11.186-12.4 0-.001 0-.002 0-.004-.001-10.465-.141-21.228.143-32.064z"/><path d="m10.486 14.051c2.387.278 4.312-.196 4.78-2.577.724-3.69-3.926-6.567-6.877-3.493-.883.92-1.736 3.111-1.063 4.452.589 1.176 1.999 1.483 3.16 1.618zm-1.192-1.262.126-.126.23.23c-.122-.03-.241-.065-.356-.104zm.61.162c.039-.011.081-.015.111-.046.098-.098.098-.256 0-.353l-.242-.242.505-.505.991.991-.253.253c-.014.014-.011.035-.021.052-.133-.012-.264-.026-.394-.041-.225-.029-.462-.062-.697-.109zm2.179-2.951c.009.013.006.029.017.041l.962.962-.524.524-.991-.991zm2.019-.381-.222-.222.076-.076c.052.098.105.195.146.298zm-.182.525-.505.505-.483-.483c.019.004.034.022.053.022.064 0 .128-.024.177-.073l.365-.365zm-2.727.745.991.991-.561.561-.991-.991zm.443 2.246.902-.902.519.519c.047.047.104.073.183.071-.464.253-1.027.323-1.604.312zm2.648-1.854c-.115.586-.412 1.097-.815 1.4-.013.01-.028.016-.041.025.063-.097.066-.223-.019-.308l-.519-.519.524-.524.328.328c.098.098.256.098.354 0s.098-.256 0-.354l-.328-.328.538-.538c.029.273.032.548-.022.818zm-5.173-2.608c1.115-1.161 3.267-1.52 4.571.216l-.154.154-.478-.477c-.098-.098-.256-.098-.353 0-.098.098-.098.256 0 .353l.477.477-.365.365c-.064.064-.07.149-.051.23l-.305-.305c-.05-.05-.115-.073-.181-.072-.011-.039-.016-.081-.047-.112-.098-.098-.256-.098-.354 0l-1.594 1.594-.103-.103c-.098-.098-.256-.098-.353 0-.098.098-.098.256 0 .354l.103.103-.504.506-.402-.402c-.098-.098-.256-.098-.354 0s-.098.256 0 .354l.402.402-.259.259c-.252-.147-.462-.334-.588-.584-.404-.807.159-2.549.892-3.312z"/><path d="m20.376 14.051c1.253.146 2.578.188 3.585-.571 2.259-1.699 1.316-5.738-1.571-6.622-1.4-.43-3.053.022-4.111 1.123-.883.92-1.736 3.112-1.063 4.452.59 1.176 1.999 1.483 3.16 1.618zm-.933-1.181.394-.394.57.57c-.315-.038-.648-.091-.964-.176zm1.532.236c.026-.085.022-.177-.045-.244l-.739-.739.972-.972.841.842-.57.57c-.098.098-.098.256 0 .354s.256.098.354 0l.57-.57.572.571c-.578.239-1.276.246-1.955.188zm1.267-3.042.845.845-.729.729-.841-.841.72-.72c.003-.004.002-.01.005-.013zm-3.241-1.391c.788-.82 2.026-1.187 3.096-.859.478.146.896.433 1.238.794l-.081.081-.532-.533c-.098-.098-.256-.098-.354 0s-.098.256 0 .353l.533.533-.197.197c-.098.098-.098.256 0 .354s.256.098.353 0l.223-.223c.029.011.054.035.085.035.064 0 .128-.024.177-.073.072-.072.073-.172.038-.262l.07-.07c.94 1.366.634 2.987-.292 3.682-.006.005-.013.007-.019.012-.01-.043-.017-.089-.051-.122l-.578-.578.729-.729.207.207c.098.098.256.098.353 0 .098-.098.098-.256 0-.353l-.207-.207.215-.215c.098-.098.098-.256 0-.353-.098-.098-.256-.098-.354 0l-.215.215-1.205-1.205c-.098-.098-.256-.098-.354 0s-.098.256 0 .354l.014.014c-.004.003-.01.002-.013.005l-.747.747c-.09-.035-.19-.034-.262.038s-.073.172-.038.262l-.999.999-.439-.439c-.098-.098-.256-.098-.354 0s-.098.256 0 .354l.439.439-.562.562c-.355-.159-.652-.379-.813-.7-.4-.81.164-2.553.896-3.316z"/><path d="m30.288 14.051c1.254.146 2.579.188 3.585-.571.607-.457 1.031-1.169 1.195-2.006.378-1.927-.888-4.041-2.766-4.616-1.4-.43-3.053.022-4.111 1.123-.883.919-1.736 3.111-1.064 4.452.591 1.176 2 1.483 3.161 1.618zm-.411-1.07c.004-.046-.014-.085-.035-.128l.6-.601.674.673-.01.01c-.05.05-.073.116-.071.182-.213-.015-.424-.036-.63-.059-.172-.02-.35-.047-.528-.077zm1.667-1.83.673.673-.748.748-.673-.673zm.248 1.806.779-.779.579.579c-.394.251-.869.353-1.371.374.027-.058.032-.114.013-.174zm1.742-.523-.61-.61.766-.767.253.253c.033.033.078.039.121.05-.094.417-.278.792-.53 1.074zm.598-1.643-.088-.088.013-.013c.04-.04.053-.093.06-.145.007.083.016.164.015.246zm-.024-.331c-.01-.044-.017-.089-.051-.123-.098-.098-.256-.098-.354 0l-.013.013-.486-.487.551-.551c.191.358.311.748.353 1.148zm-5.195-1.787c.603-.627 1.454-.978 2.285-.978.276 0 .55.039.812.119.593.182 1.096.574 1.469 1.069 0 0 0 0-.001 0l-.627.627-.047-.047c-.098-.098-.256-.098-.354 0s-.098.256 0 .354l.047.047-.085.085c-.098.098-.098.256 0 .354s.256.098.354 0l.085-.085.487.487-.767.767-.723-.723c.003-.067-.018-.134-.07-.185-.062-.062-.144-.07-.223-.054-.09-.035-.19-.035-.263.038-.058.058-.07.134-.06.209l-.79.79-.29-.29c-.098-.098-.256-.098-.353 0-.098.098-.098.256 0 .353l.29.29-.58.58-.738-.738c-.098-.098-.256-.098-.353 0-.098.098-.098.256 0 .353l.702.702c-.48-.161-.895-.407-1.098-.812-.405-.807.159-2.549.891-3.312z"/><path d="m13.146 39.524 38.987-.179c1.092-.005 3.575.111 4.461-2.971.294-1.024.29-2.069.286-3.079-.019-4.983-1.81-5.977-5.325-5.989-39.401-.132-38.391-.485-40.401.809-1.362.878-2.083 4.14-1.994 6.787.15 4.392 1.971 4.637 3.986 4.622zm-1.448-10.568c1.668-1.074.675-.781 39.855-.65 2.909.01 4.311.524 4.328 4.993.004.94.007 1.912-.247 2.799-.656 2.278-2.287 2.242-3.505 2.248l-38.987.179c-1.663.016-2.859-.032-2.98-3.656-.088-2.567.63-5.33 1.536-5.913z"/><path d="m43.327 42.917c-14.741.482-14.085.361-22.283.597-2.444.073-3.457.895-3.348 3.488.062 1.461.213 2.93.45 4.367.597 3.641 2.293 4.469 6.084 4.297l19.086-.866c3.353-.152 4.052-1.363 4.124-3.776l.12-4.111c.083-2.863-.84-4.105-4.233-3.996zm3.232 3.967-.12 4.111c-.055 1.898-.361 2.679-3.169 2.807l-19.085.867c-3.87.175-4.625-.857-5.053-3.461-.23-1.397-.378-2.826-.438-4.246-.083-1.971.45-2.39 2.378-2.446 8.331-.242 7.262-.108 22.285-.598 2.802-.085 3.27.677 3.202 2.966z"/><path d="m19.798 34.762c.489-1.269.174-2.6-.803-3.39-.874-.707-2.078-.746-3.144-.101-1.158.7-1.778 1.956-1.545 3.124.53 2.647 4.35 3.33 5.492.367zm-3.514.724.343-.343.558.558c-.294.009-.543-.023-.901-.215zm1.173-1.171.83.83c.023.023.055.022.083.034-.209.214-.47.382-.787.466.047-.094.049-.205-.029-.284l-.573-.573.452-.452c.007-.006.016-.013.024-.021zm-1.089-2.189c.706-.425 1.452-.417 1.997.023.769.623.75 1.603.499 2.253-.054.141-.127.282-.212.418-.007-.008-.004-.02-.012-.028l-.818-.818c.149-.138.296-.28.413-.442.355-.491-.063-.852-.313-1.068-.06-.052-.12-.103-.175-.158-.098-.098-.256-.098-.354 0s-.098.256 0 .354c.063.063.133.124.202.183.321.277.298.31.235.397-.094.131-.226.257-.361.382l-.372-.372c-.098-.098-.256-.098-.354 0s-.098.256 0 .354l.36.36c-.007.007-.016.015-.024.022l-.452.452-.246-.246c-.098-.098-.256-.098-.353 0-.098.098-.098.256 0 .354l.246.246-.404.404c-.29-.267-.506-.615-.583-.996-.174-.871.438-1.685 1.081-2.074z"/><path d="m31.288 34.762c.489-1.269.174-2.6-.803-3.39-.873-.707-2.079-.746-3.143-.101-1.158.7-1.778 1.956-1.545 3.124.53 2.647 4.349 3.33 5.491.367zm-3.439.764.659-.659.728.728c-.43.166-.904.163-1.387-.069zm1.837-.187-.825-.825.508-.508.604.604c.049.049.113.073.177.073.035 0 .064-.026.097-.04-.133.257-.32.504-.561.696zm.683-.981c-.012-.035-.014-.074-.042-.102l-.604-.604.693-.693c.157.481.099.997-.047 1.399zm-2.51-2.232c.705-.425 1.452-.417 1.997.023.13.105.23.223.318.345l-.804.804-.506-.506c-.098-.098-.256-.098-.354 0s-.098.256 0 .354l.506.506-.508.508-.36-.36c-.098-.098-.256-.098-.354 0s-.098.256 0 .354l.36.36-.717.717c-.007.007-.004.017-.01.024-.326-.273-.568-.646-.651-1.058-.173-.868.44-1.682 1.083-2.071z"/><path d="m41.709 34.762c.489-1.269.174-2.6-.803-3.39-.874-.707-2.079-.746-3.144-.101-1.158.7-1.778 1.956-1.545 3.124.533 2.657 4.354 3.322 5.492.367zm-3.22.851.974-.974.592.591c.033.033.078.039.121.05-.468.412-1.074.539-1.687.333zm-.209-3.487c.706-.425 1.452-.417 1.997.023.769.623.75 1.603.499 2.253-.076.198-.187.396-.325.579-.012-.036-.014-.075-.043-.104l-.592-.592.313-.313.28.28c.049.049.113.073.177.073s.128-.024.177-.073c.098-.098.098-.256 0-.354l-.28-.28.296-.296c.098-.098.098-.256 0-.354s-.256-.098-.354 0l-.296.296-.571-.571c-.098-.098-.256-.098-.354 0s-.098.256 0 .354l.571.571-.313.313-.164-.164c-.098-.098-.256-.098-.354 0s-.098.256 0 .354l.164.164-1.093 1.093c-.409-.278-.722-.703-.818-1.181-.172-.868.441-1.682 1.083-2.071z"/><path d="m51.116 34.762c.489-1.269.173-2.6-.804-3.39-.873-.707-2.078-.746-3.144-.101-1.157.7-1.778 1.956-1.544 3.124.53 2.648 4.35 3.33 5.492.367zm-3.43-2.636c.655-.395 1.415-.447 1.997.023.769.623.75 1.603.5 2.253-.429 1.11-1.529 1.647-2.58 1.084l.612-.612.595.596c.098.098.256.098.353 0 .098-.098.098-.256 0-.354l-.595-.595.589-.589.45.45c.233.233.589-.118.354-.354l-.45-.45.539-.539c.098-.098.098-.256 0-.354s-.256-.098-.354 0l-.539.539-.595-.595c-.098-.098-.256-.098-.353 0-.098.098-.098.256 0 .354l.595.595-.589.589-.66-.66c-.098-.098-.256-.098-.354 0s-.098.256 0 .354l.66.66-.673.673c-.291-.267-.507-.615-.583-.997-.174-.868.439-1.682 1.081-2.071z"/><path d="m26.03 50.321c-.469.157-.954.316-1.413.301-.97-.042-1.032-.606-.928-1.421l.358-2.825c.035-.274-.159-.524-.433-.559-.275-.03-.524.16-.559.433l-.358 2.825c-.21 1.656.583 2.489 1.876 2.546.041.002.082.002.123.002.599 0 1.157-.188 1.653-.355.262-.088.402-.372.314-.633-.088-.262-.37-.404-.633-.314z"/><path d="m27.267 48.12c-.261 1.129.354 2.432 1.399 2.965 1.412.72 2.826-.428 2.941-1.812.203-2.42-3.745-3.722-4.34-1.153zm1.854 2.074c-.565-.288-1.052-1.1-.879-1.849.297-1.285 2.472-.399 2.369.845-.06.714-.749 1.382-1.49 1.004z"/><path d="m36.524 48.112c.074-.282.125-.581.134-.902.008-.276-.209-.506-.485-.515-.239.013-.506.209-.515.485-.012.399-.096.965-.43 1.396-.532.686-1.418.657-1.741.021-.282-.554.075-1.225.613-1.271.232-.011.484.121.565.319.105.256.397.379.651.275.256-.104.379-.396.275-.651-.244-.6-.901-.999-1.575-.939-1.232.102-2.029 1.524-1.421 2.72.656 1.287 2.433 1.415 3.423.138.036-.047.063-.102.096-.151.14.453.27.913.297 1.368.077 1.323-.756 2.009-1.761 1.909-.523-.053-1.05-.34-1.445-.787-.183-.207-.499-.226-.706-.043s-.226.499-.043.706c.56.632 1.323 1.04 2.093 1.119 1.606.163 2.974-1.005 2.86-2.962-.039-.673-.244-1.321-.424-1.893-.064-.206-.254-.335-.461-.342z"/><path d="m39.156 46.005c-.275.024-.478.267-.454.543l.331 3.719c.023.26.241.455.498.455.015 0 .03 0 .045-.002.275-.024.478-.267.454-.542l-.331-3.719c-.024-.275-.255-.474-.543-.454z"/><path d="m41.63 47.103c-.013-.205-.045-.409-.05-.614-.007-.277-.228-.5-.512-.488-.276.007-.494.236-.488.512.03 1.262.204 2.521.517 3.744.165.646 1.133.395.969-.248-.133-.52-.231-1.049-.31-1.581.036-.04.07-.082.092-.135.238-.567.884-.555 1.252.061.215.362.284.832.351 1.286.097.66 1.086.509.989-.146-.077-.525-.165-1.12-.481-1.652-.475-.799-1.446-1.268-2.329-.739z"/><path d="m59.07 54.454.15-.15 1.954 1.954c.098.098.256.098.354 0s.098-.256 0-.354l-1.954-1.954 1.526-1.526.277.277c.098.098.256.098.354 0s.098-.256 0-.354l-.277-.277.009-.009c.098-.098.098-.256 0-.354s-.256-.098-.354 0l-.009.01-1.049-1.049c-.098-.098-.256-.098-.354 0s-.098.256 0 .354l1.049 1.049-1.565 1.566c-.078-.014-.158-.005-.219.056-.06.061-.07.141-.056.219l-.189.188c-.098.098-.098.256 0 .354.097.097.255.097.353 0z"/><path d="m40.749 14.225c.064 0 .128-.025.177-.073l2.834-2.834 1.055 1.055-2.033 2.033c-.098.098-.098.256 0 .353.049.049.113.073.177.073s.128-.024.177-.073l2.033-2.033 1.757 1.757c.049.049.113.073.177.073s.128-.024.177-.073c.098-.098.098-.256 0-.354l-.348-.348 1.552-1.552.667.667c-.016.017-.032.033-.047.05-.074.077-.148.155-.219.235-.092.103-.083.261.02.353.048.043.107.064.167.064.069 0 .137-.028.187-.083.068-.076.138-.149.208-.224.074-.077.148-.155.219-.235.088-.099.084-.25-.01-.343l-.838-.838 1.081-1.081c.098-.098.098-.256 0-.353-.098-.098-.256-.098-.354 0l-1.081 1.081-1.149-1.149c-.083-.083-.205-.08-.301-.022-.085-.025-.175-.021-.242.046l-1.622 1.622-1.055-1.055 1.641-1.641c.098-.098.098-.256 0-.353-.098-.098-.256-.098-.354 0l-1.641 1.641-1.177-1.177c-.098-.098-.256-.098-.354 0s-.098.256 0 .354l1.177 1.177-2.834 2.834c-.098.098-.098.256 0 .354.048.047.112.072.176.072zm6.325-3.404 1.055 1.055-1.552 1.552-1.055-1.055z"/></g></svg>