<svg id="Capa_1" enable-background="new 0 0 512 512" height="512" viewBox="0 0 512 512" width="512" xmlns="http://www.w3.org/2000/svg"><g><path d="m256 0c-101.378 0-183.855 82.477-183.855 183.855 0 35.88 9.522 73.768 28.303 112.61 14.892 30.798 35.618 62.285 61.604 93.586 44.111 53.133 87.535 86.908 89.362 88.319 1.351 1.043 2.968 1.565 4.586 1.565s3.235-.522 4.586-1.565c1.827-1.412 45.251-35.186 89.362-88.319 25.985-31.301 46.712-62.788 61.604-93.586 18.781-38.842 28.303-76.729 28.303-112.61 0-101.378-82.477-183.855-183.855-183.855zm142.121 289.782c-14.331 29.676-34.354 60.107-59.516 90.448-34.921 42.11-70.261 72.438-82.605 82.578-12.345-10.14-47.684-40.468-82.605-82.578-25.161-30.341-45.185-60.772-59.516-90.448-17.739-36.734-26.734-72.374-26.734-105.927 0-93.107 75.748-168.855 168.855-168.855s168.855 75.748 168.855 168.855c0 33.554-8.995 69.193-26.734 105.927z"/><path d="m288.064 497h-64.129c-4.142 0-7.5 3.358-7.5 7.5s3.358 7.5 7.5 7.5h64.129c4.142 0 7.5-3.358 7.5-7.5s-3.357-7.5-7.5-7.5z"/><path d="m256 48.097c-74.857 0-135.758 60.901-135.758 135.758 0 25.939 7.342 51.157 21.232 72.927 13.517 21.185 32.58 38.191 55.127 49.179 3.723 1.814 8.212.267 10.028-3.457 1.814-3.724.267-8.213-3.457-10.028-3.102-1.512-6.12-3.166-9.068-4.928h123.718c-18.096 10.829-39.243 17.064-61.822 17.064-7.618 0-15.238-.713-22.65-2.12-4.067-.767-7.995 1.901-8.767 5.971s1.901 7.994 5.971 8.767c8.332 1.581 16.893 2.382 25.446 2.382 74.857 0 135.758-60.901 135.758-135.758 0-74.856-60.901-135.757-135.758-135.757zm106.629 192.387h-213.299c-2.925-5.501-5.404-11.206-7.434-17.064h228.197c-2.054 5.909-4.556 11.61-7.464 17.064zm-224.867-32.065c-1.159-5.605-1.921-11.305-2.275-17.064h120.513c4.142 0 7.5-3.358 7.5-7.5v-24.564h110.744c1.153 5.559 1.917 11.257 2.274 17.064h-88.454c-4.142 0-7.5 3.358-7.5 7.5s3.358 7.5 7.5 7.5h88.454c-.358 5.807-1.121 11.506-2.274 17.064zm125.738-145.083c19.758 1.217 38.245 7.204 54.322 16.825h-54.322zm0 80.955v-17.065h99.129c2.908 5.454 5.41 11.155 7.465 17.065zm0-32.065v-17.065h74.358c5.618 5.189 10.745 10.903 15.299 17.064h-89.657zm-83.051-22.501c-.167.621-.264 1.271-.264 1.944 0 4.142 3.358 7.5 7.5 7.5h.09c4.142 0 7.455-3.358 7.455-7.5 0-4.067-3.283-7.371-7.324-7.489 8.802-6.032 18.438-10.929 28.698-14.479-.164.616-.259 1.26-.259 1.928 0 4.142 3.358 7.5 7.5 7.5h.09c4.142 0 7.455-3.358 7.455-7.5 0-2.166-.936-4.112-2.417-5.481 6.334-1.454 12.859-2.401 19.526-2.812v113.019h-113.018c2.154-34.964 19.249-65.946 44.968-86.63zm157.409 182.823h-163.796c-5.604-5.18-10.733-10.883-15.292-17.064h194.387c-4.554 6.162-9.681 11.875-15.299 17.064z"/><path d="m151.705 159.291h.09c4.142 0 7.455-3.358 7.455-7.5s-3.403-7.5-7.545-7.5-7.5 3.358-7.5 7.5 3.358 7.5 7.5 7.5z"/><path d="m223.845 159.291h.09c4.142 0 7.455-3.358 7.455-7.5s-3.403-7.5-7.545-7.5-7.5 3.358-7.5 7.5 3.358 7.5 7.5 7.5z"/><path d="m223.845 119.209h.09c4.142 0 7.455-3.358 7.455-7.5s-3.403-7.5-7.545-7.5-7.5 3.358-7.5 7.5 3.358 7.5 7.5 7.5z"/><path d="m187.775 139.25h.09c4.142 0 7.455-3.358 7.455-7.5s-3.403-7.5-7.545-7.5-7.5 3.358-7.5 7.5 3.358 7.5 7.5 7.5z"/></g></svg>