<svg height="512" viewBox="0 0 128 128" width="512" xmlns="http://www.w3.org/2000/svg"><g id="Layer_2" fill="rgb(0,0,0)" data-name="Layer 2"><path d="m116 10.875h-10.25a1.75 1.75 0 0 0 -1.75 1.75v20h-41.274c.02-.367.036-.734.036-1.1a20.647 20.647 0 0 0 -41.293 0c0 .37.016.737.036 1.1h-19.755a1.75 1.75 0 0 0 -1.75 1.75v81a1.75 1.75 0 0 0 1.75 1.75h114.25a12.013 12.013 0 0 0 12-12v-82.25a12.013 12.013 0 0 0 -12-12zm-102.5 43.808 1.025 1.026 1.827 5.128a1.778 1.778 0 0 0 1.732 1.163l4.713-.227 6.613 4.127-.718 4.175a1.747 1.747 0 0 0 .224 1.2l3.25 5.417a1.748 1.748 0 0 0 1.34.842l-.824 6.28a1.754 1.754 0 0 0 0 .469l1.667 12a1.751 1.751 0 0 0 1.733 1.509h3.73a1.749 1.749 0 0 0 1.726-1.466l1.533-9.3 4.189-5.326 9.949-1.164a1.748 1.748 0 0 0 1.546-1.722l.082-9.42a1.758 1.758 0 0 0 -.371-1.094l-5.082-6.5a1.752 1.752 0 0 0 -1.642-.652l-4.055.615a85.417 85.417 0 0 0 3.885-8.916c.437-1.2.84-2.419 1.192-3.637a20.784 20.784 0 0 0 3.929-3.079h34.993l3.629 3.629v3.415l-6.434 2.419h-6.5l-2.445-2.444a1.747 1.747 0 0 0 -1.878-.391l-4.879 1.923a1.731 1.731 0 0 0 -.6.39l-6.357 6.357a1.746 1.746 0 0 0 -.513 1.237v6.063a1.746 1.746 0 0 0 .513 1.237l4.287 4.287a1.752 1.752 0 0 0 1.237.513h4.754l5.406 5.406v7.48a1.751 1.751 0 0 0 .512 1.238l4.769 4.767a1.748 1.748 0 0 0 2.474 0l6.1-6.1a1.751 1.751 0 0 0 .512-1.238v-2.827l2.3-2.3a1.75 1.75 0 0 0 .513-1.237v-4.872l3.931-3.932a1.748 1.748 0 0 0 0-2.474l-4.457-4.452 2.9-.882.13.13a8.335 8.335 0 0 0 2.41 1.661v29.741a1.75 1.75 0 0 0 1.75 1.75h8.75v7h-101zm20.995 2.717-3.51-2.29 2.418-.314c.353.884.72 1.751 1.092 2.604zm-6.958-11.275a20.784 20.784 0 0 0 3.929 3.075c.2.706.429 1.411.664 2.114.012.036.021.07.034.106l-4.22.548a1.75 1.75 0 0 0 -1.4 2.4l.918 2.25a1.755 1.755 0 0 0 .664.8l5.749 3.75a1.764 1.764 0 0 0 1.33.244l1.048-.23c1.826 3.706 3.49 6.518 4.113 7.544a2.056 2.056 0 0 0 1.745 1.249 1.808 1.808 0 0 0 1.539-.911c.2-.314.962-1.568 2.01-3.464l5.593-.849 4.076 5.213-.063 7.265-9.135 1.071a1.752 1.752 0 0 0 -1.172.656l-4.916 6.25a1.747 1.747 0 0 0 -.351.8l-1.365 8.284h-.72l-1.424-10.255 1.052-8.015a1.751 1.751 0 0 0 -1.735-1.978h-.843l-2.406-4.011.807-4.692a1.749 1.749 0 0 0 -.8-1.781l-8.073-5.046a1.771 1.771 0 0 0 -1.012-.264l-3.963.191-1.52-4.276a1.747 1.747 0 0 0 -.411-.65l-3.779-3.78v-3.608zm76.463 14.812-.811-.812a1.748 1.748 0 0 0 -1.747-.437l-6.692 2.038a1.75 1.75 0 0 0 -.727 2.911l5.277 5.277-3.207 3.207a1.751 1.751 0 0 0 -.512 1.237v4.875l-2.3 2.3a1.752 1.752 0 0 0 -.513 1.238v2.823l-4.348 4.348-3.018-3.017v-7.484a1.752 1.752 0 0 0 -.513-1.237l-6.431-6.432a1.749 1.749 0 0 0 -1.237-.512h-4.743l-3.262-3.26v-4.615l5.584-5.585 3.473-1.369 2.146 2.145a1.75 1.75 0 0 0 1.237.513h7.544a1.749 1.749 0 0 0 .616-.112l7.866-2.957a1.751 1.751 0 0 0 1.134-1.638v-5.353a1.75 1.75 0 0 0 -.513-1.237l-1.666-1.667h7.363zm-41.762-24.812h41.762v6.5h-44.492a20.814 20.814 0 0 0 2.73-6.5zm-20.122-21.75a17.165 17.165 0 0 1 17.146 17.146 17.352 17.352 0 0 1 -8.84 15 1.756 1.756 0 0 0 -.839 1.07 76.772 76.772 0 0 1 -6.175 14.819c-.472.889-.91 1.684-1.293 2.363a94.111 94.111 0 0 1 -5.981-12.633c-.284-.761-.548-1.507-.786-2.231-.017-.052-.033-.1-.049-.155-.242-.744-.462-1.469-.652-2.163a1.751 1.751 0 0 0 -.838-1.07 17.354 17.354 0 0 1 -8.84-15 17.165 17.165 0 0 1 17.147-17.146zm73.884 99.25h-112.5v-77.5h18.493c.012.05.03.1.042.146a20.557 20.557 0 0 0 1.275 3.737l.029.066a20.867 20.867 0 0 0 1.384 2.551h-12.973a1.75 1.75 0 0 0 -1.75 1.75v61a1.75 1.75 0 0 0 1.75 1.75h104.5a1.75 1.75 0 0 0 1.75-1.75v-8.5a8.495 8.495 0 0 1 -2 16.752zm8.092-17.335a12.043 12.043 0 0 0 -8.092-3.165h-8.5v-78.75h8.5a8.51 8.51 0 0 1 8.5 8.5v73.787c-.128-.131-.273-.249-.408-.372z"/><path d="m42.115 41.266a9.744 9.744 0 1 0 -9.743-9.745 9.755 9.755 0 0 0 9.743 9.745zm0-15.988a6.244 6.244 0 1 1 -6.243 6.243 6.251 6.251 0 0 1 6.243-6.243z"/></g></svg>