<?xml version="1.0"?>
<svg xmlns="http://www.w3.org/2000/svg" viewBox="0 0 64 64" width="512" height="512"><g id="Layer_11" data-name="Layer 11"><path d="M58,47.942A27.98,27.98,0,0,0,35,4a28.427,28.427,0,0,0-2.994.164,28,28,0,1,0,.136,55.655l0,.037A28.458,28.458,0,0,0,35,60,27.981,27.981,0,0,0,57.958,48H58ZM58.551,21h-3.8a27.932,27.932,0,0,0-2.121-4h3.592A25.99,25.99,0,0,1,58.551,21Zm.841,2a25.748,25.748,0,0,1,1.121,4H56.544a27.776,27.776,0,0,0-1.036-4ZM61,32c0,.335-.013.668-.025,1h-4c.011-.333.025-.665.025-1a28.044,28.044,0,0,0-.163-3h3.985A26.3,26.3,0,0,1,61,32Zm-4.163,3h3.985a25.826,25.826,0,0,1-1.087,5H55.829A27.757,27.757,0,0,0,56.837,35Zm-1.69,7H59a25.911,25.911,0,0,1-2.1,4H53.233A27.83,27.83,0,0,0,55.147,42Zm-.5-27H51.228a28.167,28.167,0,0,0-2.659-3h3.024A26.3,26.3,0,0,1,54.647,15Zm-5.816-5H46.289A28.067,28.067,0,0,0,41,6.706,25.825,25.825,0,0,1,48.831,10ZM3,32A26,26,0,1,1,29,58,26.03,26.03,0,0,1,3,32ZM46.289,54h2.542A25.825,25.825,0,0,1,41,57.294,28.067,28.067,0,0,0,46.289,54Zm5.3-2H48.569a28.162,28.162,0,0,0,3.389-4h3.513A26.2,26.2,0,0,1,51.593,52Z"/><path d="M29,10A22,22,0,1,0,51,32,22.025,22.025,0,0,0,29,10Zm0,42A20,20,0,1,1,49,32,20.023,20.023,0,0,1,29,52Z"/><path d="M35,43H27.258A6.629,6.629,0,0,0,29,38.5a9.721,9.721,0,0,0-.338-2.5H33a1,1,0,0,0,0-2H27.869c-.114-.217-.215-.441-.346-.65l-2.35-3.76A7.713,7.713,0,0,1,24,25.5a4.5,4.5,0,0,1,9,0V26a1,1,0,0,0,2,0v-.5a6.5,6.5,0,0,0-13,0,9.709,9.709,0,0,0,1.477,5.15L25.57,34H24a1,1,0,0,0,0,2h2.566A7.708,7.708,0,0,1,27,38.5a4.639,4.639,0,0,1-2.577,4.171l-.87.434A1,1,0,0,0,24,45H35a1,1,0,0,0,0-2Z"/><path d="M15,29H13a1,1,0,0,0,0,2h2a1,1,0,0,0,0-2Z"/><path d="M15,33H13a1,1,0,0,0,0,2h2a1,1,0,0,0,0-2Z"/><path d="M43,31h2a1,1,0,0,0,0-2H43a1,1,0,0,0,0,2Z"/><path d="M45,33H43a1,1,0,0,0,0,2h2a1,1,0,0,0,0-2Z"/></g></svg>
