<?xml version="1.0" encoding="iso-8859-1"?>
<!-- Generator: Adobe Illustrator 19.0.0, SVG Export Plug-In . SVG Version: 6.00 Build 0)  -->
<svg version="1.1" id="Capa_1" xmlns="http://www.w3.org/2000/svg" xmlns:xlink="http://www.w3.org/1999/xlink" x="0px" y="0px"
	 viewBox="0 0 512.008 512.008" style="enable-background:new 0 0 512.008 512.008;" xml:space="preserve">
<g>
	<g>
		<path d="M500.475,135.438L376.591,11.575C369.137,4.1,359.245,0.004,348.677,0.004h-0.021c-10.527,0-20.439,4.096-27.873,11.571
			c-12.882,12.861-14.971,32.481-6.287,47.575l-80.404,80.404c-4.608,4.588-10.691,7.516-17.142,8.233l-100.27,11.141
			c-8.786,0.983-17.08,4.956-23.306,11.223c-7.373,7.352-11.448,17.183-11.448,27.607s4.055,20.255,11.448,27.628l89.375,89.375
			L2.995,494.534c-3.994,3.994-3.994,10.465,0,14.479c2.007,1.987,4.628,2.99,7.25,2.99s5.243-1.004,7.25-2.99L197.228,329.24
			l89.395,89.416c7.619,7.619,17.613,11.407,27.628,11.407s20.009-3.789,27.628-11.407c6.246-6.267,10.22-14.541,11.203-23.306
			l11.141-100.311c0.717-6.431,3.625-12.513,8.212-17.101h0.02l80.404-80.404c5.919,3.441,12.657,5.243,19.702,5.243
			c10.527,0,20.439-4.096,27.894-11.551C515.855,175.866,515.855,150.839,500.475,135.438z M485.975,176.746
			c-3.584,3.584-8.356,5.55-13.414,5.55c-5.059,0-9.83-1.966-13.394-5.55c-1.925-1.925-4.526-2.99-7.25-2.99s-5.325,1.065-7.25,2.99
			l-86.692,86.712c-7.885,7.864-12.882,18.289-14.111,29.327l-11.141,100.291c-0.471,4.178-2.355,8.11-5.325,11.08
			c-7.025,7.045-19.292,7.025-26.296,0L107.853,210.907c-3.502-3.502-5.448-8.172-5.448-13.148s1.925-9.626,5.448-13.128
			c2.97-2.99,6.902-4.895,11.08-5.345l100.27-11.141c11.039-1.229,21.463-6.246,29.348-14.09l86.712-86.712
			c3.994-3.994,3.994-10.486,0-14.479c-7.393-7.393-7.393-19.435,0-26.808c3.584-3.584,8.356-5.571,13.394-5.571h0.021
			c5.059,0,9.81,1.987,13.394,5.571l123.904,123.863C493.368,157.331,493.368,169.373,485.975,176.746z"/>
	</g>
</g>
<g>
</g>
<g>
</g>
<g>
</g>
<g>
</g>
<g>
</g>
<g>
</g>
<g>
</g>
<g>
</g>
<g>
</g>
<g>
</g>
<g>
</g>
<g>
</g>
<g>
</g>
<g>
</g>
<g>
</g>
</svg>
