<?xml version="1.0" encoding="iso-8859-1"?>
<!-- Generator: Adobe Illustrator 19.0.0, SVG Export Plug-In . SVG Version: 6.00 Build 0)  -->
<svg version="1.1" id="Capa_1" xmlns="http://www.w3.org/2000/svg" xmlns:xlink="http://www.w3.org/1999/xlink" x="0px" y="0px"
	 viewBox="0 0 64 64" style="enable-background:new 0 0 64 64;" xml:space="preserve">
<g id="Zero-zero">
	<path d="M50.195,8.168H45.27V3.614c0-0.552-0.447-1-1-1s-1,0.448-1,1v4.554h-22.4V3.614c0-0.552-0.447-1-1-1c-0.553,0-1,0.448-1,1
		v4.554h-5.064C6.192,8.168,0,14.361,0,21.973v25.609c0,7.612,6.192,13.804,13.805,13.804h36.391C57.808,61.386,64,55.193,64,47.582
		V21.973C64,14.361,57.808,8.168,50.195,8.168z M2,21.973c0-6.509,5.296-11.804,11.805-11.804h5.064v3.766c0,0.552,0.447,1,1,1
		c0.553,0,1-0.448,1-1v-3.766h22.4v3.766c0,0.552,0.447,1,1,1s1-0.448,1-1v-3.766h4.926C56.704,10.168,62,15.464,62,21.973v3.554H2
		V21.973z M2,47.582V27.527h29.07C31.029,27.636,31,27.751,31,27.875v31.511H13.805C7.296,59.386,2,54.09,2,47.582z M62,47.582
		c0,6.509-5.296,11.804-11.805,11.804H33V27.875c0-0.124-0.029-0.239-0.07-0.348H62V47.582z"/>
	<path d="M17.174,33.614c-3.584,0-6.392,3.955-6.392,9.004c0,5.05,2.808,9.006,6.392,9.006s6.392-3.956,6.392-9.006
		C23.565,37.569,20.758,33.614,17.174,33.614z M17.174,49.625c-2.381,0-4.392-3.208-4.392-7.006c0-3.797,2.011-7.004,4.392-7.004
		c2.381,0,4.392,3.208,4.392,7.004C21.565,46.417,19.555,49.625,17.174,49.625z"/>
	<path d="M46.826,51.625c3.584,0,6.392-3.956,6.392-9.006c0-5.049-2.808-9.004-6.392-9.004c-3.584,0-6.392,3.955-6.392,9.004
		C40.435,47.669,43.242,51.625,46.826,51.625z M46.826,35.614c2.381,0,4.392,3.208,4.392,7.004c0,3.798-2.011,7.006-4.392,7.006
		c-2.381,0-4.392-3.208-4.392-7.006C42.435,38.822,44.445,35.614,46.826,35.614z"/>
</g>
<g>
</g>
<g>
</g>
<g>
</g>
<g>
</g>
<g>
</g>
<g>
</g>
<g>
</g>
<g>
</g>
<g>
</g>
<g>
</g>
<g>
</g>
<g>
</g>
<g>
</g>
<g>
</g>
<g>
</g>
</svg>
