<svg id="Capa_1" enable-background="new 0 0 502.258 502.258" height="512" viewBox="0 0 502.258 502.258" width="512" xmlns="http://www.w3.org/2000/svg"><path d="m494.151 91.114-42.925-42.924c-5.237-5.237-12.199-8.121-19.606-8.121-7.406 0-14.368 2.884-19.605 8.121l-15.906 15.906c-1.066-.366-2.168-.627-3.299-.776-1.007-14.298-2.136-28.709-3.382-42.967-.305-3.484-2.977-6.295-6.44-6.776-121.604-16.886-244.92-16.886-366.522 0-3.466.481-6.138 3.294-6.44 6.779-1.118 12.843-2.123 25.429-2.991 37.408-.299 4.131 2.808 7.723 6.939 8.022 4.124.306 7.723-2.808 8.021-6.939.727-10.045 1.552-20.523 2.459-31.222 116.339-15.618 234.205-15.616 350.542 0 1.155 13.594 2.203 27.292 3.136 40.861-3.044 3.197-4.728 7.362-4.728 11.792 0 1.967.348 3.875.98 5.678l-102.384 102.387c-23.693-26.788-57.261-41.998-93.365-41.998-68.82 0-124.81 55.99-124.81 124.81s55.989 124.81 124.81 124.81c26.013 0 50.94-7.923 72.09-22.914 19.894-14.1 35.029-33.398 43.948-55.925l26.795-14.554c.642-.349 1.218-.782 1.719-1.282.001-.001.002-.001.003-.002l21.65-21.65c2.929-2.929 2.929-7.678 0-10.606-2.929-2.929-7.677-2.929-10.607 0l-18.204 18.203-18.155-6.969-8.714-22.701c-.762-1.984-2.33-3.553-4.314-4.314l-22.702-8.714-6.968-18.154 128.62-128.62 60.854 60.853-89.206 89.207c-2.929 2.929-2.929 7.678 0 10.606 1.465 1.464 3.385 2.197 5.304 2.197s3.839-.732 5.304-2.197l18.406-18.406c.32 77.946-2.852 156.749-9.458 234.603-116.339 15.627-234.203 15.627-350.544 0-10.875-128.131-12.378-257.957-4.465-385.958.256-4.134-2.889-7.693-7.022-7.949-4.166-.263-7.693 2.889-7.948 7.023-8.082 130.732-6.398 263.345 5.004 394.154.304 3.484 2.976 6.296 6.439 6.777 60.802 8.448 122.032 12.672 183.263 12.672 61.229 0 122.46-4.224 183.262-12.672 3.464-.481 6.136-3.293 6.439-6.777 7.425-85.186 10.757-171.554 9.923-256.769l57.103-57.103c1.802.632 3.711.98 5.677.98 4.575 0 8.876-1.781 12.111-5.016 4.802-4.801 6.131-11.763 4.028-17.781l15.882-15.881c10.808-10.811 10.808-28.401-.001-39.212zm-315.516 289.851c-60.549 0-109.81-49.261-109.81-109.81s49.261-109.81 109.81-109.81c32.065 0 61.863 13.631 82.742 37.621l-20.254 20.254c-.502.502-.937 1.08-1.287 1.723l-43.459 80.011c-6.086 11.207-5.074 24.957 2.146 35.147-6.394 1.96-13.047 2.965-19.891 2.965-21.265 0-40.903-9.684-53.881-26.568-2.522-3.283-7.231-3.902-10.517-1.376-3.284 2.524-3.9 7.232-1.376 10.517 15.839 20.608 39.812 32.427 65.773 32.427 11.624 0 22.811-2.349 33.313-6.973 4.322 1.93 9.009 2.927 13.722 2.927 5.408 0 10.848-1.305 15.789-3.989l30.051-16.323c-19.85 31.344-54.848 51.257-92.871 51.257zm34.054-51.245c-5.672-5.672-6.959-14.557-3.13-21.606l8.445-15.548 31.84 31.84-15.549 8.446c-7.049 3.829-15.933 2.54-21.606-3.132zm63.663-63.662 8.714 22.701c.762 1.984 2.33 3.553 4.314 4.314l10.634 4.082-36.423 19.784-38.12-38.12 19.783-36.423 4.082 10.634c.762 1.984 2.33 3.552 4.314 4.314zm187.283-112.677c-.516.515-1.103.623-1.505.623-.401 0-.988-.108-1.503-.623l-.055-.055c-.005-.005-.009-.01-.014-.015s-.01-.009-.015-.014l-71.515-71.515c-.516-.515-.623-1.103-.623-1.504s.107-.989.623-1.504c.515-.515 1.102-.623 1.503-.623.402 0 .989.108 1.504.623l71.529 71.529.069.069c.831.831.831 2.18.002 3.009zm19.908-33.662-14.675 14.675-60.923-60.923 14.676-14.675c2.403-2.404 5.599-3.728 8.998-3.728 3.4 0 6.596 1.324 8.999 3.728l42.925 42.924c4.962 4.963 4.962 13.037 0 17.999z"/><path d="m135.559 252.467c4.143 0 7.5-3.358 7.5-7.5v-34.395c0-4.142-3.357-7.5-7.5-7.5s-7.5 3.358-7.5 7.5v34.395c0 4.142 3.357 7.5 7.5 7.5z"/><path d="m209.261 252.467c4.143 0 7.5-3.358 7.5-7.5v-34.395c0-4.142-3.357-7.5-7.5-7.5s-7.5 3.358-7.5 7.5v34.395c0 4.142 3.357 7.5 7.5 7.5z"/></svg>