<svg height="512" viewBox="0 0 375.33 512" width="512" xmlns="http://www.w3.org/2000/svg"><g id="Layer_2" data-name="Layer 2"><g id="Layer_1-2" data-name="Layer 1"><g id="Korea"><g id="Location"><path d="m375.33 187.66c0 79.34-110 240-161.54 311a32.29 32.29 0 0 1 -52.26 0c-51.53-70.99-161.53-231.66-161.53-311 0-103.66 84-187.66 187.66-187.66s187.67 84 187.67 187.66z" fill="#2497ff"/><circle cx="187.66" cy="187.28" fill="#00407f" r="155.04"/><g fill="#fff"><path d="m244 418.07c-20 29.43-37.7 53.66-47.72 67.08a10.74 10.74 0 0 1 -17.22 0c-10-13.42-27.74-37.65-47.67-67.08l48.66 53a10.33 10.33 0 0 0 15.22 0z"/><path d="m305.89 63.16s-50-44.83-118.23-44.83-118.22 44.83-118.22 44.83 50-53.11 118.22-53.11 118.23 53.11 118.23 53.11z"/></g></g><g id="Flag"><g id="Shape_01" data-name="Shape 01"><rect fill="#fff" height="273.91" rx="136.96" width="273.91" x="50.71" y="50.32"/></g><g id="Symbol"><path d="m228.49 209.1a33.15 33.15 0 0 1 -6.27 9.25 45.37 45.37 0 0 1 -27.46 14.87 46.37 46.37 0 0 1 -52.22-34.86 45.5 45.5 0 0 1 3-30.76c.21-.44.5-.84.75-1.26a6.91 6.91 0 0 1 -.16 1.11 23.64 23.64 0 0 0 -.52 11.81 23.24 23.24 0 0 0 26.26 18.08 23.52 23.52 0 0 0 16-10.33 23.19 23.19 0 0 1 42.13 16.23c-.23 1.66-.64 3.31-1 5l-.24.49z" fill="#0047a0"/><path d="m229 208.2c.33-1.65.74-3.3 1-5a23.19 23.19 0 0 0 -42.13-16.2 23.52 23.52 0 0 1 -16 10.33 23.24 23.24 0 0 1 -26.26-18.08 23.64 23.64 0 0 1 .52-11.81 6.91 6.91 0 0 0 .16-1.11l.25-.48.2-.55a43.31 43.31 0 0 1 8.69-11.51 45.93 45.93 0 0 1 34.28-13c20.59.65 38.86 16 43.27 36.09a46.29 46.29 0 0 1 -3 29.57c-.3.65-.66 1.19-.98 1.75z" fill="#cd2e3a"/><g fill="#020202"><path d="m116.78 112.1 6.44 4.3-25.77 38.65-6.45-4.29z"/><path d="m91 223.81 6.45-4.3 25.77 38.65-6.44 4.3c-8.6-12.89-17.14-25.71-25.78-38.65z"/><path d="m136.11 125 6.44 4.31-25.77 38.65-6.44-4.29z"/><path d="m142.55 245.27-6.44 4.3-25.77-38.65 6.44-4.31z"/><path d="m100.67 157.2c8.61-12.92 17.15-25.72 25.77-38.64l6.45 4.27-25.77 38.66z"/><path d="m274.65 157.21-6.44 4.3-25.77-38.66 6.44-4.3z"/><path d="m270.36 129.82-6.44 4.3-11.81-17.71 6.43-4.31z"/><path d="m266.07 137.35 6.44-4.3 11.81 17.71-6.44 4.3z"/><path d="m284.32 223.8-11.81 17.71-6.44-4.3 11.8-17.71z"/><path d="m114.63 238.3 6.45-4.3 11.81 17.72-6.44 4.28z"/><path d="m258.55 262.45-6.45-4.29c4-5.92 7.87-11.79 11.81-17.72l6.45 4.3z"/><path d="m232.77 129.29 6.44-4.3 11.79 17.71-6.41 4.3z"/><path d="m232.77 245.27 11.81-17.71 6.45 4.29-11.82 17.72c-2.21-1.46-4.21-2.85-6.44-4.3z"/><path d="m265 163.65-6.44 4.3-11.81-17.71 6.43-4.3z"/><path d="m258.54 206.61 6.45 4.3-11.81 17.71-6.45-4.29z"/><path d="m256.4 230.77 11.81-17.71 6.44 4.29c-3.93 5.91-7.83 11.75-11.8 17.71-2.15-1.43-4.26-2.82-6.45-4.29z"/><path d="m118.93 230.78-6.45 4.29-11.81-17.71 6.45-4.3z"/><path d="m254.24 234 6.45 4.29-11.81 17.71-6.44-4.29z"/></g><path d="m146.72 165.36-.2.55z" fill="#01479f"/><path d="m146.53 165.89-.25.48z" fill="#01479f"/><path d="m228.78 208.67.24-.49z" fill="#cc2e3a"/><path d="m228.49 209.1.3-.45z" fill="#cc2e3a"/></g></g></g></g></g></svg>