<svg id="Layer_1" enable-background="new 0 0 512 512" height="512" viewBox="0 0 512 512" width="512" xmlns="http://www.w3.org/2000/svg" xmlns:xlink="http://www.w3.org/1999/xlink"><radialGradient id="SVGID_1_" cx="255.745" cy="329.55" gradientTransform="matrix(1 0 0 -1 0 512)" gradientUnits="userSpaceOnUse" r="139.89"><stop offset=".88" stop-opacity="0"/><stop offset="1" stop-opacity=".3"/></radialGradient><g id="Layer_2_00000103252165346121804250000017906874140421573039_"><g id="South_Korea"><path d="m255.7 512c-13.7 0-26.8-5.9-35.8-16.3-22.2-25.4-43.1-52-62.4-79.7-20.6-29.5-37.4-57.6-51.6-86.1-9.5-18.9-17.5-38.5-24.1-58.6-7.9-24.2-12.4-46.2-13.8-67.4-3-45.3 7.8-86.3 32.1-121.7 27.4-39.9 65.2-65.8 112.3-76.9 14.5-3.5 29.4-5.3 44.4-5.3 25.2.1 50.1 5.2 73.2 15.2 45.6 19.4 79.1 52.6 99.3 98.7 10.3 23.8 15.5 49.4 15.2 75.3-.1 22.4-3.7 45.3-11 70.2-10.6 36.1-26.9 71.9-51.1 112.5-22.4 37.2-47.6 72.5-75.5 105.8-4.6 5.6-9.6 11.4-15.2 17.9-9.1 10.4-22.2 16.4-36 16.4z"/><path d="m434.6 189.2c-.1 22.9-4.1 45.4-10.6 67.4-11.5 39.1-29.3 75.3-50.1 110.2-22.1 36.7-47.1 71.7-74.6 104.5-5 5.9-10 11.9-15.1 17.7-13.6 15.7-37.3 17.4-53 3.9-1.3-1.1-2.6-2.4-3.7-3.7-22-25.2-42.6-51.5-61.8-78.9-19-27-36-55.3-50.8-84.9-9.3-18.5-17.1-37.6-23.6-57.2-6.9-21.1-11.8-42.7-13.3-64.9-2.8-41.8 6.5-80.7 30.3-115.4 26-37.9 61.6-62.3 106.3-72.8 38.1-9 75.5-6 111.6 9.4 43.8 18.6 75 50.1 94 93.5 9.7 22.4 14.6 46.7 14.4 71.2z" fill="#d9d9d9"/><path d="m434.6 189.2c-.1 22.9-4.1 45.4-10.6 67.4-11.5 39.1-29.3 75.3-50.1 110.2-22.1 36.7-47.1 71.7-74.6 104.5-5 5.9-10 11.9-15.1 17.7-6.2 7.2-15 11.8-24.4 12.8v-491.8c22.9.4 45.4 5.3 66.5 14.4 43.8 18.6 75 50.1 94 93.5 9.6 22.5 14.5 46.8 14.3 71.3z" fill="#bfbfbf"/><circle cx="255.8" cy="182.4" fill="#999" r="154.5"/><circle cx="255.8" cy="182.4" fill="#fff" r="139.9"/><path d="m289.7 148.5c-18.8-18.7-49.2-18.7-67.9 0s-18.7 49.2 0 67.9 49.1 18.7 67.8 0c18.8-18.8 18.8-49.1.1-67.9z" fill="#ff0059"/><path d="m326.3 133.7c2.8 2.9 7.4 3.1 10.3.3s3.1-7.4.3-10.3c-.1-.1-.2-.2-.3-.3l-16.9-16.9c-2.9-2.8-7.5-2.6-10.3.3-2.7 2.8-2.7 7.2 0 10z"/><path d="m307.2 151.4c2.9 2.8 7.5 2.8 10.3 0 2.8-2.9 2.8-7.5 0-10.3l-15.8-15.7c-2.9-2.8-7.5-2.6-10.3.3-2.7 2.8-2.7 7.2 0 10z"/><path d="m180 135.8c1.9 0 3.8-.8 5.2-2.1l16.9-16.9c2.8-2.9 2.6-7.5-.3-10.3-2.8-2.7-7.2-2.7-10 0l-16.9 16.9c-2.8 2.9-2.8 7.5 0 10.3 1.3 1.4 3.2 2.1 5.1 2.1z"/><path d="m209.7 125.3-15.7 15.8c-2.9 2.8-2.9 7.5 0 10.3 2.8 2.9 7.5 2.9 10.3 0l15.8-15.8c2.8-2.9 2.6-7.5-.3-10.3-2.8-2.6-7.2-2.6-10.1 0z"/><path d="m326.3 231.2-16.9 16.9c-2.9 2.8-2.9 7.5 0 10.3 2.8 2.9 7.5 2.9 10.3 0l16.9-16.9c2.9-2.8 2.9-7.5 0-10.3-2.8-2.9-7.4-2.9-10.3 0z"/><path d="m317.5 213.5c-2.9-2.8-7.5-2.8-10.3 0l-15.8 15.7c-2.9 2.8-3.1 7.4-.3 10.3s7.4 3.1 10.3.3c.1-.1.2-.2.3-.3l15.8-15.7c2.9-2.9 2.9-7.5 0-10.3z"/><path d="m185.2 231.2c-2.9-2.8-7.5-2.8-10.3 0-2.8 2.9-2.8 7.5 0 10.3l16.9 16.9c2.9 2.8 7.5 2.8 10.3 0 2.8-2.9 2.8-7.5 0-10.3z"/><path d="m204.3 213.5c-2.8-2.9-7.5-2.9-10.3 0s-2.9 7.5 0 10.3l15.8 15.7c2.9 2.8 7.5 2.6 10.3-.3 2.7-2.8 2.7-7.2 0-10z"/><path d="m292.7 181.8c-10-10-26.3-10-36.4 0l-1.2 1.2c-10 10-26.3 10-36.4 0-5-4.9-7.7-11.7-7.5-18.7-10 24.5 1.7 52.6 26.3 62.6 17.9 7.3 38.5 3.2 52.2-10.6 4.5-4.5 8.1-9.9 10.5-15.9.2-6.9-2.5-13.7-7.5-18.6z" fill="#3c64c7"/><path d="m255.8 42.6c-77.3 0-139.9 62.6-139.9 139.9s62.6 139.9 139.9 139.9 139.9-62.6 139.9-139.9c-.1-77.3-62.7-139.9-139.9-139.9zm0 263.4c-68.2 0-123.6-55.3-123.6-123.6s55.3-123.5 123.5-123.5 123.6 55.3 123.6 123.6c-.1 68.2-55.3 123.4-123.5 123.5z" fill="url(#SVGID_1_)"/></g></g></svg>