<svg id="Layer_1" height="512" viewBox="0 0 512 512" width="512" xmlns="http://www.w3.org/2000/svg" data-name="Layer 1"><path d="m256 47.22c-70.848 0-128.5 57.645-128.5 128.5s57.65 128.5 128.5 128.5a128.5 128.5 0 0 0 0-257zm119.949 116.963h-128.979v-21.338h124.969a119.394 119.394 0 0 1 4.006 21.34zm-27.572-65.754a121.647 121.647 0 0 1 14.323 21.346l-115.726-.006v-21.34zm-105.408-8a4.015 4.015 0 0 0 -4 4.006v29.338a4.006 4.006 0 0 0 4 4l123.574-.005q1.512 3.482 2.816 7.073h-126.39a4.01 4.01 0 0 0 -4 4v29.336a4 4 0 0 0 4 4h133.479c.027 1.171.047 2.353.047 3.535s-.02 2.36-.05 3.535h-240.886q-.061-1.756-.064-3.531c0-1.185.02-2.36.06-3.535h92.345a4 4 0 0 0 4-4v-110.543c2.34-.477 4.7-.876 7.066-1.214v22.931a4.006 4.006 0 0 0 4 4.007h90.342q4.023 3.36 7.739 7.072l-98.077-.007zm128.97 118.16h-231.88a120.022 120.022 0 0 1 -4-21.335h239.894a119.52 119.52 0 0 1 -4.014 21.343zm-5.4 15.075h-221.08q-1.519-3.481-2.824-7.07h226.721q-1.3 3.591-2.817 7.073zm-18.162 29.336h-184.752a120.766 120.766 0 0 1 -14.33-21.332l213.4-.007a121.333 121.333 0 0 1 -14.32 21.339v-.008zm-15.07 15.074h-154.62q-4.017-3.374-7.732-7.074h170.092q-3.72 3.7-7.74 7.074zm-169.97-104.583.729.692h-1.4l.67-.692zm159.291-88.128h-75.658v-19.809q4.469-.338 9.025-.335a119.74 119.74 0 0 1 66.63 20.147zm-156.109 19.737a3.788 3.788 0 0 0 .6.764 4.009 4.009 0 0 0 5.66-.088l1.3-1.35 1.84 1.737a4 4 0 0 0 5.5-5.818l-.807-.77 2.021-1.17a3.99 3.99 0 0 0 1.457-5.463 3.919 3.919 0 0 0 -2.571-1.885c1.91-1.509 3.871-2.945 5.86-4.333a4 4 0 0 0 6.211 4.984l1.31-1.349 1.84 1.737a4 4 0 0 0 5.489-5.817l-.809-.771 2.03-1.171a4 4 0 0 0 1.459-5.46 3.925 3.925 0 0 0 -1.589-1.516 119.392 119.392 0 0 1 20.58-7.794v13.932a3.833 3.833 0 0 0 -.553.257l-.446.257.036-1.152a4 4 0 0 0 -8-.249l-.037 1.22-.252-.162a4 4 0 1 0 -4.37 6.7l2.152 1.4-.68.711a4 4 0 1 0 5.738 5.567l1.314-1.355 1.836 1.737a3.992 3.992 0 0 0 2.749 1.1c.171-.008.341-.029.51-.051v17.6a4.043 4.043 0 0 0 -1.013.4l-.449.256.04-1.152a4 4 0 0 0 -8-.249l-.036 1.222-.252-.162a4 4 0 1 0 -4.372 6.7l2.154 1.4-.68.711a4 4 0 1 0 5.737 5.567l1.31-1.356 1.841 1.738a3.987 3.987 0 0 0 2.749 1.1 4.378 4.378 0 0 0 .969-.135v41.067h-19.846a4.1 4.1 0 0 0 -.654-.827l-.809-.765 2.03-1.17a4 4 0 0 0 -4.011-6.926l-.449.256.041-1.152a4 4 0 0 0 -8-.248l-.027 1.22-.261-.161a4 4 0 0 0 -4.373 6.7l2.154 1.4-.679.711a3.95 3.95 0 0 0 -.674.965h-16.89a3.982 3.982 0 0 0 -.781-4.768l-.807-.766 2.029-1.18a3.995 3.995 0 0 0 -4-6.916l-.449.257.04-1.152a4 4 0 0 0 -8-.25l-.039 1.222-.248-.162a4 4 0 1 0 -4.373 6.7l2.155 1.4-.684.712a4 4 0 0 0 -.511 4.906h-19.717a119.546 119.546 0 0 1 5.107-25 4.165 4.165 0 0 0 1.02.977l2.153 1.4-.679.711a4 4 0 1 0 5.746 5.567l1.3-1.355 1.84 1.737a4 4 0 1 0 5.5-5.812l-.806-.768 2.016-1.17a4 4 0 0 0 -4-6.925l-.451.256.041-1.152a4 4 0 0 0 -8-.248l-.036 1.221-.252-.162a3.961 3.961 0 0 0 -3.212-.5 119.56 119.56 0 0 1 8.5-17.785 4 4 0 0 0 3.581-1.153l1.31-1.354 1.84 1.737a4 4 0 0 0 5.49-5.813l-.81-.765 2.03-1.18a3.988 3.988 0 0 0 -2.321-7.43c1.151-1.4 2.34-2.769 3.55-4.113zm22.86 180.972h133.249a120.236 120.236 0 0 1 -133.253 0zm2.709-186.292a3.985 3.985 0 0 1 5.527-1.161l.264.162.036-1.223a4 4 0 1 1 7.991.252l-.03 1.152.441-.261a4 4 0 0 1 4.009 6.928l-2.026 1.171.81.765a4 4 0 1 1 -5.491 5.817l-1.84-1.739-1.309 1.349a4 4 0 1 1 -5.742-5.564l.684-.709-2.16-1.4a4 4 0 0 1 -1.164-5.534zm-17.019 14.95a3.982 3.982 0 0 1 5.526-1.164l.261.165.04-1.233a4 4 0 0 1 7.989.258l-.028 1.145.441-.251a4 4 0 1 1 4.008 6.924l-2.028 1.167.81.765a4 4 0 0 1 -5.493 5.823l-1.838-1.738-1.309 1.351a4 4 0 0 1 -5.752-5.566l.689-.708-2.16-1.4a3.992 3.992 0 0 1 -1.156-5.535zm-7.069 8.847a4.005 4.005 0 0 1 3.866 4.126l-.036 1.148.45-.262a4 4 0 0 1 4.006 6.933l-2.026 1.168.81.765a4 4 0 1 1 -5.494 5.821l-1.837-1.745-1.309 1.351a4 4 0 1 1 -5.754-5.56l.682-.7-2.151-1.405a4 4 0 0 1 4.369-6.7l.262.158.031-1.225a3.986 3.986 0 0 1 4.131-3.87zm42.017 9.719a4.007 4.007 0 0 1 -1.461 5.466l-2.027 1.168.81.764a4 4 0 0 1 -5.493 5.823l-1.837-1.745-1.31 1.359a4 4 0 0 1 -5.752-5.569l.69-.7-2.16-1.4a4 4 0 0 1 4.379-6.7l.251.166.041-1.232a4 4 0 1 1 7.988.256l-.028 1.148.441-.261a4 4 0 0 1 5.468 1.466zm-18.329 14.356a4.014 4.014 0 0 1 -1.462 5.468l-2.03 1.174.815.756a4.007 4.007 0 0 1 -5.5 5.824l-1.84-1.739-1.3 1.351a4 4 0 1 1 -5.75-5.566l.683-.708-2.151-1.4a4 4 0 0 1 4.369-6.7l.262.164.031-1.224a4 4 0 1 1 8 .25l-.04 1.144.455-.251a4 4 0 0 1 5.465 1.461zm21.479-2.88a4.01 4.01 0 0 1 3.88 4.128l-.037 1.145.45-.251a4 4 0 0 1 4 6.925l-2.016 1.166.81.765a4.006 4.006 0 0 1 -5.5 5.822l-1.836-1.737-1.3 1.351a4 4 0 0 1 -5.754-5.566l.682-.708-2.151-1.4a4 4 0 1 1 4.37-6.7l.252.165.04-1.233a3.986 3.986 0 0 1 4.117-3.865zm190.952-64.521c34.34 46.159 43.605 107.627 25.4 168.656-31.071 104.182-129.59 224.72-170.5 271.718a4 4 0 0 1 -6.029 0c-40.925-46.988-139.441-167.54-170.515-271.713-18.19-61.024-8.926-122.5 25.4-168.657a168.256 168.256 0 0 1 61.78-51.1c25.9-12.648 54.954-19.096 86.33-19.155h.021c31.379.059 60.43 6.5 86.329 19.158a168.215 168.215 0 0 1 61.784 51.093z" fill-rule="evenodd"/></svg>