<svg id="Layer_1" enable-background="new 0 0 520 520" height="512" viewBox="0 0 520 520" width="512" xmlns="http://www.w3.org/2000/svg" xmlns:xlink="http://www.w3.org/1999/xlink"><radialGradient id="SVGID_1_" cx="259.74" cy="338.25" gradientTransform="matrix(1 0 0 -1 0 522)" gradientUnits="userSpaceOnUse" r="145"><stop offset=".88" stop-opacity="0"/><stop offset="1" stop-opacity=".3"/></radialGradient><g><g id="United_Kingdom"><path d="m445.1 190.7c-.1 23.8-4.3 47.1-11 69.9-11.9 40.5-30.4 78.1-52 114.2-22.9 38.1-48.7 74.3-77.2 108.3-5.2 6.2-10.4 12.3-15.7 18.4-14.1 16.3-38.7 18.1-55 4-1.4-1.2-2.6-2.5-3.8-3.8-22.8-26.1-44.2-53.4-64-81.8-19.7-28-37.3-57.4-52.7-88-9.6-19.1-17.8-39-24.4-59.3-7.2-21.9-12.4-44.2-13.9-67.3-2.9-43.3 6.8-83.6 31.5-119.6 26.9-39.3 63.8-64.6 110.2-75.5 39.5-9.3 78.2-6.2 115.6 9.7 45.4 19.3 77.7 51.9 97.5 97 10.3 23.5 15 48.3 14.9 73.8z" fill="#d9d9d9"/><path d="m445.1 190.7c-.1 23.8-4.3 47.1-11 69.9-11.9 40.5-30.4 78.1-52 114.2-22.9 38.1-48.7 74.3-77.2 108.3-5.2 6.2-10.4 12.3-15.7 18.4-6.5 7.5-15.5 12.2-25.4 13.3v-509.8c23.7.4 47.1 5.5 68.9 14.9 45.4 19.3 77.7 51.9 97.5 97 10.3 23.5 15 48.3 14.9 73.8z" fill="#bfbfbf"/><circle cx="259.7" cy="183.8" fill="#999" r="160.1"/><path d="m404.7 183.8c0 80.1-64.9 145-144.9 145h-1.6c-7-.1-14.1-.7-21-1.7-5.7-.9-11.3-2.1-16.9-3.7-25.9-7.3-49.2-21.7-67.4-41.5-3.9-4.2-7.6-8.7-11-13.4-46.8-65-32-155.6 33-202.4 24.7-17.8 54.3-27.3 84.8-27.3h.1c80.1 0 145 64.9 144.9 145z" fill="#fff"/><path d="m223.1 140.6v6.5h-21.1l-59.2-49.2c3.6-5 7.6-9.7 11.9-14.2z" fill="#c8102e"/><path d="m376.8 98.2-58.9 49h-21.6v-6.1l68.7-57.1.2.2c4 4.2 7.7 8.6 11.1 13.2z" fill="#c8102e"/><path d="m223.1 220.3v6.5l-68.4 56.9c-.6-.6-1.2-1.3-1.8-1.9-3.6-3.9-7-8-10.1-12.3l59.2-49.3h21.1z" fill="#c8102e"/><path d="m376.8 269.3c-3.6 5-7.6 9.7-11.9 14.2l-68.6-57.1v-6.1h21.7z" fill="#c8102e"/><g fill="#012169"><path d="m172.6 147.1h-53.3c3-11.6 7.5-22.8 13.3-33.3z"/><path d="m171.4 220.3-39.2 32.6c-5.6-10.3-9.9-21.2-12.9-32.6z"/><path d="m223.1 251v73.1c-.9-.2-1.8-.5-2.8-.8-19-5.4-36.7-14.5-52-27z"/><path d="m223.1 43.4v72l-53.9-44.9c15.9-12.7 34.3-22 53.9-27.1z"/><path d="m351.1 71.2-54.8 45.4v-73.2l.8.2c19.8 5.3 38.2 14.7 54 27.6z"/><path d="m400.1 147.1h-51.9l39.1-32.5c5.5 10.3 9.8 21.2 12.8 32.5z"/><path d="m351.5 296c-16.2 13.2-35 22.8-55.2 28.1v-74z"/><path d="m400.1 220.3c-2.9 11.1-7.1 21.8-12.5 31.9l-38.3-31.9z"/></g><path d="m404.7 182.2v2.9c-.1 6.8-.6 13.5-1.6 20.2h-121.8v121.8c-6.6 1-13.4 1.5-20.1 1.6h-3c-6.7-.1-13.4-.6-20.1-1.6v-121.8h-121.8c-1-6.7-1.5-13.4-1.6-20.1 0-.9 0-1.9 0-2.9.1-6.8.6-13.5 1.6-20.2h121.8v-121.8c6.3-.9 12.7-1.5 19.1-1.6h4.7c6.1.1 12.2.6 18.2 1.4l1.1.2v121.8h121.8c1.1 6.7 1.7 13.4 1.7 20.1z" fill="#c8102e"/><path d="m259.7 38.8c-80.1 0-145 64.9-145 145s64.9 145 145 145 145-64.9 145-145-64.9-145-145-145zm0 273c-70.7 0-128.1-57.3-128.1-128.1s57.4-128 128.1-128 128.1 57.3 128.1 128.1c0 70.7-57.3 128-128.1 128z" fill="url(#SVGID_1_)"/></g></g></svg>