<svg id="Layer_1" height="512" viewBox="0 0 512 512" width="512" xmlns="http://www.w3.org/2000/svg" data-name="Layer 1"><path d="m256 47.22a128.5 128.5 0 1 0 128.5 128.5 128.643 128.643 0 0 0 -128.5-128.5zm93.844 53-50.723 29.43v-66.45a121.069 121.069 0 0 1 50.723 37.02zm7.682 10.66-39.726 22.23a4 4 0 0 0 1.953 7.49h34.6a4.013 4.013 0 0 0 2-.539l12.305-7.109a118.424 118.424 0 0 1 5.15 17.389h-92.428v-92.421q4.946 1.065 9.74 2.521v76.159a4 4 0 0 0 6.007 3.46l57.564-33.4c.972 1.39 1.921 2.79 2.835 4.22zm8 14.64-12.255 7.08h-18.18l26.526-14.839c1.39 2.53 2.7 5.12 3.91 7.76zm-222.08 7.171 12.763 7.368a4.019 4.019 0 0 0 2 .541h34.6a4 4 0 0 0 1.953-7.489l-40.137-22.459q1.3-2.026 2.686-3.991l57.564 33.4a4 4 0 0 0 6.007-3.459v-76.162q4.788-1.456 9.74-2.52v92.42h-92.422a119.2 119.2 0 0 1 5.25-17.649zm7.07-15.172 26.946 15.08h-18.18l-12.7-7.33q1.83-3.959 3.933-7.75zm62.362-54.319v66.45l-50.724-29.43a121.066 121.066 0 0 1 50.724-37.02zm17.742 230.319q-5.262-1.14-10.348-2.709v-75.971a4 4 0 0 0 -6.007-3.459l-57.132 33.139c-.858-1.23-1.7-2.469-2.514-3.729l40.14-22.46a4 4 0 0 0 -1.954-7.49h-34.594a4.006 4.006 0 0 0 -2 .53l-12.763 7.37a119.554 119.554 0 0 1 -5.25-17.64h92.422zm-84.036-67.349 12.7-7.33h18.18l-26.947 15.07c-1.4-2.521-2.712-5.11-3.932-7.74zm15.376 24.8 50.312-29.19v66.22a121.052 121.052 0 0 1 -50.312-37.03zm76.659 43.989v-97.859a4 4 0 0 0 -4-4h-97.862a120.686 120.686 0 0 1 0-34.76h97.862a4 4 0 0 0 4-4v-97.859a120.4 120.4 0 0 1 34.76 0v97.859a4 4 0 0 0 4 4h97.859a120.551 120.551 0 0 1 0 34.761h-97.858a4 4 0 0 0 -4 4v97.859a120.409 120.409 0 0 1 -34.761 0zm129.928-76.219-12.759-7.37a4 4 0 0 0 -2-.53h-34.596a4 4 0 0 0 -1.953 7.49l40.14 22.46c-.868 1.34-1.768 2.67-2.688 3.98l-57.564-33.39a4 4 0 0 0 -6.007 3.46v76.151q-4.788 1.467-9.741 2.529v-92.42h92.421a117.972 117.972 0 0 1 -5.251 17.64zm-7.06 15.17-26.952-15.07h18.18l12.7 7.33c-1.221 2.629-2.531 5.22-3.931 7.74zm-62.366 54.321v-66.451l50.724 29.429a121 121 0 0 1 -50.724 37.022zm105-217.981c34.339 46.16 43.6 107.64 25.4 168.66-31.06 104.18-129.585 224.73-170.5 271.72a4.007 4.007 0 0 1 -6.034 0c-40.916-46.99-139.437-167.541-170.5-271.72-18.193-61.02-8.934-122.5 25.4-168.66a168.085 168.085 0 0 1 61.782-51.09c25.892-12.66 54.938-19.101 86.322-19.16h.016c31.385.06 60.429 6.5 86.328 19.16a168.106 168.106 0 0 1 61.783 51.09z" fill-rule="evenodd"/></svg>