<svg height="512" viewBox="0 0 375.33 512" width="512" xmlns="http://www.w3.org/2000/svg"><g id="Layer_2" data-name="Layer 2"><g id="Layer_1-2" data-name="Layer 1"><g id="United_Kingdom" data-name="United Kingdom"><g id="Location"><path d="m375.33 187.66c0 79.34-110 240-161.54 311a32.29 32.29 0 0 1 -52.26 0c-51.53-70.99-161.53-231.66-161.53-311 0-103.66 84-187.66 187.66-187.66s187.67 84 187.67 187.66z" fill="#2497ff"/><circle cx="187.66" cy="187.28" fill="#00407f" r="155.04"/><g fill="#fff"><path d="m244 418.07c-20 29.43-37.7 53.66-47.72 67.08a10.74 10.74 0 0 1 -17.22 0c-10-13.42-27.74-37.65-47.67-67.08l48.66 53a10.33 10.33 0 0 0 15.22 0z"/><path d="m305.89 63.16s-50-44.83-118.23-44.83-118.22 44.83-118.22 44.83 50-53.11 118.22-53.11 118.23 53.11 118.23 53.11z"/></g></g><g id="Flag"><g id="Shape_01" data-name="Shape 01"><rect fill="#012169" height="273.91" rx="136.95" width="273.91" x="50.71" y="50.32"/></g><path d="m324.62 187.28a137 137 0 0 0 -6.82-42.8h-51.44l34.43-34.41a137.77 137.77 0 0 0 -35.89-35.9l-55.83 55.83v-78a137.95 137.95 0 0 0 -42.8 0v78l-55.84-55.84a137.53 137.53 0 0 0 -35.89 35.89l34.46 34.42h-51.47a137.71 137.71 0 0 0 0 85.6h51.47l-34.46 34.43a137.82 137.82 0 0 0 35.89 35.9l55.83-55.83v78a138.77 138.77 0 0 0 42.8 0v-78l55.83 55.82a137.86 137.86 0 0 0 35.88-35.88l-34.43-34.43h51.46a137 137 0 0 0 6.82-42.8z" fill="#fff"/><g fill="#c8102e"><path d="m164 230.07-63.16 63.14q-5.24-4.31-10-9.09l54.05-54.05z"/><path d="m293.61 274.07q-4.31 5.25-9.1 10.05l-54-54.05h19.09z"/><path d="m284.5 90.43-54 54h-19.17l63.13-63.13a135.15 135.15 0 0 1 10.04 9.13z"/><path d="m144.86 144.47h-19.15l-44-44q4.31-5.23 9.1-10z"/><path d="m324.62 187.28a138.25 138.25 0 0 1 -2.4 25.67h-121.72v110.69q-6.34.58-12.84.59t-12.83-.59v-110.64h-121.72a138.48 138.48 0 0 1 0-51.34h121.72v-110.74c4.22-.39 8.5-.6 12.83-.6s8.61.21 12.84.6v110.69h121.72a138.17 138.17 0 0 1 2.4 25.67z"/></g></g></g></g></g></svg>