<?xml version="1.0" encoding="UTF-8"?>
<svg xmlns="http://www.w3.org/2000/svg" id="Layer_1" data-name="Layer 1" viewBox="0 0 512 512" width="512" height="512"><path d="M404.117,70.25a168.1,168.1,0,0,0-61.782-51.09C316.436,6.5,287.392.06,256.007,0h-.016c-31.385.059-60.43,6.5-86.328,19.16a168.085,168.085,0,0,0-61.782,51.09c-34.337,46.16-43.6,107.64-25.4,168.66,31.067,104.179,129.588,224.73,170.5,271.72a4.007,4.007,0,0,0,6.034,0c40.916-46.99,139.441-167.54,170.5-271.72,18.2-61.02,8.94-122.5-25.4-168.66Zm17.741,166.379C391.968,336.84,298.2,453.05,256,501.9,213.8,453.049,120.03,336.84,90.144,236.63,72.68,178.039,81.483,119.14,114.3,75.031,146.368,31.92,196.692,8.12,256,8c59.308.119,109.628,23.92,141.7,67.031,32.82,44.108,41.62,103.009,24.161,161.6ZM256,47.22a128.5,128.5,0,1,1-128.5,128.5A128.641,128.641,0,0,1,256,47.22Zm101.526,63.66L317.8,133.11a4,4,0,0,0,1.953,7.49h34.594a4.014,4.014,0,0,0,2-.539l12.305-7.109a118.424,118.424,0,0,1,5.15,17.389H281.38V57.92q4.946,1.065,9.74,2.521V136.6a4,4,0,0,0,6.007,3.46l57.564-33.4c.972,1.39,1.921,2.79,2.835,4.22Zm8,14.64L353.27,132.6H335.09l26.527-14.839c1.39,2.53,2.7,5.12,3.91,7.76Zm-222.08,7.171,12.763,7.368a4.016,4.016,0,0,0,2,.541h34.6a4,4,0,0,0,1.953-7.488l-40.137-22.46q1.3-2.026,2.686-3.991l57.564,33.4a4,4,0,0,0,6.007-3.459V60.44q4.788-1.456,9.74-2.52v92.42H138.2a119.081,119.081,0,0,1,5.25-17.649Zm7.07-15.172,26.946,15.08h-18.18l-12.7-7.33q1.83-3.959,3.933-7.75Zm80.1,176q-5.262-1.14-10.348-2.709V214.839a4,4,0,0,0-6.007-3.459l-57.132,33.139q-1.289-1.844-2.514-3.729l40.139-22.46a4,4,0,0,0-1.953-7.49H158.211a4.006,4.006,0,0,0-2,.53l-12.763,7.37a119.554,119.554,0,0,1-5.25-17.64H230.62v92.419ZM146.584,226.17l12.7-7.33h18.18l-26.947,15.07c-1.4-2.521-2.712-5.11-3.932-7.74Zm92.035,68.789V197.1a4,4,0,0,0-4-4H136.757a120.686,120.686,0,0,1,0-34.76h97.862a4,4,0,0,0,4-4V56.481a120.4,120.4,0,0,1,34.76,0V154.34a4,4,0,0,0,4,4h97.859a120.551,120.551,0,0,1,0,34.761H277.38a4,4,0,0,0-4,4v97.859a120.409,120.409,0,0,1-34.761,0ZM368.547,218.74l-12.759-7.37a4,4,0,0,0-2-.53H319.192a4,4,0,0,0-1.953,7.49l40.14,22.46c-.869,1.339-1.768,2.67-2.688,3.98l-57.564-33.39a4,4,0,0,0-6.007,3.46v76.151q-4.788,1.467-9.741,2.529V201.1H373.8a117.972,117.972,0,0,1-5.251,17.64Zm-7.06,15.17-26.952-15.07h18.18l12.7,7.33C364.2,228.8,362.887,231.39,361.487,233.91Z" style="fill-rule:evenodd"/></svg>
