<svg id="Icons" height="512" viewBox="0 0 60 60" width="512" xmlns="http://www.w3.org/2000/svg"><path d="m3.111 57.5a.5.5 0 0 1 -.261-.926l23.757-14.6-24.327 14.046a.5.5 0 0 1 -.509-.86l18.68-11.36-18.171 10.486a.5.5 0 0 1 -.508-.861l10.138-6.109-9.63 5.56a.5.5 0 0 1 -.509-.86l16.361-9.923-15.852 9.151a.5.5 0 0 1 -.511-.858l21.531-13.211-21.02 12.137a.5.5 0 0 1 -.508-.861l6.751-4.074-6.243 3.6a.5.5 0 0 1 -.511-.858l16.788-10.307-16.277 9.396a.5.5 0 0 1 -.51-.859l11.791-7.212-11.281 6.511a.5.5 0 0 1 -.514-.856l17.661-11.037-17.147 9.899a.5.5 0 0 1 -.514-.857l13.228-8.232-12.714 7.34a.5.5 0 0 1 -.519-.853l17.039-10.936-16.52 9.54a.5.5 0 0 1 -.518-.854l12.416-7.911-11.898 6.869a.5.5 0 0 1 -.517-.856l8.137-5.146-7.616 4.4a.5.5 0 0 1 -.513-.857l1-.624-.491.282a.5.5 0 0 1 -.52-.853l6.678-4.3-6.158 3.552a.5.5 0 0 1 -.532-.844l9.567-6.551-9.035 5.216a.5.5 0 0 1 -.528-.848l5.2-3.49-4.669 2.7a.5.5 0 0 1 -.53-.847l3.268-2.211-2.741 1.577a.5.5 0 0 1 -.539-.841l3.339-2.365-2.8 1.617a.5.5 0 0 1 -.538-.841l1-.706-.461.266a.5.5 0 0 1 -.578-.811l2.666-2.314-2.089 1.206a.5.5 0 0 1 -.626-.762l1.346-1.539-.72.415a.5.5 0 0 1 -.734-.559l.274-1.053a.491.491 0 0 1 -.222-.2.5.5 0 0 1 .182-.683l.5-.289a.5.5 0 0 1 .553.035.5.5 0 0 1 .182.524l-.2.766 2.3-1.327a.5.5 0 0 1 .626.762l-1.348 1.539 3.989-2.3a.5.5 0 0 1 .578.811l-2.667 2.307 5.416-3.126a.5.5 0 0 1 .538.841l-.995.7 2.678-1.543a.5.5 0 0 1 .539.842l-3.337 2.368 5.552-3.206a.5.5 0 0 1 .53.847l-3.271 2.212 5.3-3.061a.5.5 0 0 1 .528.849l-5.2 3.489 7.516-4.339a.5.5 0 0 1 .532.846l-9.568 6.551 12.815-7.4a.5.5 0 0 1 .521.854l-6.682 4.3 8.93-5.155a.5.5 0 0 1 .513.857l-.983.612 2.547-1.47a.5.5 0 0 1 .517.855l-8.129 5.147 10.4-6.008a.5.5 0 0 1 .519.855l-12.41 7.907 15.179-8.764a.5.5 0 0 1 .52.854l-17.051 10.94 20.431-11.8a.5.5 0 0 1 .515.858l-13.216 8.228 15.733-9.084a.5.5 0 0 1 .514.857l-17.672 11.044 20.616-11.9a.5.5 0 0 1 .51.86l-11.788 7.212 13.987-8.076a.5.5 0 0 1 .512.86l-16.785 10.305 19.342-11.167a.5.5 0 0 1 .508.862l-6.736 4.069 8.533-4.928a.5.5 0 0 1 .511.86l-21.539 13.21 23.488-13.561a.5.5 0 0 1 .509.861l-16.376 9.932 15.868-9.161a.5.5 0 0 1 .507.861l-10.108 6.091 9.6-5.543a.5.5 0 0 1 .509.86l-18.669 11.359 18.163-10.487a.5.5 0 0 1 .511.859l-23.78 14.613 23.271-13.435a.5.5 0 0 1 .513.858l-24.233 15.033 23.722-13.695a.5.5 0 0 1 .507.861l-2.11 1.271 1.6-.926a.5.5 0 0 1 .511.859l-14.575 8.948 14.068-8.122a.5.5 0 0 1 .512.859l-11.541 7.086 11.03-6.367a.5.5 0 0 1 .519.854l-19.529 12.413 19.012-10.976a.5.5 0 0 1 .518.855l-15.038 9.515 14.522-8.385a.5.5 0 0 1 .52.854l-14.121 9.047 13.6-7.853a.5.5 0 0 1 .525.85l-13.841 9.086 13.32-7.69a.5.5 0 0 1 .522.853l-8.946 5.792 8.425-4.863a.5.5 0 0 1 .531.847l-9.9 6.684 9.372-5.41a.5.5 0 0 1 .53.848l-6.423 4.314 5.895-3.4a.5.5 0 0 1 .523.852l-.5.322a.5.5 0 0 1 .512.855l-4.734 3.356 4.2-2.423a.5.5 0 0 1 .539.841l-2.16 1.527 1.622-.935a.5.5 0 0 1 .585.8l-3.53 3.183 2.947-1.7a.5.5 0 0 1 .575.812l-.648.556.074-.043a.5.5 0 0 1 .618.771l-.414.45a.506.506 0 0 1 .364.112.5.5 0 0 1 .156.548l-.2.588a.481.481 0 0 1 .162.17.5.5 0 0 1 -.183.682l-.5.289a.5.5 0 0 1 -.723-.594l.068-.2-1.376.79a.5.5 0 0 1 -.618-.771l.31-.337-1.922 1.113a.5.5 0 0 1 -.575-.812l.65-.557-2.374 1.37a.5.5 0 0 1 -.585-.8l3.531-3.183-6.909 3.988a.5.5 0 0 1 -.54-.841l2.156-1.524-4.1 2.367a.5.5 0 0 1 -.539-.841l4.736-3.357-7.273 4.2a.5.5 0 0 1 -.522-.851l.472-.307-2.011 1.16a.5.5 0 0 1 -.529-.848l6.422-4.32-8.947 5.165a.5.5 0 0 1 -.531-.847l9.9-6.685-13.046 7.534a.5.5 0 0 1 -.522-.853l8.939-5.789-11.507 6.644a.5.5 0 0 1 -.524-.851l13.845-9.088-17.217 9.941a.5.5 0 0 1 -.52-.854l14.123-9.048-17.155 9.9a.5.5 0 0 1 -.678-.174.5.5 0 0 1 .16-.682l15.04-9.514-17.966 10.376a.5.5 0 0 1 -.519-.855l19.525-12.41-22.979 13.267a.5.5 0 0 1 -.512-.859l11.53-7.076-13.747 7.937a.5.5 0 0 1 -.511-.859l14.6-8.963-17.018 9.823a.5.5 0 0 1 -.508-.862l2.114-1.267-3.7 2.135a.5.5 0 0 1 -.514-.858l24.236-15.039-27.53 15.894a.494.494 0 0 1 -.25.068z" fill="#4681d6"/><g fill="#41e879"><path d="m18.764 49.374a.5.5 0 0 1 -.379-.826l1.09-1.264-1.2.69a.5.5 0 0 1 -.58-.808l.926-.815-.346.2a.5.5 0 0 1 -.6-.785l2.3-2.315-2.069 1.194a.5.5 0 0 1 -.594-.8l1.95-1.857-3.479 2.012a.5.5 0 0 1 -.581-.808l2.012-1.772-2.538 1.465a.5.5 0 0 1 -.568-.819l.511-.42-.311.179a.5.5 0 0 1 -.643-.742l1.064-1.349a.5.5 0 0 1 -.35-.922l2.065-1.193a.5.5 0 0 1 .643.742l-1.023 1.3 3.3-1.9a.5.5 0 0 1 .568.818l-.51.42 1.637-.944a.5.5 0 0 1 .581.807l-2.012 1.773 2.771-1.6a.5.5 0 0 1 .595.8l-1.949 1.856 1.678-.969a.5.5 0 0 1 .6.785l-2.3 2.315 1.458-.842a.5.5 0 0 1 .58.807l-1.249 1.1a.5.5 0 0 1 .346.825l-1.444 1.675a.5.5 0 0 1 .078.9l-1.781 1.03a.489.489 0 0 1 -.247.057z"/><path d="m33.3 46.421a.5.5 0 0 1 -.394-.809l.538-.685-.94.542a.5.5 0 0 1 -.593-.8l.307-.288a.5.5 0 0 1 -.514-.834l1.071-1.009-.657.379a.5.5 0 0 1 -.593-.8l2.969-2.8-2.636 1.522a.5.5 0 0 1 -.573-.814l1.4-1.19-1.191.687a.5.5 0 0 1 -.562-.823l.191-.152-.37.213a.5.5 0 0 1 -.58-.809l1.437-1.251-2.792 1.61a.5.5 0 0 1 -.575-.813l1.823-1.564-2.666 1.541a.5.5 0 0 1 -.6-.794l1.968-1.88-2.141 1.235a.5.5 0 0 1 -.653-.727l1.2-1.639-.015.008a.5.5 0 0 1 -.5-.865l2.065-1.193a.5.5 0 0 1 .654.728l-1.2 1.64 3.7-2.134a.5.5 0 0 1 .6.793l-1.978 1.88 3.712-2.142a.5.5 0 0 1 .575.812l-1.82 1.564 2.544-1.468a.5.5 0 0 1 .58.809l-1.439 1.26 1.7-.979a.5.5 0 0 1 .562.823l-.192.153.253-.145a.5.5 0 0 1 .573.813l-1.4 1.19 1.558-.9a.5.5 0 0 1 .593.8l-2.969 2.8.663-.383a.5.5 0 0 1 .593.8l-1.09 1.028a.5.5 0 0 1 .526.829l-.555.52a.5.5 0 0 1 .358.808l-.622.794a.5.5 0 0 1 .283.931l-1.935 1.118a.5.5 0 0 1 -.251.06z"/><path d="m10.4 36.211a.5.5 0 0 1 -.417-.775l.918-1.393-1.712.987a.5.5 0 0 1 -.549-.83l1.082-.816-1.122.647a.5.5 0 0 1 -.562-.824l2.77-2.207-2.854 1.647a.5.5 0 0 1 -.568-.818l3.17-2.611-3.308 1.909a.5.5 0 0 1 -.55-.833l1.614-1.21-1.587.916a.5.5 0 0 1 -.55-.833l3.79-2.838-3.9 2.251a.5.5 0 0 1 -.547-.834l3.991-2.963-4.109 2.371a.5.5 0 0 1 -.578-.811l3.8-3.3-4.044 2.334a.5.5 0 0 1 -.612-.778l2.3-2.414-2.5 1.443a.5.5 0 0 1 -.612-.779l.618-.645-.527.3a.5.5 0 0 1 -.738-.326l-.307-1.423a.491.491 0 0 1 -.477-.248.5.5 0 0 1 .183-.683l.4-.228a.5.5 0 0 1 .738.326l.3 1.378 2.956-1.712a.5.5 0 0 1 .611.779l-.617.644 2.473-1.428a.5.5 0 0 1 .613.778l-2.3 2.414 5.543-3.2a.5.5 0 0 1 .578.811l-3.8 3.3 7.14-4.122a.5.5 0 0 1 .548.835l-3.989 2.964 3.619-2.09a.5.5 0 0 1 .55.834l-3.791 2.838 1.545-.892a.5.5 0 0 1 .55.833l-1.616 1.214 1.318-.762a.5.5 0 0 1 .569.819l-3.17 2.611 3.451-1.992a.5.5 0 0 1 .562.824l-2.773 2.207 2.32-1.34a.5.5 0 0 1 .552.832l-3.905 2.949a.5.5 0 0 1 .02.58l-.918 1.394.495-.285a.5.5 0 0 1 .5.865l-2.326 1.342a.5.5 0 0 1 -.252.067z"/><path d="m47.749 34.47a.5.5 0 0 1 -.284-.911l.086-.06-1.566.9a.5.5 0 0 1 -.539-.84l3.523-2.5-4.938 2.85a.5.5 0 0 1 -.526-.85l.738-.489-1.457.841a.5.5 0 0 1 -.528-.848l3.181-2.136-4.139 2.393a.5.5 0 0 1 -.535-.842l7.121-4.95-7.986 4.611a.5.5 0 0 1 -.524-.851l2.361-1.548-2.367 1.366a.5.5 0 0 1 -.543-.838l6.187-4.479-6.586 3.8a.5.5 0 0 1 -.551-.832l4.928-3.71-6.676 3.853a.5.5 0 0 1 -.534-.844l1.232-.85-2.933 1.694a.5.5 0 0 1 -.538-.842l2.007-1.406-3.751 2.168a.5.5 0 0 1 -.538-.841l2.072-1.458-2.589 1.494a.5.5 0 0 1 -.557-.825l3.561-2.822-3.028 1.748a.5.5 0 0 1 -.5-.866l8.922-5.15a.5.5 0 0 1 .561.825l-3.562 2.822 6.327-3.653a.5.5 0 0 1 .538.842l-2.067 1.456 3.985-2.3a.5.5 0 0 1 .537.843l-2.005 1.405 3.9-2.252a.5.5 0 0 1 .534.845l-1.236.852 2.944-1.7a.5.5 0 0 1 .551.833l-4.929 3.71 7.878-4.548a.5.5 0 0 1 .543.838l-6.186 4.479 9.219-5.323a.5.5 0 0 1 .525.851l-2.361 1.547 3.071-1.772a.5.5 0 0 1 .535.844l-7.12 4.948 6.589-3.8a.5.5 0 0 1 .528.848l-3.183 2.137 2.658-1.534a.5.5 0 0 1 .526.849l-.74.491.216-.125a.5.5 0 0 1 .54.841l-3.523 2.5 2.986-1.724a.5.5 0 0 1 .535.844l-.374.259a.5.5 0 0 1 .406.88l-2.322 1.874 1.762-1.032a.5.5 0 0 1 .564.823l-.38.306a.5.5 0 0 1 .433.837l-.555.593a.5.5 0 0 1 .672.606l-.234.775a.492.492 0 0 1 .191.188.5.5 0 0 1 -.183.682l-.5.288a.5.5 0 0 1 -.729-.577l.132-.437-1.752 1.016a.5.5 0 0 1 -.616-.774l.546-.583-2.355 1.357a.5.5 0 0 1 -.564-.822l.194-.156-1.7.978a.5.5 0 0 1 -.563-.822l2.323-1.874-4.665 2.696a.5.5 0 0 1 -.251.07z"/><path d="m47.034 51.073a.5.5 0 0 1 -.361-.845l1.1-1.151-2.173 1.256a.5.5 0 0 1 -.559-.826l.2-.153a.5.5 0 0 1 -.454-.867l.747-.619-.763.441a.5.5 0 0 1 -.594-.8l1.443-1.363-2.636 1.522a.5.5 0 0 1 -.562-.823l.031-.026-.131.075a.5.5 0 0 1 -.6-.072.5.5 0 0 1 -.1-.593l.637-1.213a.5.5 0 0 1 -.4-.911l1.379-.8a.5.5 0 0 1 .694.666l-.625 1.192 4.438-2.563a.5.5 0 0 1 .562.824l-.033.026.534-.308a.5.5 0 0 1 .593.8l-1.441 1.368 2.192-1.265a.5.5 0 0 1 .57.817l-.743.616.735-.424a.5.5 0 0 1 .558.826l-.656.516a.5.5 0 0 1 .3.842l-1.154 1.2a.5.5 0 0 1 .364.92l-2.845 1.643a.489.489 0 0 1 -.247.072z"/></g><path d="m20.548 59.47a.5.5 0 0 1 -.319-.885l.235-.2-1.756 1.015a.5.5 0 0 1 -.6-.787l1.247-1.242-3.52 2.029a.5.5 0 0 1 -.647-.737l1.494-1.945-4.648 2.682a.5.5 0 0 1 -.623-.765l1.443-1.616-4.126 2.381a.5.5 0 0 1 -.581-.808l.68-.6-2.433 1.408a.5.5 0 0 1 -.656-.725l1.48-2.042-4.796 2.767a.5.5 0 0 1 -.629-.758l1.471-1.71-1.984 1.146a.5.5 0 0 1 -.7-.643l.575-1.24a.5.5 0 0 1 -.5-.245.5.5 0 0 1 .183-.682l1.161-.67a.5.5 0 0 1 .7.643l-.548 1.181 3.159-1.822a.5.5 0 0 1 .628.758l-1.471 1.709 4.28-2.467a.5.5 0 0 1 .655.725l-1.479 2.04 4.8-2.767a.5.5 0 0 1 .58.808l-.68.6 2.434-1.4a.5.5 0 0 1 .623.765l-1.444 1.616 4.122-2.387a.5.5 0 0 1 .647.737l-1.493 1.943 4.648-2.68a.5.5 0 0 1 .6.787l-1.246 1.242 3.519-2.029a.5.5 0 0 1 .57.817l-.234.194 1.753-1.011a.5.5 0 0 1 .61.779l-1.338 1.389 3.757-2.168a.5.5 0 0 1 .651.732l-1.489 1.988 4.715-2.72a.5.5 0 0 1 .576.812l-.495.423 2.141-1.235a.5.5 0 0 1 .64.746l-1.49 1.854 4.512-2.6a.5.5 0 0 1 .621.767l-1.433 1.58 4.074-2.347a.5.5 0 0 1 .577.81l-.6.518 2.3-1.328a.5.5 0 0 1 .577.81l-.589.511 2.294-1.321a.5.5 0 0 1 .655.726l-1.481 2.033 4.781-2.759a.5.5 0 0 1 .64.746l-1.493 1.854 4.505-2.6a.5.5 0 0 1 .573.814l-.394.333 1.989-1.147a.5.5 0 0 1 .655.725l-1.476 2.045 2.033-1.17a.5.5 0 0 1 .665.712l-.443.655a.548.548 0 0 1 .454.25.5.5 0 0 1 -.183.683l-1.57.906a.5.5 0 0 1 -.665-.712l.369-.546-2.182 1.252a.5.5 0 0 1 -.655-.725l1.477-2.047-4.8 2.772a.5.5 0 0 1 -.574-.814l.387-.33-1.984 1.144a.5.5 0 0 1 -.64-.746l1.493-1.854-4.505 2.6a.5.5 0 0 1 -.654-.726l1.48-2.033-4.781 2.759a.5.5 0 0 1 -.577-.81l.589-.511-2.289 1.321a.5.5 0 0 1 -.577-.81l.6-.518-2.305 1.328a.5.5 0 0 1 -.621-.767l1.431-1.583-4.073 2.35a.5.5 0 0 1 -.64-.746l1.493-1.854-4.514 2.6a.5.5 0 0 1 -.575-.812l.5-.424-2.151 1.236a.5.5 0 0 1 -.65-.732l1.488-1.988-4.712 2.72a.5.5 0 0 1 -.61-.779l1.338-1.389-3.754 2.168a.493.493 0 0 1 -.252.07z" fill="#275482"/><path d="m29.676 9.451a.5.5 0 0 1 -.347-.86l1.316-1.264-2.524 1.457a.5.5 0 0 1 -.584-.805l2.109-1.891-2.687 1.552a.5.5 0 0 1 -.576-.813l1.909-1.64-1.911 1.1a.5.5 0 0 1 -.574-.814l1.167-1-.647.373a.5.5 0 0 1 -.607-.782l1.1-1.124a.5.5 0 0 1 -.118-.916l2.372-1.363a.5.5 0 0 1 .608.782l-.715.734 2.245-1.297a.5.5 0 0 1 .574.814l-1.167 1 1.81-1.045a.5.5 0 0 1 .576.813l-1.905 1.638 2.207-1.28a.5.5 0 0 1 .584.805l-2.108 1.89 1.926-1.115a.5.5 0 0 1 .6.793l-1.321 1.268.352-.2a.5.5 0 0 1 .5.866l-3.914 2.257a.489.489 0 0 1 -.25.067z" fill="#e24f4f"/><path d="m19.294 20.47a.5.5 0 0 1 -.32-.884l.241-.2-1.763 1.014a.5.5 0 0 1 -.623-.766l1.443-1.617-4.126 2.383a.5.5 0 0 1 -.654-.729l1.485-2.019-4.76 2.748a.5.5 0 0 1 -.589-.8l.966-.891-2.93 1.691a.5.5 0 0 1 -.608-.781l1.323-1.364-3.715 2.145a.5.5 0 0 1 -.579-.809l.666-.583-2.412 1.392a.5.5 0 0 1 -.651-.732l1.489-1.992-1.9 1.1a.5.5 0 0 1 -.692-.665l.476-.909a.5.5 0 0 1 -.231-.932l1.164-.67a.5.5 0 0 1 .693.665l-.411.782 2.507-1.447a.5.5 0 0 1 .651.732l-1.489 1.989 4.719-2.721a.5.5 0 0 1 .579.809l-.665.582 2.41-1.391a.5.5 0 0 1 .609.781l-1.324 1.364 3.716-2.145a.5.5 0 0 1 .589.8l-.966.891 2.93-1.691a.5.5 0 0 1 .653.729l-1.484 2.019 4.759-2.748a.5.5 0 0 1 .623.766l-1.444 1.614 4.127-2.38a.5.5 0 0 1 .571.817l-.242.2 1.763-1.017a.5.5 0 0 1 .583.806l-.776.691 2.594-1.5a.5.5 0 0 1 .587.8l-.928.85 2.86-1.651a.5.5 0 0 1 .645.74l-1.5 1.921 4.61-2.661a.5.5 0 0 1 .647.736l-1.49 1.958 4.666-2.69a.5.5 0 0 1 .587.8l-.9.824 2.812-1.624a.5.5 0 0 1 .653.73l-1.487 2.009 4.746-2.739a.5.5 0 0 1 .649.736l-1.492 1.964 4.673-2.7a.5.5 0 0 1 .579.81l-.633.551 2.358-1.361a.5.5 0 0 1 .639.748l-1.493 1.84 4.483-2.588a.5.5 0 0 1 .629.758l-1.469 1.711 4.244-2.45a.5.5 0 0 1 .577.812l-.5.43.691-.4a.5.5 0 0 1 .669.705l-.862 1.327.2-.119a.5.5 0 0 1 .5.866l-2.012 1.16a.5.5 0 0 1 -.669-.7l.862-1.326-3.518 2.026a.5.5 0 0 1 -.576-.812l.5-.431-2.152 1.243a.5.5 0 0 1 -.629-.758l1.475-1.711-4.285 2.469a.5.5 0 0 1 -.639-.748l1.493-1.84-4.482 2.588a.5.5 0 0 1 -.578-.81l.633-.551-2.359 1.361a.5.5 0 0 1 -.648-.736l1.492-1.964-4.675 2.7a.5.5 0 0 1 -.652-.73l1.485-2.009-4.744 2.739a.5.5 0 0 1 -.587-.8l.9-.824-2.812 1.624a.5.5 0 0 1 -.647-.736l1.492-1.957-4.665 2.693a.5.5 0 0 1 -.645-.74l1.495-1.921-4.609 2.661a.5.5 0 0 1 -.588-.8l.929-.85-2.861 1.65a.5.5 0 0 1 -.583-.806l.776-.69-2.592 1.5a.491.491 0 0 1 -.25.066z" fill="#275482"/><path d="m15.676 44.213c1.366-.1 1.805.793 1.6 2.037-.759 2.838 2.082 4.312 3.8 1.932 1.166-2.5 3.009-4.884 2.653-7.786-.42-3.345-5.481-2.855-7.941-2.451-3.103.855-3.367 5.455-.112 6.268zm-.591-4.736c.777-1.627 2.744-1.116 4.184-.973 5.842.322 1.862 7.347.186 10.121-1.432-.724-.409-2.838-.773-4.107a1.328 1.328 0 0 0 -1.3-.855 2.847 2.847 0 0 1 -2.297-4.186z" fill="#262626"/><path d="m28.457 38.4c3.9.057 1.795 5.113 3.306 7.3 4.708 3.3 4.178-4.193 5.651-6.709 4.466-5.183-7.047-9.62-10.7-6.364a3.321 3.321 0 0 0 1.743 5.773zm-.916-5.113c2.033-1.718 6.609-.734 8.11 1.4.672.987 2.407 2.181.991 3.288-1.95 1.163-1.278 8.951-3.48 7.208-.949-1.881-.342-4.319-1.208-6.259-1.465-2.257-6.662-.896-4.413-5.642z" fill="#262626"/><path d="m43.533 48.031c.651.233.79.706.817 1.342.18 1.627 2.429 1.514 3.65 1.834 2.211.658 4.68-6.078 3.037-7.044-2.38-2.4-5.575-.973-8.484-.476-2.365.844-1.413 4.313.98 4.344zm3.7-4.688c4.693 1.235 2.538 3.937 1.379 7.223-1.275-.335-3.046-.345-2.838-2.1-.236-1.1-1.624-1.081-2.442-1.481-2.415-3.397 1.528-3.204 3.9-3.642z" fill="#262626"/><path d="m1.276 54.966c-2.076 1.077-1.393 5.192 1.512 4.321h28.239c8.945-.027 17.894.088 26.835-.031 2.263.186 2.631-3.9.862-4.494v-34.685c1.014-.294 1.087-1.383 1-2.271.329-4.154-8.817-1.361-11.646-2.125l-13.808-8.881c3.293-8.223-11.667-8.048-8.608.079-4.553 2.936-9.127 5.851-13.67 8.8-3.679.469-8.331-1.189-11.516.847-.445.954-.677 3.549.8 3.742zm49.538-21.308c-12.662.658-8.569-4.377-14.065-6-12.036.527-2.811-5.014 2.328-7.318 6.073.028 12.146.036 18.218-.021-.177 4.39.078 8.912-.019 13.339zm-35.759-10.024c-1.82 2.211 2.886 4.8-.447 6.608-1.94 1.8-3.979 1.922-2.513 4.851-3.5 2.047-7.11-12.148-9.132-14.774h13.308c.055 1.344.195 2.658-1.216 3.315zm-8.882 7.111c1.012 2.591 2.678 6.706 6.2 5.545 2.418-1.162.251-2.306.745-3.561 1.6-1.713 5.462-3.019 3.859-6.015-2.716-3.326 1.579-2.7.759-6.395 6.656 0 13.311-.012 19.967.015-2.387 2.135-9.155 2.925-8.173 6.924.8 1.412 2.737 1.083 4.092 1.083 1.917 0 3.532-.3 4.565 1.68 3.457 6.664 12.92 3.666 19.087 4.32.018 6.783-.024 13.576-.008 20.351-18.186.059-36.378-.044-54.561.016.156-10.354-.153-20.8.109-31.195zm31.961 27.967h-34.56c-2.154.554-1.924-2.112-1.929-3.412h48.933c3.257.56 9.109-2.034 7.586 3.414zm-10.934-55.59c1.63-3.02 6.175-1.261 6.063 1.935-.137 5.928-8.789 2.943-6.063-1.935zm-1.934 5.325.966-.621a4.889 4.889 0 0 0 7.41-.045l12.287 7.9h-31.914zm-23.454 7.872c3.309-.021 6.71.015 10.051 0 .248.4.851.215 1.159 0 14.876.013 29.829-.017 44.666 0 .98.482.639 2.506.458 3.362h-40.52c-4.936-.2-10.355.284-15.378-.134-.714-.218-.669-2.689-.436-3.228z" fill="#262626"/></svg>