<?xml version="1.0" encoding="UTF-8"?>
<svg xmlns="http://www.w3.org/2000/svg" id="Layer_1" data-name="Layer 1" viewBox="0 0 64 64" width="512" height="512"><path d="M32,7.5A24.5,24.5,0,1,0,56.5,32,24.528,24.528,0,0,0,32,7.5ZM18.183,13.008a2.373,2.373,0,0,1,1.4,1.048,1.335,1.335,0,0,1-.225,1.215l-1.491,1.983a5.87,5.87,0,0,0-.636,5.7,2.021,2.021,0,0,1-.7,2.3,2.068,2.068,0,0,0-.8,1.3c-.253,1.22.316,2.779,1.683,4.627a2.529,2.529,0,0,0,2.974.816,3.93,3.93,0,0,1,2.759-.008,4.874,4.874,0,0,1,2.522,2.835,5.9,5.9,0,0,1-.839,6.122c-.092.1-2.219,2.454-.947,4.3.153.3.526,1.256.254,1.753-.043.08-.175.321-.8.382-1.754.237-3.848.184-4.17-.27-.049-.069.015-.217.041-.271.108-.179,1.031-1.789.424-3.039A2.337,2.337,0,0,0,17.673,42.6c-.075-.014-1.859-.374-2.168-3.9-.02-.264-.54-6.488-3.648-8.227a3.824,3.824,0,0,0-3.291-.151A23.491,23.491,0,0,1,18.183,13.008ZM32,55.5A23.527,23.527,0,0,1,8.5,32c0-.188.01-.373.014-.56a3.036,3.036,0,0,1,2.854-.088c2.643,1.477,3.136,7.372,3.141,7.436.383,4.364,2.9,4.786,3.02,4.8a1.441,1.441,0,0,1,1.21.638,2.751,2.751,0,0,1-.4,2.119,1.216,1.216,0,0,0,.017,1.333c.472.666,1.755.838,2.948.838a16.7,16.7,0,0,0,2.153-.153,1.838,1.838,0,0,0,1.561-.9,3.31,3.31,0,0,0-.277-2.742c-.854-1.242.81-3.09.856-3.144a6.849,6.849,0,0,0,.974-7.195,5.768,5.768,0,0,0-3.067-3.338,4.908,4.908,0,0,0-3.491.016,1.507,1.507,0,0,1-1.788-.476c-1.467-1.983-1.637-3.159-1.522-3.8a1.1,1.1,0,0,1,.393-.718A.469.469,0,0,0,17.192,26a2.981,2.981,0,0,0,.969-3.412,4.875,4.875,0,0,1,.5-4.734l1.515-2.019a2.311,2.311,0,0,0,.329-2.155,2.79,2.79,0,0,0-1.359-1.342,23.43,23.43,0,0,1,27.606,1.388,8.971,8.971,0,0,1-4.627-.8c-.348-.124-3.446-1.192-5.083-.2a1.994,1.994,0,0,0-.956,1.48c-.01.061-.226,1.5,2.177,2.082a4.153,4.153,0,0,1,1.6.742.138.138,0,0,1,.044.111.164.164,0,0,1-.063.119,4.869,4.869,0,0,1-1.659.7c-.79.152-4.775.983-5.6,2.463a1.174,1.174,0,0,0-.112.991c.116.553,1.089,1.418,6.3,1a1.034,1.034,0,0,1,1.107.8.912.912,0,0,1-.5,1.113c-.492.235-1.507.418-3.552-.039-.152-.037-3.754-.863-6.158.8a4.8,4.8,0,0,0-1.994,3.515c-.021.148-.465,3.64,4.857,5.556a5.969,5.969,0,0,1,3.332,2.724,4.582,4.582,0,0,1-.168,3.818c-.36.721-2.084,4.386-.747,5.762a1.687,1.687,0,0,0,1.271.482,6.053,6.053,0,0,0,2.418-.68c.212-.111,5.189-2.773,6.224-7.507.582-2.664-.21-5.426-2.374-8.231a1.914,1.914,0,0,1-.342-1.609.661.661,0,0,1,.346-.406,1.614,1.614,0,0,1,1.266.378l2.267,1.43a2.014,2.014,0,0,0,2.711-.273,1.54,1.54,0,0,0-.206-1.919c-.007-.007-.775-.7-.5-1.287a1.627,1.627,0,0,1,.819-.7c.141.007.322.205.481.524l1.33,2.777a8.8,8.8,0,0,1,.945,3.357,1.848,1.848,0,0,0,.932,1.706,1.823,1.823,0,0,0,1.833-.2,2.854,2.854,0,0,1,1.057-.52A23.527,23.527,0,0,1,32,55.5ZM55.48,32.786a3.553,3.553,0,0,0-1.7.719.834.834,0,0,1-.8.12c-.3-.153-.369-.606-.382-.863a9.768,9.768,0,0,0-1.042-3.739l-1.333-2.784a1.635,1.635,0,0,0-1.336-1.084c-.945-.012-1.637,1.046-1.74,1.217a2.177,2.177,0,0,0,.674,2.472.542.542,0,0,1,.127.591,1.045,1.045,0,0,1-1.375.06l-2.283-1.439a2.409,2.409,0,0,0-2.177-.464,1.649,1.649,0,0,0-.94,1.079,2.9,2.9,0,0,0,.535,2.5c1.955,2.536,2.686,5.019,2.172,7.379-.931,4.277-5.665,6.816-5.69,6.83-1.278.591-2.2.735-2.53.4-.62-.637.186-3.133.936-4.643a5.552,5.552,0,0,0,.17-4.66,6.912,6.912,0,0,0-3.924-3.252c-4.492-1.618-4.2-4.352-4.182-4.473a3.852,3.852,0,0,1,1.569-2.826c2.036-1.414,5.329-.661,5.368-.652a6.717,6.717,0,0,0,4.207-.034,1.906,1.906,0,0,0,1.03-2.275,2.051,2.051,0,0,0-2.152-1.539c-4.185.337-5.13-.213-5.271-.32a.245.245,0,0,1,.038-.185c.443-.791,3.144-1.627,4.955-1.976a5.979,5.979,0,0,0,2.041-.882,1.158,1.158,0,0,0,.456-.858,1.14,1.14,0,0,0-.35-.889,5.062,5.062,0,0,0-2.058-.993c-1.151-.28-1.432-.754-1.42-.956a1,1,0,0,1,.485-.778c1.045-.631,3.406-.007,4.217.284,3.409,1.31,5.174.944,5.893.64A23.446,23.446,0,0,1,55.5,32C55.5,32.264,55.489,32.525,55.48,32.786Z"/></svg>
