<svg height="512" viewBox="0 0 64 64" width="512" xmlns="http://www.w3.org/2000/svg"><g fill="rgb(0,0,0)"><path d="m59.0345 27.3598h-1c.28271-2.61212-1.23194-4.95038-4-5h-5.51587l7.2229-7.22168c4.88574-3.44672 3.53223-7.40387-.71094-10.60541-5.49145-5.67438-19.41992 15.88965-24.02209 18.36914-3.86109-.1958-26.99951-3.79535-24.974 4.458-7.78736-2.18048-2.563 24.105-4.00183 27.00012-.75647 5.95361 22.52087 1.85339 25.1278 2.99988a4.02442 4.02442 0 0 0 3.874 2.99994c2.37683.25848 5.29809-.33777 5.873-2.99994 2.72314-1.19373 25.79882 2.97937 25.12719-2.9986-1.19206-2.62825 3.01205-27.80675-3.00016-27.00145zm-1 2c.81482-.46326 1.35132.18805 1.698 1.52588-.51075-.47119-1.29078.00464-1.736.36688.00797-.61656.01944-1.24414.038-1.89276zm.09753 3.52569c.47193-.60485 1.44568-.76495 1.71887-1.5036a19.12269 19.12269 0 0 1 .2732 2.04254 14.9563 14.9563 0 0 0 -2.1156 1.98212c-.014-.76971-.02088-1.57483-.02161-2.40594a1.33347 1.33347 0 0 0 .14511-.11512zm-4.09753-8.52569a2.00229 2.00229 0 0 1 2 2c-.67627 35.64752 5.84485 20.272-23 26.54053v-17.95221c4.22595.4436 10.68213-8.244 13.4845-10.58863zm-19.63233 30.0274a10.06831 10.06831 0 0 0 -1.233 1.73511 4.29859 4.29859 0 0 1 1.233-1.73511zm2.89234-23.63159a13.9021 13.9021 0 0 0 -1.74024-2.5011l15.94483-15.94476.80493.80493c.46765.43768.46814 1.26752 1.10547 1.52625-4.13379 4.13379-12.11402 12.11383-16.11499 16.11468zm17.81921-23.08429c.03662-.07916.07019-.157.10486-.235 1.67725 1.75494 2.71411 3.81579-.18457 5.5802l-.6593-.65931a10.0331 10.0331 0 0 0 1.9917-2.801.54016.54016 0 0 0 -.18909-.55438c-.64246-.39392-1.1676.45141-1.48633.907-.3855.54456-.73852 1.10974-1.085 1.67969l-.55371-.55365a32.90812 32.90812 0 0 0 2.06144-3.36355zm-2.3435-1.102q.22467-.47277.44934-.94562a10.14037 10.14037 0 0 1 .8208.69056 16.85849 16.85849 0 0 0 -1.7168 3.38474 6.1222 6.1222 0 0 0 -.73756-.854 12.83859 12.83859 0 0 0 1.18422-2.27567zm-.49922-1.21282c-.4032 1.01331-.81482 2.02552-1.214 3.03943-.54468-.4762-1.28955-.58063-1.6792-1.03564.72164-.80963 1.79513-1.95264 2.8932-2.00379zm-20.44256 19.55408 16.13526-16.13617 2.1213 2.12128-15.94454 15.94458a13.89346 13.89346 0 0 0 -2.50159-1.7406zm-23.79394 1.44922c-.37293-4.08875 19.50439-1.23712 21.457-1.94086-1.38135.60309-1.85791 4.24207-2.18848 5.55554-1.02734 4.5824-2.89013 7.76215 3.73145 5.436v17.48985c-28.92417-6.23078-22.30026 9.00177-22.99997-26.54053zm22.543 7.09869c.02978-.0343.06189-.06659.08886-.10309.01612.02393.03577.04633.05152.07044zm-24.543-4.09869c.01391.471.02051.92023.02856 1.3742-.776.16864-1.31933.91065-1.89306 1.42188a5.38812 5.38812 0 0 0 -.13672-1.79651c-.00489-1.06628 1.22851-1.05231 2.00122-.99957zm.04663 2.80591q.00823 1.29867-.00708 2.5014a9.77169 9.77169 0 0 0 -2.00928 2.132c.0332-1.05023.06226-2.02344.08154-2.88092.68555-.5399 1.2483-1.21219 1.93482-1.75248zm-2.051 5.725a.402.402 0 0 0 .35425-.11456c.52027-.5813 1.10132-1.10126 1.66431-1.63971-.027 1.21521-.064 2.353-.10364 3.41571-.87317-.1087-1.54138 1.12891-2.01819 1.72949.03232-1.1633.06858-2.30564.10324-3.3909zm-.141 4.85932c.31165-.03974.45325-.39966.639-.61341.40833-.54943.92261-1.02227 1.37781-1.5354-.04724 1.23291-.08875 2.36133-.10681 3.38752a9.945 9.945 0 0 0 -1.97056 2.68526c.00598-1.2705.02905-2.59716.06054-3.92394zm5.21177 12.60977h-4.0664c-.50415.1557-.81116-.81958-.99024-2.4513.55616-.19995.84986-.86413 1.28833-1.25036a3.417 3.417 0 0 0 .92408-1.39783.50666.50666 0 0 0 -.74024-.569 5.83244 5.83244 0 0 0 -1.58874 1.78564c-.07117-1.21185-.09973-2.62921-.1-4.15277.3252.39734.80127.11261.99829-.25659a9.1042 9.1042 0 0 1 .98145-1.07239c.12671 4.27558 1.15381 6.39917 5.28955 7.2453-.62608.74226-1.35728 1.39161-1.99608 2.1193zm6.42859-1.5174a17.25819 17.25819 0 0 0 -1.51025 1.51734c-1.21436 0-2.38806.00006-3.4657.00006a11.12947 11.12947 0 0 0 2.17957-1.86609c.88257.09906 1.881.15961 2.99426.18884-.06567.05359-.13464.10303-.19788.15985zm.33728 1.51728a15.11 15.11 0 0 0 2.22266-1.65784c.98315-.00873 2.05432-.036 3.19714-.0766a21.3872 21.3872 0 0 0 -2.43347 1.73438c-.98266.00006-1.98681 0-2.98633.00006zm12.16846-.0008c-.00024.00012-.58374.00025-1.55981.00037a4.35609 4.35609 0 0 0 1.40332-1.22485.47323.47323 0 0 0 -.52942-.6886 9.68631 9.68631 0 0 0 -2.50867 1.91357l-4.36719.00018a9.01 9.01 0 0 0 2.42432-1.79785c1.253-.05511 2.57788-.12188 4.01733-.20349 1.21363-.39661 2.06885.31824 2.77674 1.23407-.37366.40863-.77539.7984-1.1294 1.22131a3.3841 3.3841 0 0 0 -.52722-.45471zm3.87915 3.10736c-2.10681.07953-2.21277-.855-2.78735-1.88342a13.17246 13.17246 0 0 0 1.24353-1.02382c.77771 1.1665 1.44324 2.1466 2.3822 1.292-.28711.534-.56409 1.074-.83838 1.61524zm-2.47925-28.83062.69995-3.03315a11.84208 11.84208 0 0 1 5.67579 5.63819l-3.05628.71124a8.02342 8.02342 0 0 0 -3.31946-3.31628zm6.88477 25.444-.17468.241c-.06079.01129-.09986.02436-.11023.03992-1.608.27637-.76783 3.23932-3.00074 2.999-.09057.01355-.16406.01874-.24963.02991.42444-.51129 3.963-4.455 1.93164-4.22742a4.24883 4.24883 0 0 1 3.00134-.7713 9.91814 9.91814 0 0 0 -1.3977 1.68886zm3.6151-.17612a.65732.65732 0 0 0 -.18152.394c-1.02417-.02118-1.89941-.03393-2.53723-.02911a7.42067 7.42067 0 0 0 1.04065-1.532.29782.29782 0 0 0 -.09717-.32154c1.09082.06037 2.13025.11328 3.10767.1565-.46166.42376-.89233.88733-1.3324 1.33215zm5.22827.35022c-.04468.055-.08679.11218-.131.16748-1.17065-.026-2.29639-.054-3.33667-.07929a10.29337 10.29337 0 0 0 2.106-1.67413c1.06726.03113 2.03955.043 2.95825.04193a14.5788 14.5788 0 0 0 -1.59657 1.54401zm3.8606.23682c-.89881-.01014-1.80383-.02454-2.69715-.04206a16.29085 16.29085 0 0 0 2.02173-1.76037c.81153-.022 1.56494-.06031 2.25183-.11914a17.85229 17.85229 0 0 0 -1.5764 1.92157zm6.17468-.04731a42.16608 42.16608 0 0 0 4.71509-4.94745c-.073 2.16889-.0752 3.66761.12085 3.864.39651.66414-1.71874.96706-4.83593 1.08345zm4.77185-6.46264c-.32092-.1034-.70215.19384-.98718.335a41.72608 41.72608 0 0 0 -5.31222 6.16848c-.91418.01684-1.87939.02282-2.876.01983.90063-.86291 1.87719-1.65179 2.82959-2.41266 3.00647-.78906 4.14184-2.41534 4.50512-5.29217a20.91127 20.91127 0 0 1 1.97388-2.03207c-.04614 1.13394-.09302 2.21792-.13318 3.21359zm.19593-4.83059c-.957.27173-1.46191 1.29523-1.91027 2.1098.03955-.961.03088-2.03174-.00257-3.22778.36426-.29077 1.68775-1.89 2.01148-2.19489-.02368 1.1061-.0586 2.22122-.09864 3.31287zm-1.14025-3.65875q-.40962.55416-.81934 1.1084c-.05078-1.39032-.11609-2.9278-.16272-4.625a22.23686 22.23686 0 0 0 2.1897-1.88892c.05334 1.19495.06787 2.50354.0581 3.85925a8.31232 8.31232 0 0 0 -1.26574 1.54623z"/><path d="m13.73042 29.97473c2.11487-.01508 4.24548-.52771 6.72839-.3374a9.89747 9.89747 0 0 0 2.355-.04163.76911.76911 0 0 0 .182-1.39221c-.73402-.87677-12.01746-.16468-9.26539 1.77124z"/><path d="m13.11555 34.98938a46.543 46.543 0 0 1 8.14014.0169c.81482.07917 2.08936.465 2.80127-.06341a.73767.73767 0 0 0 .26062-.99408c-.57556-.80426-1.75134-.80908-2.65466-.8758a24.46749 24.46749 0 0 0 -8.69068.85743c-.55493.17958-.49011 1.08911.14331 1.05896z"/><path d="m13.36067 40.27246a31.98932 31.98932 0 0 1 7.61011.37945 5.67125 5.67125 0 0 0 2.63879-.02038.66645.66645 0 0 0 .13281-1.03083 5.43092 5.43092 0 0 0 -2.52038-.805c-2.65405-.2782-5.47461-.60516-7.99854.46387-.49609.19743-.49316 1.04981.13721 1.01289z"/><path d="m13.22676 46.04065c2.8219.23779 5.68762-.107 8.50049.41125a7.7591 7.7591 0 0 0 3.00744.15979.81413.81413 0 0 0 .35694-1.35144c-1.71241-1.20367-4.0232-.999-6.02625-1.1203-.8269-.06885-7.97138.29431-5.83862 1.9007z"/><path d="m7.76668 52.22424a11.67367 11.67367 0 0 0 -2.57618 2.29285.40366.40366 0 0 0 0 .56347.41074.41074 0 0 0 .56348 0 11.68237 11.68237 0 0 0 2.4812-2.249.38849.38849 0 0 0 -.4685-.60732z"/></g></svg>